%TF.GenerationSoftware,Altium Limited,Altium Designer,22.1.2 (22)*%
G04 Layer_Color=128*
%FSLAX44Y44*%
%MOMM*%
%TF.SameCoordinates,D2A5B157-11BA-4D30-A4C3-CA4352B12235*%
%TF.FilePolarity,Positive*%
%TF.FileFunction,Drillmap*%
%TF.Part,Single*%
G01*
G75*
%TA.AperFunction,NonConductor*%
%ADD50C,0.1270*%
D50*
X297000Y1076200D02*
X303000D01*
X300000Y1073200D02*
Y1079200D01*
X337000Y963800D02*
X343000D01*
X340000Y960800D02*
Y966800D01*
X337000Y1076200D02*
X343000D01*
X340000Y1073200D02*
Y1079200D01*
X297000Y963800D02*
X303000D01*
X300000Y960800D02*
Y966800D01*
X297360Y1214760D02*
X303360D01*
X300360Y1211760D02*
Y1217760D01*
X337360Y1102360D02*
X343360D01*
X340360Y1099360D02*
Y1105360D01*
X337360Y1214760D02*
X343360D01*
X340360Y1211760D02*
Y1217760D01*
X297360Y1102360D02*
X303360D01*
X300360Y1099360D02*
Y1105360D01*
X903630Y1016270D02*
X909930D01*
X906780Y1013120D02*
Y1019420D01*
X903630Y967470D02*
X909930D01*
X906780Y964320D02*
Y970620D01*
X1078040Y952500D02*
X1086040D01*
X1082040Y948500D02*
Y956500D01*
X1078040Y1016000D02*
X1086040D01*
X1082040Y1012000D02*
Y1020000D01*
X903630Y1191260D02*
X909930D01*
X906780Y1188110D02*
Y1194410D01*
X903630Y1142460D02*
X909930D01*
X906780Y1139310D02*
Y1145610D01*
X1078040Y1129030D02*
X1086040D01*
X1082040Y1125030D02*
Y1133030D01*
X1078040Y1192530D02*
X1086040D01*
X1082040Y1188530D02*
Y1196530D01*
X1138540Y1022350D02*
X1152540D01*
X1145540Y1015350D02*
Y1029350D01*
X1138540Y1149350D02*
X1152540D01*
X1145540Y1142350D02*
Y1156350D01*
X1138540Y1123950D02*
X1152540D01*
X1145540Y1116950D02*
Y1130950D01*
X1138540Y1098550D02*
X1152540D01*
X1145540Y1091550D02*
Y1105550D01*
X1138540Y1073150D02*
X1152540D01*
X1145540Y1066150D02*
Y1080150D01*
X1138540Y1047750D02*
X1152540D01*
X1145540Y1040750D02*
Y1054750D01*
X389000Y1058000D02*
X393000D01*
X391000Y1056000D02*
Y1060000D01*
X847630Y928370D02*
X851630D01*
X849630Y926370D02*
Y930370D01*
X834930Y928370D02*
X838930D01*
X836930Y926370D02*
Y930370D01*
X424720Y1165860D02*
X428720D01*
X426720Y1163860D02*
Y1167860D01*
X739680Y1084580D02*
X743680D01*
X741680Y1082580D02*
Y1086580D01*
X371380Y1158240D02*
X375380D01*
X373380Y1156240D02*
Y1160240D01*
X714280Y1007110D02*
X718280D01*
X716280Y1005110D02*
Y1009110D01*
X964470Y1014730D02*
X968470D01*
X966470Y1012730D02*
Y1016730D01*
X457740Y989330D02*
X461740D01*
X459740Y987330D02*
Y991330D01*
X723170Y1021080D02*
X727170D01*
X725170Y1019080D02*
Y1023080D01*
X1005110Y1123950D02*
X1009110D01*
X1007110Y1121950D02*
Y1125950D01*
X1002570Y948690D02*
X1006570D01*
X1004570Y946690D02*
Y950690D01*
X1052100Y1159510D02*
X1056100D01*
X1054100Y1157510D02*
Y1161510D01*
X1049560Y984250D02*
X1053560D01*
X1051560Y982250D02*
Y986250D01*
X1039400Y1016000D02*
X1043400D01*
X1041400Y1014000D02*
Y1018000D01*
X1039400Y1192530D02*
X1043400D01*
X1041400Y1190530D02*
Y1194530D01*
X1039400Y1040130D02*
X1043400D01*
X1041400Y1038130D02*
Y1042130D01*
X1039400Y1211580D02*
X1043400D01*
X1041400Y1209580D02*
Y1213580D01*
X533940Y1206500D02*
X537940D01*
X535940Y1204500D02*
Y1208500D01*
X525050Y1198880D02*
X529050D01*
X527050Y1196880D02*
Y1200880D01*
X371380Y1176020D02*
X375380D01*
X373380Y1174020D02*
Y1178020D01*
X406940Y1135380D02*
X410940D01*
X408940Y1133380D02*
Y1137380D01*
X389160Y1129030D02*
X393160D01*
X391160Y1127030D02*
Y1131030D01*
X606330Y1186180D02*
X610330D01*
X608330Y1184180D02*
Y1188180D01*
X638080Y1150620D02*
X642080D01*
X640080Y1148620D02*
Y1152620D01*
X630460Y1159510D02*
X634460D01*
X632460Y1157510D02*
Y1161510D01*
X622840Y1168400D02*
X626840D01*
X624840Y1166400D02*
Y1170400D01*
X610140Y1121410D02*
X614140D01*
X612140Y1119410D02*
Y1123410D01*
X580930Y1097280D02*
X584930D01*
X582930Y1095280D02*
Y1099280D01*
X578390Y1108710D02*
X582390D01*
X580390Y1106710D02*
Y1110710D01*
X566960Y1092200D02*
X570960D01*
X568960Y1090200D02*
Y1094200D01*
X466630Y1236980D02*
X470630D01*
X468630Y1234980D02*
Y1238980D01*
X389160Y979170D02*
X393160D01*
X391160Y977170D02*
Y981170D01*
X541560Y1215390D02*
X545560D01*
X543560Y1213390D02*
Y1217390D01*
X372650Y1214120D02*
X376650D01*
X374650Y1212120D02*
Y1216120D01*
X676180Y1141730D02*
X680180D01*
X678180Y1139730D02*
Y1143730D01*
X706660Y1214120D02*
X710660D01*
X708660Y1212120D02*
Y1216120D01*
X497110Y1130300D02*
X501110D01*
X499110Y1128300D02*
Y1132300D01*
X406480Y1187570D02*
X410480D01*
X408480Y1185570D02*
Y1189570D01*
X847630Y1097280D02*
X851630D01*
X849630Y1095280D02*
Y1099280D01*
X834930Y1097280D02*
X838930D01*
X836930Y1095280D02*
Y1099280D01*
X784130Y1019810D02*
X788130D01*
X786130Y1017810D02*
Y1021810D01*
X784130Y1196340D02*
X788130D01*
X786130Y1194340D02*
Y1198340D01*
X508540Y1182370D02*
X512540D01*
X510540Y1180370D02*
Y1184370D01*
X822230Y1066800D02*
X826230D01*
X824230Y1064800D02*
Y1068800D01*
X809530Y1066800D02*
X813530D01*
X811530Y1064800D02*
Y1068800D01*
X796830Y1066800D02*
X800830D01*
X798830Y1064800D02*
Y1068800D01*
X822230Y1240790D02*
X826230D01*
X824230Y1238790D02*
Y1242790D01*
X809530Y1240790D02*
X813530D01*
X811530Y1238790D02*
Y1242790D01*
X796830Y1240790D02*
X800830D01*
X798830Y1238790D02*
Y1242790D01*
X433610Y1150620D02*
X437610D01*
X435610Y1148620D02*
Y1152620D01*
X574580Y1221740D02*
X578580D01*
X576580Y1219740D02*
Y1223740D01*
X580930Y1210310D02*
X584930D01*
X582930Y1208310D02*
Y1212310D01*
X597440Y1129030D02*
X601440D01*
X599440Y1127030D02*
Y1131030D01*
X511080Y1000760D02*
X515080D01*
X513080Y998760D02*
Y1002760D01*
X519970Y981710D02*
X523970D01*
X521970Y979710D02*
Y983710D01*
%TF.MD5,11d47e19c475d66c8b0c32dcef3fa4ef*%
M02*
