%TF.GenerationSoftware,Altium Limited,Altium Designer,22.1.2 (22)*%
G04 Layer_Color=16711935*
%FSLAX44Y44*%
%MOMM*%
%TF.SameCoordinates,D2A5B157-11BA-4D30-A4C3-CA4352B12235*%
%TF.FilePolarity,Positive*%
%TF.FileFunction,Other,Mechanical_1*%
%TF.Part,Single*%
G01*
G75*
%TA.AperFunction,NonConductor*%
%ADD52C,0.0000*%
%ADD75C,0.1000*%
D52*
X349999Y1062956D02*
G03*
X345994Y1066199I-3624J-381D01*
G01*
X347187Y1059699D02*
G03*
X350001Y1062937I-212J3026D01*
G01*
X347208Y1059701D02*
G03*
X345999Y1058208I142J-1351D01*
G01*
Y981792D02*
G03*
X347208Y980299I1351J-142D01*
G01*
X350001Y977063D02*
G03*
X347187Y980301I-3026J212D01*
G01*
X345994Y973801D02*
G03*
X349999Y977044I381J3624D01*
G01*
X350359Y1201516D02*
G03*
X346354Y1204759I-3624J-381D01*
G01*
X347547Y1198259D02*
G03*
X350361Y1201497I-212J3026D01*
G01*
X347568Y1198261D02*
G03*
X346359Y1196768I142J-1351D01*
G01*
Y1120352D02*
G03*
X347568Y1118859I1351J-142D01*
G01*
X350361Y1115623D02*
G03*
X347547Y1118861I-3026J212D01*
G01*
X346354Y1112361D02*
G03*
X350359Y1115604I381J3624D01*
G01*
X284000Y1066200D02*
Y1085200D01*
Y1066200D02*
X346000D01*
Y981800D02*
Y1058200D01*
X284000Y973800D02*
X346000D01*
X284000Y956400D02*
Y973800D01*
X284360Y1204760D02*
Y1223760D01*
Y1204760D02*
X346360D01*
Y1120360D02*
Y1196760D01*
X284360Y1112360D02*
X346360D01*
X284360Y1094960D02*
Y1112360D01*
D75*
X545370Y1029970D02*
X549370D01*
X547370Y1027970D02*
Y1031970D01*
%TF.MD5,4ec62ddf8ea93701bac6d42f101c3d3d*%
M02*
