%TF.GenerationSoftware,Altium Limited,Altium Designer,22.1.2 (22)*%
G04 Layer_Color=8421504*
%FSLAX44Y44*%
%MOMM*%
%TF.SameCoordinates,D2A5B157-11BA-4D30-A4C3-CA4352B12235*%
%TF.FilePolarity,Positive*%
%TF.FileFunction,Paste,Top*%
%TF.Part,Single*%
G01*
G75*
%TA.AperFunction,SMDPad,CuDef*%
G04:AMPARAMS|DCode=11|XSize=1.01mm|YSize=0.26mm|CornerRadius=0.0325mm|HoleSize=0mm|Usage=FLASHONLY|Rotation=135.000|XOffset=0mm|YOffset=0mm|HoleType=Round|Shape=RoundedRectangle|*
%AMROUNDEDRECTD11*
21,1,1.0100,0.1950,0,0,135.0*
21,1,0.9450,0.2600,0,0,135.0*
1,1,0.0650,-0.2652,0.4031*
1,1,0.0650,0.4031,-0.2652*
1,1,0.0650,0.2652,-0.4031*
1,1,0.0650,-0.4031,0.2652*
%
%ADD11ROUNDEDRECTD11*%
G04:AMPARAMS|DCode=12|XSize=0.26mm|YSize=1.01mm|CornerRadius=0.0325mm|HoleSize=0mm|Usage=FLASHONLY|Rotation=135.000|XOffset=0mm|YOffset=0mm|HoleType=Round|Shape=RoundedRectangle|*
%AMROUNDEDRECTD12*
21,1,0.2600,0.9450,0,0,135.0*
21,1,0.1950,1.0100,0,0,135.0*
1,1,0.0650,0.2652,0.4031*
1,1,0.0650,0.4031,0.2652*
1,1,0.0650,-0.2652,-0.4031*
1,1,0.0650,-0.4031,-0.2652*
%
%ADD12ROUNDEDRECTD12*%
G04:AMPARAMS|DCode=13|XSize=1.4mm|YSize=1.1mm|CornerRadius=0mm|HoleSize=0mm|Usage=FLASHONLY|Rotation=315.000|XOffset=0mm|YOffset=0mm|HoleType=Round|Shape=Rectangle|*
%AMROTATEDRECTD13*
4,1,4,-0.8839,0.1061,-0.1061,0.8839,0.8839,-0.1061,0.1061,-0.8839,-0.8839,0.1061,0.0*
%
%ADD13ROTATEDRECTD13*%

%ADD14R,1.1000X0.6000*%
%ADD15R,1.1000X0.3000*%
%ADD16R,1.0000X1.3000*%
%ADD17R,1.3000X1.0000*%
G04:AMPARAMS|DCode=18|XSize=1.75mm|YSize=0.59mm|CornerRadius=0.0738mm|HoleSize=0mm|Usage=FLASHONLY|Rotation=90.000|XOffset=0mm|YOffset=0mm|HoleType=Round|Shape=RoundedRectangle|*
%AMROUNDEDRECTD18*
21,1,1.7500,0.4425,0,0,90.0*
21,1,1.6025,0.5900,0,0,90.0*
1,1,0.1475,0.2213,0.8012*
1,1,0.1475,0.2213,-0.8012*
1,1,0.1475,-0.2213,-0.8012*
1,1,0.1475,-0.2213,0.8012*
%
%ADD18ROUNDEDRECTD18*%
%ADD19R,1.4000X1.1000*%
%ADD20R,1.7000X1.1000*%
%ADD21R,0.7620X1.7780*%
%ADD22R,2.2000X2.8000*%
G04:AMPARAMS|DCode=23|XSize=1.3mm|YSize=1mm|CornerRadius=0mm|HoleSize=0mm|Usage=FLASHONLY|Rotation=135.000|XOffset=0mm|YOffset=0mm|HoleType=Round|Shape=Rectangle|*
%AMROTATEDRECTD23*
4,1,4,0.8132,-0.1061,0.1061,-0.8132,-0.8132,0.1061,-0.1061,0.8132,0.8132,-0.1061,0.0*
%
%ADD23ROTATEDRECTD23*%

G04:AMPARAMS|DCode=24|XSize=1.4mm|YSize=1.1mm|CornerRadius=0mm|HoleSize=0mm|Usage=FLASHONLY|Rotation=225.000|XOffset=0mm|YOffset=0mm|HoleType=Round|Shape=Rectangle|*
%AMROTATEDRECTD24*
4,1,4,0.1061,0.8839,0.8839,0.1061,-0.1061,-0.8839,-0.8839,-0.1061,0.1061,0.8839,0.0*
%
%ADD24ROTATEDRECTD24*%

G04:AMPARAMS|DCode=25|XSize=1.2mm|YSize=1.8mm|CornerRadius=0mm|HoleSize=0mm|Usage=FLASHONLY|Rotation=45.000|XOffset=0mm|YOffset=0mm|HoleType=Round|Shape=Rectangle|*
%AMROTATEDRECTD25*
4,1,4,0.2121,-1.0607,-1.0607,0.2121,-0.2121,1.0607,1.0607,-0.2121,0.2121,-1.0607,0.0*
%
%ADD25ROTATEDRECTD25*%

%ADD26R,1.1000X1.7000*%
%ADD27R,0.7000X0.9000*%
%ADD28R,3.6000X2.6500*%
G04:AMPARAMS|DCode=29|XSize=1.37mm|YSize=0.59mm|CornerRadius=0.1475mm|HoleSize=0mm|Usage=FLASHONLY|Rotation=180.000|XOffset=0mm|YOffset=0mm|HoleType=Round|Shape=RoundedRectangle|*
%AMROUNDEDRECTD29*
21,1,1.3700,0.2950,0,0,180.0*
21,1,1.0750,0.5900,0,0,180.0*
1,1,0.2950,-0.5375,0.1475*
1,1,0.2950,0.5375,0.1475*
1,1,0.2950,0.5375,-0.1475*
1,1,0.2950,-0.5375,-0.1475*
%
%ADD29ROUNDEDRECTD29*%
%ADD30R,2.4000X3.3000*%
G36*
X570397Y1179165D02*
X558800Y1167568D01*
X547203Y1179165D01*
X558800Y1190761D01*
X570397Y1179165D01*
D02*
G37*
G36*
X588781Y1160780D02*
X577185Y1149183D01*
X565588Y1160780D01*
X577185Y1172377D01*
X588781Y1160780D01*
D02*
G37*
G36*
X552012D02*
X540415Y1149183D01*
X528819Y1160780D01*
X540415Y1172377D01*
X552012Y1160780D01*
D02*
G37*
G36*
X570397Y1142395D02*
X558800Y1130799D01*
X547203Y1142395D01*
X558800Y1153992D01*
X570397Y1142395D01*
D02*
G37*
D11*
X517364Y1166861D02*
D03*
X520899Y1170397D02*
D03*
X524435Y1173932D02*
D03*
X527970Y1177468D02*
D03*
X531506Y1181003D02*
D03*
X535041Y1184539D02*
D03*
X538577Y1188074D02*
D03*
X542112Y1191610D02*
D03*
X545648Y1195145D02*
D03*
X549183Y1198681D02*
D03*
X552719Y1202216D02*
D03*
X600237Y1154699D02*
D03*
X596701Y1151163D02*
D03*
X593165Y1147628D02*
D03*
X589630Y1144092D02*
D03*
X586094Y1140557D02*
D03*
X582559Y1137021D02*
D03*
X579023Y1133486D02*
D03*
X575488Y1129950D02*
D03*
X571952Y1126415D02*
D03*
X568417Y1122879D02*
D03*
X564881Y1119343D02*
D03*
D12*
X552719D02*
D03*
X549183Y1122879D02*
D03*
X545648Y1126415D02*
D03*
X542112Y1129950D02*
D03*
X538577Y1133486D02*
D03*
X535041Y1137021D02*
D03*
X531506Y1140557D02*
D03*
X527970Y1144092D02*
D03*
X524435Y1147628D02*
D03*
X520899Y1151163D02*
D03*
X517364Y1154699D02*
D03*
X564881Y1202216D02*
D03*
X568417Y1198681D02*
D03*
X571952Y1195145D02*
D03*
X575488Y1191610D02*
D03*
X579023Y1188074D02*
D03*
X582559Y1184539D02*
D03*
X586094Y1181003D02*
D03*
X589630Y1177468D02*
D03*
X593165Y1173932D02*
D03*
X596701Y1170397D02*
D03*
X600237Y1166861D02*
D03*
D13*
X518383Y1247363D02*
D03*
X507777Y1236757D02*
D03*
X521747Y1222787D02*
D03*
X532353Y1233393D02*
D03*
X577627Y1243107D02*
D03*
X588233Y1253713D02*
D03*
X654273Y1191483D02*
D03*
X643667Y1180877D02*
D03*
D14*
X351500Y1052000D02*
D03*
Y1044000D02*
D03*
Y996000D02*
D03*
Y988000D02*
D03*
X351860Y1190560D02*
D03*
Y1182560D02*
D03*
Y1134560D02*
D03*
Y1126560D02*
D03*
D15*
X351500Y1037500D02*
D03*
Y1032500D02*
D03*
Y1027500D02*
D03*
Y1022500D02*
D03*
Y1017500D02*
D03*
Y1012500D02*
D03*
Y1007500D02*
D03*
Y1002500D02*
D03*
X351860Y1176060D02*
D03*
Y1171060D02*
D03*
Y1166060D02*
D03*
Y1161060D02*
D03*
Y1156060D02*
D03*
Y1151060D02*
D03*
Y1146060D02*
D03*
Y1141060D02*
D03*
D16*
X775080Y1066800D02*
D03*
X759080D02*
D03*
X425070Y1235710D02*
D03*
X441070D02*
D03*
X394590D02*
D03*
X410590D02*
D03*
X775080Y1240790D02*
D03*
X759080D02*
D03*
D17*
X1038860Y983870D02*
D03*
Y999870D02*
D03*
X678180Y1105790D02*
D03*
Y1121790D02*
D03*
Y1207390D02*
D03*
Y1223390D02*
D03*
X1041400Y1159130D02*
D03*
Y1175130D02*
D03*
X388620Y1101980D02*
D03*
Y1117980D02*
D03*
X483870Y1157350D02*
D03*
Y1141350D02*
D03*
X462280Y1157350D02*
D03*
Y1141350D02*
D03*
X521970Y953390D02*
D03*
Y969390D02*
D03*
X495300Y953390D02*
D03*
Y969390D02*
D03*
X391160Y964310D02*
D03*
Y948310D02*
D03*
D18*
X979170Y1017720D02*
D03*
X991870D02*
D03*
X1004570D02*
D03*
X1017270D02*
D03*
Y966020D02*
D03*
X1004570D02*
D03*
X991870D02*
D03*
X979170D02*
D03*
X981710Y1192980D02*
D03*
X994410D02*
D03*
X1007110D02*
D03*
X1019810D02*
D03*
Y1141280D02*
D03*
X1007110D02*
D03*
X994410D02*
D03*
X981710D02*
D03*
D19*
X951230Y1020960D02*
D03*
Y1005960D02*
D03*
X951230Y964050D02*
D03*
Y979050D02*
D03*
X740410Y964050D02*
D03*
Y979050D02*
D03*
X741680Y1138040D02*
D03*
Y1153040D02*
D03*
X951230Y1194950D02*
D03*
Y1179950D02*
D03*
X951230Y1140580D02*
D03*
Y1155580D02*
D03*
X408940Y1117480D02*
D03*
Y1102480D02*
D03*
X411480Y948810D02*
D03*
Y963810D02*
D03*
X396240Y1187570D02*
D03*
Y1202570D02*
D03*
D20*
X740410Y996150D02*
D03*
Y1023150D02*
D03*
X741680Y1171410D02*
D03*
Y1198410D02*
D03*
X459740Y976160D02*
D03*
Y949160D02*
D03*
D21*
X760730Y1042289D02*
D03*
X773430D02*
D03*
X786130D02*
D03*
X798830D02*
D03*
X811530D02*
D03*
X824230D02*
D03*
X836930D02*
D03*
X849630D02*
D03*
X862330D02*
D03*
Y943991D02*
D03*
X849630D02*
D03*
X836930D02*
D03*
X824230D02*
D03*
X811530D02*
D03*
X798830D02*
D03*
X786130D02*
D03*
X773430D02*
D03*
X760730D02*
D03*
Y1217549D02*
D03*
X773430D02*
D03*
X786130D02*
D03*
X798830D02*
D03*
X811530D02*
D03*
X824230D02*
D03*
X836930D02*
D03*
X849630D02*
D03*
X862330D02*
D03*
Y1119251D02*
D03*
X849630D02*
D03*
X836930D02*
D03*
X824230D02*
D03*
X811530D02*
D03*
X798830D02*
D03*
X786130D02*
D03*
X773430D02*
D03*
X760730D02*
D03*
D22*
X708660Y1089790D02*
D03*
Y1137790D02*
D03*
Y1191390D02*
D03*
Y1239390D02*
D03*
D23*
X506037Y1205807D02*
D03*
X494723Y1194493D02*
D03*
X493337Y1218507D02*
D03*
X482023Y1207193D02*
D03*
X651343Y1139343D02*
D03*
X662657Y1150657D02*
D03*
D24*
X524287Y1112743D02*
D03*
X534893Y1102137D02*
D03*
X600487Y1112743D02*
D03*
X611093Y1102137D02*
D03*
D25*
X610293Y1240557D02*
D03*
X638577Y1212273D02*
D03*
X621607Y1195303D02*
D03*
X593323Y1223587D02*
D03*
D26*
X420840Y1209040D02*
D03*
X447840D02*
D03*
Y1187450D02*
D03*
X420840D02*
D03*
X454500Y1030000D02*
D03*
X481500D02*
D03*
D27*
X392550Y1165860D02*
D03*
X407550D02*
D03*
X392550Y1150620D02*
D03*
X407550D02*
D03*
D28*
X671830Y1038470D02*
D03*
Y957970D02*
D03*
D29*
X585740Y969620D02*
D03*
Y960120D02*
D03*
Y950620D02*
D03*
X562340D02*
D03*
Y960120D02*
D03*
Y969620D02*
D03*
D30*
X512620Y1029970D02*
D03*
X582120D02*
D03*
%TF.MD5,d7a288f6d6a3c2b5d19ca8f124c12d75*%
M02*
