%TF.GenerationSoftware,Altium Limited,Altium Designer,22.1.2 (22)*%
G04 Layer_Color=65535*
%FSLAX44Y44*%
%MOMM*%
%TF.SameCoordinates,D2A5B157-11BA-4D30-A4C3-CA4352B12235*%
%TF.FilePolarity,Positive*%
%TF.FileFunction,Legend,Top*%
%TF.Part,Single*%
G01*
G75*
%TA.AperFunction,NonConductor*%
%ADD38C,0.2540*%
%ADD49C,0.2000*%
%ADD50C,0.1270*%
%ADD51C,0.5000*%
%ADD52C,0.0000*%
%ADD53C,0.0500*%
D38*
X517178Y1121753D02*
X523069Y1127644D01*
Y1130000D01*
X520713Y1132356D01*
X518356D01*
X512466Y1126466D01*
X517178Y1135891D02*
X514822Y1138247D01*
X516000Y1137069D01*
X508931Y1130000D01*
X511287D01*
X495170Y1251723D02*
X492814D01*
X490458Y1249367D01*
Y1247010D01*
X495170Y1242298D01*
X497527D01*
X499883Y1244654D01*
Y1247010D01*
X503417Y1248188D02*
X505774Y1250545D01*
X504595Y1249367D01*
X497527Y1256435D01*
Y1254079D01*
X502239Y1261148D02*
X506952Y1265860D01*
X508130Y1264682D01*
Y1255257D01*
X509308Y1254079D01*
X307382Y1017000D02*
Y1011922D01*
Y1014461D01*
X320078D01*
X322617Y1011922D01*
Y1009382D01*
X320078Y1006843D01*
X322617Y1022078D02*
Y1027157D01*
Y1024617D01*
X307382D01*
X309922Y1022078D01*
X308612Y1155701D02*
Y1150622D01*
Y1153162D01*
X321308D01*
X323848Y1150622D01*
Y1148083D01*
X321308Y1145544D01*
X323848Y1170936D02*
Y1160779D01*
X313691Y1170936D01*
X311152D01*
X308612Y1168397D01*
Y1163318D01*
X311152Y1160779D01*
X899719Y1064178D02*
Y1062512D01*
X903052Y1059180D01*
X906384Y1062512D01*
Y1064178D01*
X903052Y1059180D02*
Y1054182D01*
X909716Y1062512D02*
X911382Y1064178D01*
X914715D01*
X916381Y1062512D01*
Y1060846D01*
X914715Y1059180D01*
X913048D01*
X914715D01*
X916381Y1057514D01*
Y1055848D01*
X914715Y1054182D01*
X911382D01*
X909716Y1055848D01*
X635184Y1248945D02*
X634006Y1247767D01*
Y1243054D01*
X638718D01*
X639896Y1244232D01*
X634006Y1243054D02*
X630471Y1239520D01*
X639896Y1230095D02*
X635184Y1234807D01*
X644609D01*
X645787Y1235986D01*
X645787Y1238342D01*
X643431Y1240698D01*
X641074D01*
X901385Y1243248D02*
Y1241582D01*
X904718Y1238250D01*
X908050Y1241582D01*
Y1243248D01*
X904718Y1238250D02*
Y1233252D01*
X911382D02*
X914715D01*
X913048D01*
Y1243248D01*
X911382Y1241582D01*
X565709Y994328D02*
Y985998D01*
X567375Y984332D01*
X570708D01*
X572374Y985998D01*
Y994328D01*
X582371D02*
X579038Y992662D01*
X575706Y989330D01*
Y985998D01*
X577372Y984332D01*
X580704D01*
X582371Y985998D01*
Y987664D01*
X580704Y989330D01*
X575706D01*
X871302Y983539D02*
X879632D01*
X881298Y985206D01*
Y988538D01*
X879632Y990204D01*
X871302D01*
Y1000201D02*
Y993536D01*
X876300D01*
X874634Y996868D01*
Y998534D01*
X876300Y1000201D01*
X879632D01*
X881298Y998534D01*
Y995202D01*
X879632Y993536D01*
X960202Y982269D02*
X968532D01*
X970198Y983935D01*
Y987268D01*
X968532Y988934D01*
X960202D01*
X970198Y997264D02*
X960202D01*
X965200Y992266D01*
Y998931D01*
X871302Y1160069D02*
X879632D01*
X881298Y1161736D01*
Y1165068D01*
X879632Y1166734D01*
X871302D01*
X872968Y1170066D02*
X871302Y1171732D01*
Y1175064D01*
X872968Y1176731D01*
X874634D01*
X876300Y1175064D01*
Y1173398D01*
Y1175064D01*
X877966Y1176731D01*
X879632D01*
X881298Y1175064D01*
Y1171732D01*
X879632Y1170066D01*
X961472Y1162609D02*
X969802D01*
X971468Y1164276D01*
Y1167608D01*
X969802Y1169274D01*
X961472D01*
X971468Y1179271D02*
Y1172606D01*
X964804Y1179271D01*
X963138D01*
X961472Y1177605D01*
Y1174272D01*
X963138Y1172606D01*
X706994Y1165382D02*
X705328Y1167048D01*
X701995D01*
X700329Y1165382D01*
Y1163716D01*
X701995Y1162050D01*
X705328D01*
X706994Y1160384D01*
Y1158718D01*
X705328Y1157052D01*
X701995D01*
X700329Y1158718D01*
X715324Y1157052D02*
Y1167048D01*
X710326Y1162050D01*
X716991D01*
X1080374Y1053622D02*
X1078708Y1055288D01*
X1075376D01*
X1073709Y1053622D01*
Y1051956D01*
X1075376Y1050290D01*
X1078708D01*
X1080374Y1048624D01*
Y1046958D01*
X1078708Y1045292D01*
X1075376D01*
X1073709Y1046958D01*
X1083706Y1053622D02*
X1085372Y1055288D01*
X1088705D01*
X1090371Y1053622D01*
Y1051956D01*
X1088705Y1050290D01*
X1087038D01*
X1088705D01*
X1090371Y1048624D01*
Y1046958D01*
X1088705Y1045292D01*
X1085372D01*
X1083706Y1046958D01*
X705724Y1265712D02*
X704058Y1267378D01*
X700725D01*
X699059Y1265712D01*
Y1264046D01*
X700725Y1262380D01*
X704058D01*
X705724Y1260714D01*
Y1259048D01*
X704058Y1257382D01*
X700725D01*
X699059Y1259048D01*
X715721Y1257382D02*
X709056D01*
X715721Y1264046D01*
Y1265712D01*
X714054Y1267378D01*
X710722D01*
X709056Y1265712D01*
X1082040Y1232692D02*
X1080374Y1234358D01*
X1077042D01*
X1075376Y1232692D01*
Y1231026D01*
X1077042Y1229360D01*
X1080374D01*
X1082040Y1227694D01*
Y1226028D01*
X1080374Y1224362D01*
X1077042D01*
X1075376Y1226028D01*
X1085372Y1224362D02*
X1088705D01*
X1087038D01*
Y1234358D01*
X1085372Y1232692D01*
X377108Y1097484D02*
X367112D01*
Y1102482D01*
X368778Y1104148D01*
X372110D01*
X373776Y1102482D01*
Y1097484D01*
Y1100816D02*
X377108Y1104148D01*
Y1107481D02*
Y1110813D01*
Y1109147D01*
X367112D01*
X368778Y1107481D01*
X367112Y1122476D02*
X368778Y1119144D01*
X372110Y1115811D01*
X375442D01*
X377108Y1117478D01*
Y1120810D01*
X375442Y1122476D01*
X373776D01*
X372110Y1120810D01*
Y1115811D01*
X378378Y942544D02*
X368382D01*
Y947542D01*
X370048Y949209D01*
X373380D01*
X375046Y947542D01*
Y942544D01*
Y945876D02*
X378378Y949209D01*
Y952541D02*
Y955873D01*
Y954207D01*
X368382D01*
X370048Y952541D01*
X368382Y967536D02*
Y960872D01*
X373380D01*
X371714Y964204D01*
Y965870D01*
X373380Y967536D01*
X376712D01*
X378378Y965870D01*
Y962538D01*
X376712Y960872D01*
X483788Y950164D02*
X473792D01*
Y955162D01*
X475458Y956829D01*
X478790D01*
X480456Y955162D01*
Y950164D01*
Y953496D02*
X483788Y956829D01*
Y960161D02*
Y963493D01*
Y961827D01*
X473792D01*
X475458Y960161D01*
X483788Y973490D02*
X473792D01*
X478790Y968492D01*
Y975156D01*
X544748Y950164D02*
X534752D01*
Y955162D01*
X536418Y956829D01*
X539750D01*
X541416Y955162D01*
Y950164D01*
Y953496D02*
X544748Y956829D01*
Y960161D02*
Y963493D01*
Y961827D01*
X534752D01*
X536418Y960161D01*
Y968492D02*
X534752Y970158D01*
Y973490D01*
X536418Y975156D01*
X538084D01*
X539750Y973490D01*
Y971824D01*
Y973490D01*
X541416Y975156D01*
X543082D01*
X544748Y973490D01*
Y970158D01*
X543082Y968492D01*
X667938Y1101294D02*
X657942D01*
Y1106292D01*
X659608Y1107959D01*
X662940D01*
X664606Y1106292D01*
Y1101294D01*
Y1104626D02*
X667938Y1107959D01*
Y1111291D02*
Y1114623D01*
Y1112957D01*
X657942D01*
X659608Y1111291D01*
X667938Y1126286D02*
Y1119622D01*
X661274Y1126286D01*
X659608D01*
X657942Y1124620D01*
Y1121288D01*
X659608Y1119622D01*
X422240Y1247222D02*
Y1257218D01*
X427239D01*
X428905Y1255552D01*
Y1252220D01*
X427239Y1250554D01*
X422240D01*
X425572D02*
X428905Y1247222D01*
X432237D02*
X435569D01*
X433903D01*
Y1257218D01*
X432237Y1255552D01*
X440568Y1247222D02*
X443900D01*
X442234D01*
Y1257218D01*
X440568Y1255552D01*
X504108Y1136854D02*
X494112D01*
Y1141852D01*
X495778Y1143519D01*
X499110D01*
X500776Y1141852D01*
Y1136854D01*
Y1140186D02*
X504108Y1143519D01*
Y1146851D02*
Y1150183D01*
Y1148517D01*
X494112D01*
X495778Y1146851D01*
Y1155182D02*
X494112Y1156848D01*
Y1160180D01*
X495778Y1161846D01*
X502442D01*
X504108Y1160180D01*
Y1156848D01*
X502442Y1155182D01*
X495778D01*
X683178Y1233729D02*
X673182D01*
Y1238728D01*
X674848Y1240394D01*
X678180D01*
X679846Y1238728D01*
Y1233729D01*
Y1237062D02*
X683178Y1240394D01*
X681512Y1243726D02*
X683178Y1245392D01*
Y1248725D01*
X681512Y1250391D01*
X674848D01*
X673182Y1248725D01*
Y1245392D01*
X674848Y1243726D01*
X676514D01*
X678180Y1245392D01*
Y1250391D01*
X453949Y1122762D02*
Y1132758D01*
X458948D01*
X460614Y1131092D01*
Y1127760D01*
X458948Y1126094D01*
X453949D01*
X457282D02*
X460614Y1122762D01*
X463946Y1131092D02*
X465612Y1132758D01*
X468945D01*
X470611Y1131092D01*
Y1129426D01*
X468945Y1127760D01*
X470611Y1126094D01*
Y1124428D01*
X468945Y1122762D01*
X465612D01*
X463946Y1124428D01*
Y1126094D01*
X465612Y1127760D01*
X463946Y1129426D01*
Y1131092D01*
X465612Y1127760D02*
X468945D01*
X1031799Y964012D02*
Y974008D01*
X1036798D01*
X1038464Y972342D01*
Y969010D01*
X1036798Y967344D01*
X1031799D01*
X1035132D02*
X1038464Y964012D01*
X1041796Y974008D02*
X1048461D01*
Y972342D01*
X1041796Y965678D01*
Y964012D01*
X758749Y1078312D02*
Y1088308D01*
X763748D01*
X765414Y1086642D01*
Y1083310D01*
X763748Y1081644D01*
X758749D01*
X762082D02*
X765414Y1078312D01*
X775411Y1088308D02*
X772078Y1086642D01*
X768746Y1083310D01*
Y1079978D01*
X770412Y1078312D01*
X773745D01*
X775411Y1079978D01*
Y1081644D01*
X773745Y1083310D01*
X768746D01*
X1046398Y1130859D02*
X1036402D01*
Y1135858D01*
X1038068Y1137524D01*
X1041400D01*
X1043066Y1135858D01*
Y1130859D01*
Y1134192D02*
X1046398Y1137524D01*
X1036402Y1147521D02*
Y1140856D01*
X1041400D01*
X1039734Y1144188D01*
Y1145854D01*
X1041400Y1147521D01*
X1044732D01*
X1046398Y1145854D01*
Y1142522D01*
X1044732Y1140856D01*
X755142Y1256284D02*
Y1266281D01*
X760140D01*
X761806Y1264615D01*
Y1261282D01*
X760140Y1259616D01*
X755142D01*
X758474D02*
X761806Y1256284D01*
X770137D02*
Y1266281D01*
X765139Y1261282D01*
X771803D01*
X385998Y1157529D02*
X376002D01*
Y1162528D01*
X377668Y1164194D01*
X381000D01*
X382666Y1162528D01*
Y1157529D01*
Y1160862D02*
X385998Y1164194D01*
X377668Y1167526D02*
X376002Y1169192D01*
Y1172524D01*
X377668Y1174191D01*
X379334D01*
X381000Y1172524D01*
Y1170858D01*
Y1172524D01*
X382666Y1174191D01*
X384332D01*
X385998Y1172524D01*
Y1169192D01*
X384332Y1167526D01*
X425368Y1142289D02*
X415372D01*
Y1147288D01*
X417038Y1148954D01*
X420370D01*
X422036Y1147288D01*
Y1142289D01*
Y1145622D02*
X425368Y1148954D01*
Y1158951D02*
Y1152286D01*
X418704Y1158951D01*
X417038D01*
X415372Y1157284D01*
Y1153952D01*
X417038Y1152286D01*
X638822Y1119753D02*
X631753Y1126822D01*
X635288Y1130356D01*
X637644D01*
X640000Y1128000D01*
Y1125644D01*
X636466Y1122109D01*
X638822Y1124466D02*
X643534D01*
X645891Y1126822D02*
X648247Y1129178D01*
X647069Y1128000D01*
X640000Y1135069D01*
Y1132712D01*
X1134364Y1170686D02*
Y1185921D01*
X1141982D01*
X1144521Y1183382D01*
Y1178304D01*
X1141982Y1175764D01*
X1134364D01*
X1149599Y1170686D02*
X1154677D01*
X1152138D01*
Y1185921D01*
X1149599Y1183382D01*
X666435Y1067988D02*
Y1057992D01*
X673100D01*
X676432D02*
X679764D01*
X678098D01*
Y1067988D01*
X676432Y1066322D01*
X439420Y1173398D02*
X432756D01*
Y1168400D01*
X436088D01*
X432756D01*
Y1163402D01*
X442752D02*
X446085D01*
X444418D01*
Y1173398D01*
X442752Y1171732D01*
X537769Y1067988D02*
Y1057992D01*
X542768D01*
X544434Y1059658D01*
Y1066322D01*
X542768Y1067988D01*
X537769D01*
X552765Y1057992D02*
Y1067988D01*
X547766Y1062990D01*
X554431D01*
X394259Y1257218D02*
Y1247222D01*
X399258D01*
X400924Y1248888D01*
Y1255552D01*
X399258Y1257218D01*
X394259D01*
X404256Y1255552D02*
X405922Y1257218D01*
X409254D01*
X410921Y1255552D01*
Y1253886D01*
X409254Y1252220D01*
X407588D01*
X409254D01*
X410921Y1250554D01*
Y1248888D01*
X409254Y1247222D01*
X405922D01*
X404256Y1248888D01*
X501115Y1186364D02*
X508184Y1179295D01*
X511718Y1182829D01*
Y1185186D01*
X507006Y1189898D01*
X504649D01*
X501115Y1186364D01*
X519965Y1191076D02*
X515252Y1186364D01*
Y1195789D01*
X514074Y1196967D01*
X511718Y1196967D01*
X509362Y1194611D01*
Y1192254D01*
X469273Y1224372D02*
X476342Y1217303D01*
X479876Y1220837D01*
Y1223194D01*
X475164Y1227906D01*
X472808D01*
X469273Y1224372D01*
X483411D02*
X485767Y1226728D01*
X484589Y1225550D01*
X477520Y1232619D01*
Y1230263D01*
X423388Y1103316D02*
X421722Y1101649D01*
Y1098317D01*
X423388Y1096651D01*
X430052D01*
X431718Y1098317D01*
Y1101649D01*
X430052Y1103316D01*
X431718Y1113312D02*
Y1106648D01*
X425054Y1113312D01*
X423388D01*
X421722Y1111646D01*
Y1108314D01*
X423388Y1106648D01*
Y1116645D02*
X421722Y1118311D01*
Y1121643D01*
X423388Y1123309D01*
X430052D01*
X431718Y1121643D01*
Y1118311D01*
X430052Y1116645D01*
X423388D01*
X425928Y950479D02*
X424262Y948812D01*
Y945480D01*
X425928Y943814D01*
X432592D01*
X434258Y945480D01*
Y948812D01*
X432592Y950479D01*
X434258Y953811D02*
Y957143D01*
Y955477D01*
X424262D01*
X425928Y953811D01*
X432592Y962141D02*
X434258Y963808D01*
Y967140D01*
X432592Y968806D01*
X425928D01*
X424262Y967140D01*
Y963808D01*
X425928Y962141D01*
X427594D01*
X429260Y963808D01*
Y968806D01*
X549413Y1246000D02*
Y1248356D01*
X547057Y1250712D01*
X544700D01*
X539988Y1246000D01*
Y1243643D01*
X542344Y1241287D01*
X544700D01*
X545878Y1237753D02*
X548235Y1235396D01*
X547057Y1236575D01*
X554125Y1243643D01*
X551769D01*
X557660Y1237753D02*
X560016D01*
X562372Y1235396D01*
X562372Y1233040D01*
X561194Y1231862D01*
X558838D01*
X558838Y1229506D01*
X557660Y1228328D01*
X555303Y1228328D01*
X552947Y1230684D01*
Y1233040D01*
X554125Y1234218D01*
X556482D01*
X556482Y1236575D01*
X557660Y1237753D01*
X556482Y1234218D02*
X558838Y1231862D01*
X458948Y1198129D02*
X457282Y1196462D01*
Y1193130D01*
X458948Y1191464D01*
X465612D01*
X467278Y1193130D01*
Y1196462D01*
X465612Y1198129D01*
X467278Y1201461D02*
Y1204793D01*
Y1203127D01*
X457282D01*
X458948Y1201461D01*
X457282Y1216456D02*
X458948Y1213124D01*
X462280Y1209791D01*
X465612D01*
X467278Y1211458D01*
Y1214790D01*
X465612Y1216456D01*
X463946D01*
X462280Y1214790D01*
Y1209791D01*
X439898Y956829D02*
X438232Y955162D01*
Y951830D01*
X439898Y950164D01*
X446562D01*
X448228Y951830D01*
Y955162D01*
X446562Y956829D01*
X448228Y960161D02*
Y963493D01*
Y961827D01*
X438232D01*
X439898Y960161D01*
X438232Y975156D02*
Y968492D01*
X443230D01*
X441564Y971824D01*
Y973490D01*
X443230Y975156D01*
X446562D01*
X448228Y973490D01*
Y970158D01*
X446562Y968492D01*
X377668Y1189239D02*
X376002Y1187572D01*
Y1184240D01*
X377668Y1182574D01*
X384332D01*
X385998Y1184240D01*
Y1187572D01*
X384332Y1189239D01*
X385998Y1192571D02*
Y1195903D01*
Y1194237D01*
X376002D01*
X377668Y1192571D01*
X385998Y1205900D02*
X376002D01*
X381000Y1200901D01*
Y1207566D01*
X462169Y1052382D02*
X460502Y1054048D01*
X457170D01*
X455504Y1052382D01*
Y1045718D01*
X457170Y1044052D01*
X460502D01*
X462169Y1045718D01*
X465501Y1044052D02*
X468833D01*
X467167D01*
Y1054048D01*
X465501Y1052382D01*
X473831D02*
X475498Y1054048D01*
X478830D01*
X480496Y1052382D01*
Y1050716D01*
X478830Y1049050D01*
X477164D01*
X478830D01*
X480496Y1047384D01*
Y1045718D01*
X478830Y1044052D01*
X475498D01*
X473831Y1045718D01*
X733308Y1043462D02*
X731642Y1045128D01*
X728310D01*
X726644Y1043462D01*
Y1036798D01*
X728310Y1035132D01*
X731642D01*
X733308Y1036798D01*
X736641Y1035132D02*
X739973D01*
X738307D01*
Y1045128D01*
X736641Y1043462D01*
X751636Y1035132D02*
X744971D01*
X751636Y1041796D01*
Y1043462D01*
X749970Y1045128D01*
X746638D01*
X744971Y1043462D01*
X737078Y938175D02*
X735412Y936508D01*
Y933176D01*
X737078Y931510D01*
X743742D01*
X745408Y933176D01*
Y936508D01*
X743742Y938175D01*
X745408Y941507D02*
Y944839D01*
Y943173D01*
X735412D01*
X737078Y941507D01*
X745408Y949838D02*
Y953170D01*
Y951504D01*
X735412D01*
X737078Y949838D01*
X946668Y1040922D02*
X945002Y1042588D01*
X941670D01*
X940004Y1040922D01*
Y1034258D01*
X941670Y1032592D01*
X945002D01*
X946668Y1034258D01*
X950001Y1032592D02*
X953333D01*
X951667D01*
Y1042588D01*
X950001Y1040922D01*
X958332D02*
X959998Y1042588D01*
X963330D01*
X964996Y1040922D01*
Y1034258D01*
X963330Y1032592D01*
X959998D01*
X958332Y1034258D01*
Y1040922D01*
X618766Y1092108D02*
X616409D01*
X614053Y1089752D01*
Y1087396D01*
X618766Y1082683D01*
X621122D01*
X623478Y1085039D01*
Y1087396D01*
X625834Y1089752D02*
X628191D01*
X630547Y1092108D01*
Y1094464D01*
X625834Y1099177D01*
X623478Y1099177D01*
X621122Y1096821D01*
Y1094464D01*
X622300Y1093286D01*
X624656Y1093286D01*
X628191Y1096821D01*
X949564Y949482D02*
X947898Y951148D01*
X944566D01*
X942899Y949482D01*
Y942818D01*
X944566Y941152D01*
X947898D01*
X949564Y942818D01*
X952896Y949482D02*
X954562Y951148D01*
X957895D01*
X959561Y949482D01*
Y947816D01*
X957895Y946150D01*
X959561Y944484D01*
Y942818D01*
X957895Y941152D01*
X954562D01*
X952896Y942818D01*
Y944484D01*
X954562Y946150D01*
X952896Y947816D01*
Y949482D01*
X954562Y946150D02*
X957895D01*
X658136Y1175402D02*
X655779D01*
X653423Y1173046D01*
Y1170690D01*
X658136Y1165977D01*
X660492D01*
X662848Y1168333D01*
Y1170690D01*
X659314Y1178936D02*
X664026Y1183649D01*
X665204Y1182471D01*
Y1173046D01*
X666383Y1171868D01*
X565426Y1258478D02*
X563069D01*
X560713Y1256122D01*
Y1253766D01*
X565426Y1249053D01*
X567782D01*
X570138Y1251409D01*
Y1253766D01*
X571316Y1266725D02*
X570138Y1263191D01*
Y1258478D01*
X572494Y1256122D01*
X574851D01*
X577207Y1258478D01*
Y1260834D01*
X576029Y1262012D01*
X573672Y1262013D01*
X570138Y1258478D01*
X738744Y1217452D02*
X737078Y1219118D01*
X733745D01*
X732079Y1217452D01*
Y1210788D01*
X733745Y1209122D01*
X737078D01*
X738744Y1210788D01*
X748741Y1219118D02*
X742076D01*
Y1214120D01*
X745408Y1215786D01*
X747075D01*
X748741Y1214120D01*
Y1210788D01*
X747075Y1209122D01*
X743742D01*
X742076Y1210788D01*
X738668Y1116334D02*
X737002Y1114668D01*
Y1111336D01*
X738668Y1109669D01*
X745332D01*
X746998Y1111336D01*
Y1114668D01*
X745332Y1116334D01*
X746998Y1124665D02*
X737002D01*
X742000Y1119666D01*
Y1126331D01*
X519338Y1098274D02*
Y1100631D01*
X516982Y1102987D01*
X514626D01*
X509913Y1098274D01*
Y1095918D01*
X512269Y1093562D01*
X514626D01*
X521694Y1095918D02*
X524051D01*
X526407Y1093562D01*
X526407Y1091206D01*
X525229Y1090027D01*
X522873D01*
X521694Y1091206D01*
X522873Y1090027D01*
X522873Y1087671D01*
X521694Y1086493D01*
X519338D01*
X516982Y1088849D01*
Y1091206D01*
X949564Y1213642D02*
X947898Y1215308D01*
X944566D01*
X942899Y1213642D01*
Y1206978D01*
X944566Y1205312D01*
X947898D01*
X949564Y1206978D01*
X959561Y1205312D02*
X952896D01*
X959561Y1211976D01*
Y1213642D01*
X957895Y1215308D01*
X954562D01*
X952896Y1213642D01*
X951230Y1128552D02*
X949564Y1130218D01*
X946232D01*
X944566Y1128552D01*
Y1121888D01*
X946232Y1120222D01*
X949564D01*
X951230Y1121888D01*
X954562Y1120222D02*
X957895D01*
X956228D01*
Y1130218D01*
X954562Y1128552D01*
D49*
X574437Y1110788D02*
G03*
X574437Y1110788I-1000J0D01*
G01*
X364500Y1052700D02*
G03*
X364500Y1052700I-1000J0D01*
G01*
X364860Y1191260D02*
G03*
X364860Y1191260I-1000J0D01*
G01*
X977220Y950870D02*
G03*
X977220Y950870I-1000J0D01*
G01*
X711660Y1068790D02*
G03*
X711660Y1068790I-2000J0D01*
G01*
X585837Y1215102D02*
G03*
X585837Y1215102I-1000J0D01*
G01*
X711660Y1170390D02*
G03*
X711660Y1170390I-2000J0D01*
G01*
X979760Y1126130D02*
G03*
X979760Y1126130I-1000J0D01*
G01*
X672830Y935220D02*
G03*
X672830Y935220I-1000J0D01*
G01*
X551990Y969620D02*
G03*
X551990Y969620I-1000J0D01*
G01*
X284000Y975300D02*
Y1064700D01*
X284360Y1113860D02*
Y1203260D01*
X767080Y1061300D02*
Y1072300D01*
X1033360Y991870D02*
X1044360D01*
X732910Y1005650D02*
Y1013650D01*
X747910Y1005650D02*
Y1013650D01*
X734180Y1180910D02*
Y1188910D01*
X749180Y1180910D02*
Y1188910D01*
X672680Y1113790D02*
X683680D01*
X496491Y1204039D02*
X504269Y1196261D01*
X483791Y1216739D02*
X491569Y1208961D01*
X653111Y1148889D02*
X660889Y1141111D01*
X672680Y1215390D02*
X683680D01*
X1035900Y1167130D02*
X1046900D01*
X430340Y1216540D02*
X438340D01*
X430340Y1201540D02*
X438340D01*
X398050Y1169360D02*
X402050D01*
X398050Y1162360D02*
X402050D01*
X398050Y1154120D02*
X402050D01*
X398050Y1147120D02*
X402050D01*
X383120Y1109980D02*
X394120D01*
X478370Y1149350D02*
X489370D01*
X456780D02*
X467780D01*
X430340Y1179950D02*
X438340D01*
X430340Y1194950D02*
X438340D01*
X433070Y1230210D02*
Y1241210D01*
X516470Y961390D02*
X527470D01*
X489800D02*
X500800D01*
X467240Y958660D02*
Y966660D01*
X452240Y958660D02*
Y966660D01*
X385660Y956310D02*
X396660D01*
X464000Y1037500D02*
X472000D01*
X464000Y1022500D02*
X472000D01*
X497620Y1050470D02*
X523620D01*
X493120Y1045970D02*
X497620Y1050470D01*
X493120Y1013970D02*
X497620Y1009420D01*
X571120Y1009470D02*
X598120D01*
X571120Y1050470D02*
X598120D01*
Y1009470D02*
Y1050470D01*
X493120Y1013970D02*
Y1045970D01*
X497620Y1009470D02*
X523620D01*
X402590Y1230210D02*
Y1241210D01*
X1158240Y1009650D02*
Y1162050D01*
X1132840Y1009650D02*
Y1162050D01*
Y1009650D02*
X1158240D01*
X1132840Y1162050D02*
X1158240D01*
X767080Y1235290D02*
Y1246290D01*
D50*
X908473Y1048622D02*
G03*
X883478Y1025313I-843J-24152D01*
G01*
Y958427D02*
G03*
X908473Y935118I24152J843D01*
G01*
X908462Y935118D02*
G03*
X930082Y958302I-782J22402D01*
G01*
Y1025438D02*
G03*
X908462Y1048622I-22402J782D01*
G01*
X908473Y1223612D02*
G03*
X883478Y1200303I-843J-24152D01*
G01*
Y1133417D02*
G03*
X908473Y1110108I24152J843D01*
G01*
X908462Y1110108D02*
G03*
X930082Y1133292I-782J22402D01*
G01*
Y1200428D02*
G03*
X908462Y1223612I-22402J782D01*
G01*
X558800Y1111283D02*
X562689Y1115172D01*
X604408Y1156891D02*
X608298Y1160780D01*
X509302D02*
X513192Y1164669D01*
X554911Y1206388D02*
X558800Y1210277D01*
X554911Y1115172D02*
X558800Y1111283D01*
X604408Y1164669D02*
X608298Y1160780D01*
X509302D02*
X513192Y1156891D01*
X558800Y1210277D02*
X562689Y1206388D01*
X883480Y958370D02*
Y1025370D01*
X930080Y958370D02*
Y1025370D01*
X1107440Y941100D02*
Y1040100D01*
X1056640D02*
X1107440D01*
X1056640Y941100D02*
Y1040100D01*
X1023420Y972370D02*
Y1011370D01*
X973020Y972370D02*
Y1011370D01*
X753872Y968375D02*
Y1030605D01*
Y968375D02*
X766572Y955675D01*
X869188D01*
Y1030605D01*
X753872D02*
X869188D01*
X753872Y1143635D02*
Y1205865D01*
Y1143635D02*
X766572Y1130935D01*
X869188D01*
Y1205865D01*
X753872D02*
X869188D01*
X691160Y1083790D02*
Y1143790D01*
X726160Y1083790D02*
Y1143790D01*
X631648Y1198272D02*
X635608Y1202232D01*
X596292Y1233628D02*
X600252Y1237588D01*
X599121Y1212132D02*
X610152Y1201101D01*
X621748Y1234759D02*
X632779Y1223728D01*
X691160Y1185390D02*
Y1245390D01*
X726160Y1185390D02*
Y1245390D01*
X883480Y1133360D02*
Y1200360D01*
X930080Y1133360D02*
Y1200360D01*
X1025960Y1147630D02*
Y1186630D01*
X975560Y1147630D02*
Y1186630D01*
X1107440Y1117630D02*
Y1216630D01*
X1056640D02*
X1107440D01*
X1056640Y1117630D02*
Y1216630D01*
X693830Y1050220D02*
X723830D01*
Y946220D02*
Y1050220D01*
X693830Y946220D02*
X723830D01*
X619830Y1050220D02*
X649830D01*
X619830Y946220D02*
Y1050220D01*
Y946220D02*
X649830D01*
X565540Y944470D02*
X582540D01*
X565540Y975770D02*
X582540D01*
D51*
X1123990Y1027590D02*
G03*
X1123990Y1027590I-2500J0D01*
G01*
Y1204120D02*
G03*
X1123990Y1204120I-2500J0D01*
G01*
D52*
X753110Y955040D02*
G03*
X753110Y955040I-3810J0D01*
G01*
Y1130300D02*
G03*
X753110Y1130300I-3810J0D01*
G01*
D53*
X1056640Y941100D02*
X1107440D01*
X1056640Y1117630D02*
X1107440D01*
%TF.MD5,787b2a59829edaf2c3fcd08114e8b9a4*%
M02*
