G04*
G04 #@! TF.GenerationSoftware,Altium Limited,Altium Designer,22.1.2 (22)*
G04*
G04 Layer_Physical_Order=2*
G04 Layer_Color=16711680*
%FSLAX44Y44*%
%MOMM*%
G71*
G04*
G04 #@! TF.SameCoordinates,D73D9505-6E86-4879-9EB9-392C4F9F1875*
G04*
G04*
G04 #@! TF.FilePolarity,Positive*
G04*
G01*
G75*
%ADD10C,0.2000*%
%ADD11C,0.1270*%
%ADD13C,0.0000*%
%ADD14C,0.0500*%
%ADD15C,0.2540*%
%ADD16C,0.1000*%
%ADD63C,0.6000*%
%ADD66C,0.3500*%
%ADD68O,1.9000X0.9500*%
%ADD69O,1.6000X0.8000*%
%ADD70C,1.5000*%
%ADD71R,1.5000X1.5000*%
%ADD72R,2.0000X2.0000*%
%ADD73C,0.7000*%
G36*
X1172210Y887449D02*
X1171037Y886963D01*
X1167095Y890905D01*
X271011D01*
X270116Y891806D01*
X273050Y1283970D01*
X1172210Y1283970D01*
Y887449D01*
D02*
G37*
%LPC*%
G36*
X344360Y1222350D02*
X336360D01*
X336326Y1222343D01*
X336292Y1222349D01*
X336031Y1222342D01*
X335963Y1222327D01*
X335895Y1222335D01*
X335634Y1222314D01*
X335568Y1222296D01*
X335499Y1222300D01*
X335240Y1222266D01*
X335175Y1222244D01*
X335106Y1222245D01*
X334849Y1222197D01*
X334785Y1222172D01*
X334716Y1222169D01*
X334461Y1222108D01*
X334399Y1222079D01*
X334330Y1222073D01*
X334079Y1221998D01*
X334019Y1221966D01*
X333951Y1221956D01*
X333704Y1221869D01*
X333645Y1221834D01*
X333577Y1221821D01*
X333335Y1221720D01*
X333278Y1221682D01*
X333211Y1221665D01*
X332975Y1221553D01*
X332920Y1221511D01*
X332854Y1221491D01*
X332624Y1221366D01*
X332571Y1221322D01*
X332507Y1221298D01*
X332284Y1221161D01*
X332233Y1221115D01*
X332170Y1221088D01*
X331954Y1220939D01*
X331906Y1220890D01*
X331844Y1220860D01*
X331637Y1220700D01*
X331591Y1220649D01*
X331531Y1220615D01*
X331333Y1220445D01*
X331290Y1220391D01*
X331232Y1220354D01*
X331042Y1220174D01*
X331002Y1220118D01*
X330946Y1220078D01*
X330766Y1219888D01*
X330729Y1219830D01*
X330675Y1219788D01*
X330505Y1219588D01*
X330471Y1219528D01*
X330420Y1219483D01*
X330260Y1219275D01*
X330230Y1219214D01*
X330181Y1219166D01*
X330033Y1218950D01*
X330005Y1218887D01*
X329958Y1218836D01*
X329822Y1218613D01*
X329798Y1218549D01*
X329754Y1218496D01*
X329629Y1218266D01*
X329609Y1218200D01*
X329567Y1218145D01*
X329455Y1217909D01*
X329438Y1217842D01*
X329400Y1217785D01*
X329300Y1217543D01*
X329286Y1217475D01*
X329251Y1217416D01*
X329164Y1217170D01*
X329154Y1217102D01*
X329122Y1217041D01*
X329047Y1216790D01*
X329041Y1216721D01*
X329012Y1216659D01*
X328951Y1216404D01*
X328948Y1216336D01*
X328923Y1216272D01*
X328875Y1216014D01*
X328876Y1215945D01*
X328854Y1215880D01*
X328820Y1215621D01*
X328824Y1215552D01*
X328806Y1215486D01*
X328785Y1215225D01*
X328793Y1215157D01*
X328778Y1215089D01*
X328771Y1214828D01*
X328783Y1214760D01*
X328771Y1214692D01*
X328778Y1214430D01*
X328793Y1214363D01*
X328785Y1214295D01*
X328806Y1214034D01*
X328824Y1213968D01*
X328820Y1213899D01*
X328854Y1213640D01*
X328876Y1213575D01*
X328875Y1213506D01*
X328923Y1213249D01*
X328948Y1213185D01*
X328951Y1213116D01*
X329012Y1212861D01*
X329041Y1212799D01*
X329047Y1212730D01*
X329122Y1212479D01*
X329154Y1212419D01*
X329164Y1212350D01*
X329251Y1212104D01*
X329286Y1212045D01*
X329300Y1211977D01*
X329400Y1211735D01*
X329438Y1211678D01*
X329455Y1211611D01*
X329567Y1211375D01*
X329609Y1211320D01*
X329629Y1211254D01*
X329754Y1211024D01*
X329798Y1210971D01*
X329822Y1210907D01*
X329958Y1210684D01*
X330005Y1210633D01*
X330033Y1210570D01*
X330181Y1210354D01*
X330230Y1210306D01*
X330260Y1210245D01*
X330420Y1210037D01*
X330471Y1209992D01*
X330505Y1209931D01*
X330675Y1209732D01*
X330729Y1209690D01*
X330766Y1209632D01*
X330946Y1209442D01*
X331002Y1209402D01*
X331042Y1209346D01*
X331232Y1209166D01*
X331290Y1209129D01*
X331333Y1209075D01*
X331531Y1208905D01*
X331591Y1208871D01*
X331637Y1208820D01*
X331844Y1208660D01*
X331906Y1208630D01*
X331954Y1208581D01*
X332170Y1208432D01*
X332233Y1208405D01*
X332284Y1208359D01*
X332507Y1208222D01*
X332571Y1208198D01*
X332624Y1208154D01*
X332854Y1208029D01*
X332920Y1208009D01*
X332975Y1207967D01*
X333212Y1207855D01*
X333278Y1207838D01*
X333335Y1207800D01*
X333577Y1207700D01*
X333645Y1207686D01*
X333704Y1207651D01*
X333951Y1207563D01*
X334019Y1207554D01*
X334079Y1207522D01*
X334330Y1207447D01*
X334399Y1207441D01*
X334461Y1207412D01*
X334716Y1207351D01*
X334785Y1207348D01*
X334849Y1207323D01*
X335106Y1207275D01*
X335175Y1207276D01*
X335240Y1207254D01*
X335499Y1207220D01*
X335568Y1207224D01*
X335634Y1207206D01*
X335895Y1207185D01*
X335964Y1207193D01*
X336031Y1207178D01*
X336292Y1207171D01*
X336326Y1207177D01*
X336360Y1207170D01*
X344360D01*
X344394Y1207177D01*
X344428Y1207171D01*
X344689Y1207178D01*
X344757Y1207193D01*
X344825Y1207185D01*
X345086Y1207206D01*
X345152Y1207224D01*
X345221Y1207220D01*
X345480Y1207254D01*
X345545Y1207276D01*
X345614Y1207275D01*
X345872Y1207323D01*
X345935Y1207348D01*
X346004Y1207351D01*
X346259Y1207412D01*
X346321Y1207441D01*
X346390Y1207447D01*
X346641Y1207522D01*
X346702Y1207554D01*
X346770Y1207563D01*
X347016Y1207651D01*
X347075Y1207686D01*
X347143Y1207700D01*
X347385Y1207800D01*
X347442Y1207838D01*
X347508Y1207855D01*
X347745Y1207967D01*
X347800Y1208009D01*
X347866Y1208029D01*
X348096Y1208154D01*
X348149Y1208198D01*
X348213Y1208222D01*
X348436Y1208359D01*
X348487Y1208405D01*
X348550Y1208432D01*
X348766Y1208581D01*
X348814Y1208630D01*
X348876Y1208660D01*
X349083Y1208820D01*
X349128Y1208871D01*
X349188Y1208905D01*
X349388Y1209075D01*
X349430Y1209129D01*
X349488Y1209166D01*
X349678Y1209346D01*
X349718Y1209402D01*
X349774Y1209442D01*
X349954Y1209632D01*
X349991Y1209690D01*
X350045Y1209732D01*
X350215Y1209931D01*
X350249Y1209992D01*
X350300Y1210037D01*
X350460Y1210245D01*
X350490Y1210306D01*
X350539Y1210354D01*
X350688Y1210570D01*
X350715Y1210633D01*
X350761Y1210684D01*
X350898Y1210907D01*
X350922Y1210971D01*
X350966Y1211024D01*
X351091Y1211254D01*
X351111Y1211320D01*
X351152Y1211375D01*
X351265Y1211611D01*
X351282Y1211678D01*
X351320Y1211735D01*
X351421Y1211977D01*
X351434Y1212045D01*
X351469Y1212104D01*
X351557Y1212350D01*
X351566Y1212419D01*
X351598Y1212479D01*
X351673Y1212730D01*
X351679Y1212799D01*
X351708Y1212861D01*
X351769Y1213116D01*
X351772Y1213185D01*
X351797Y1213249D01*
X351845Y1213506D01*
X351844Y1213575D01*
X351866Y1213640D01*
X351900Y1213899D01*
X351896Y1213968D01*
X351914Y1214034D01*
X351935Y1214295D01*
X351927Y1214363D01*
X351942Y1214430D01*
X351949Y1214692D01*
X351937Y1214760D01*
X351949Y1214828D01*
X351942Y1215089D01*
X351927Y1215157D01*
X351935Y1215225D01*
X351914Y1215486D01*
X351896Y1215552D01*
X351900Y1215621D01*
X351866Y1215880D01*
X351844Y1215945D01*
X351845Y1216014D01*
X351797Y1216272D01*
X351772Y1216335D01*
X351769Y1216404D01*
X351708Y1216659D01*
X351679Y1216721D01*
X351673Y1216790D01*
X351598Y1217041D01*
X351566Y1217102D01*
X351557Y1217170D01*
X351469Y1217416D01*
X351434Y1217475D01*
X351421Y1217543D01*
X351320Y1217785D01*
X351282Y1217842D01*
X351265Y1217909D01*
X351152Y1218145D01*
X351111Y1218200D01*
X351091Y1218266D01*
X350966Y1218496D01*
X350922Y1218549D01*
X350898Y1218613D01*
X350761Y1218836D01*
X350715Y1218887D01*
X350688Y1218950D01*
X350539Y1219166D01*
X350490Y1219214D01*
X350460Y1219276D01*
X350300Y1219483D01*
X350249Y1219529D01*
X350215Y1219588D01*
X350045Y1219788D01*
X349991Y1219830D01*
X349954Y1219888D01*
X349774Y1220078D01*
X349718Y1220118D01*
X349678Y1220174D01*
X349488Y1220354D01*
X349430Y1220391D01*
X349388Y1220445D01*
X349188Y1220615D01*
X349128Y1220649D01*
X349083Y1220700D01*
X348876Y1220860D01*
X348814Y1220890D01*
X348766Y1220939D01*
X348550Y1221088D01*
X348487Y1221115D01*
X348436Y1221161D01*
X348213Y1221298D01*
X348149Y1221322D01*
X348096Y1221366D01*
X347866Y1221491D01*
X347800Y1221511D01*
X347745Y1221553D01*
X347509Y1221665D01*
X347442Y1221682D01*
X347385Y1221720D01*
X347143Y1221821D01*
X347076Y1221834D01*
X347016Y1221869D01*
X346770Y1221956D01*
X346702Y1221966D01*
X346641Y1221998D01*
X346390Y1222073D01*
X346321Y1222079D01*
X346259Y1222108D01*
X346004Y1222169D01*
X345936Y1222172D01*
X345872Y1222197D01*
X345614Y1222245D01*
X345545Y1222244D01*
X345480Y1222266D01*
X345221Y1222300D01*
X345152Y1222296D01*
X345086Y1222314D01*
X344825Y1222335D01*
X344757Y1222327D01*
X344689Y1222342D01*
X344428Y1222349D01*
X344394Y1222343D01*
X344360Y1222350D01*
D02*
G37*
G36*
X306360D02*
X294360D01*
X294326Y1222343D01*
X294292Y1222349D01*
X294030Y1222342D01*
X293963Y1222327D01*
X293895Y1222335D01*
X293634Y1222314D01*
X293568Y1222296D01*
X293499Y1222300D01*
X293240Y1222266D01*
X293175Y1222244D01*
X293106Y1222245D01*
X292848Y1222197D01*
X292785Y1222172D01*
X292716Y1222169D01*
X292461Y1222108D01*
X292399Y1222079D01*
X292330Y1222073D01*
X292079Y1221998D01*
X292019Y1221966D01*
X291950Y1221956D01*
X291704Y1221869D01*
X291645Y1221834D01*
X291577Y1221821D01*
X291335Y1221720D01*
X291278Y1221682D01*
X291211Y1221665D01*
X290975Y1221553D01*
X290920Y1221511D01*
X290854Y1221491D01*
X290624Y1221366D01*
X290571Y1221322D01*
X290507Y1221298D01*
X290284Y1221161D01*
X290233Y1221115D01*
X290170Y1221088D01*
X289954Y1220939D01*
X289906Y1220890D01*
X289844Y1220860D01*
X289637Y1220700D01*
X289592Y1220649D01*
X289532Y1220615D01*
X289333Y1220445D01*
X289290Y1220391D01*
X289232Y1220354D01*
X289042Y1220174D01*
X289002Y1220118D01*
X288946Y1220078D01*
X288766Y1219888D01*
X288729Y1219830D01*
X288675Y1219788D01*
X288505Y1219588D01*
X288471Y1219529D01*
X288420Y1219483D01*
X288260Y1219276D01*
X288230Y1219214D01*
X288181Y1219166D01*
X288032Y1218950D01*
X288005Y1218887D01*
X287959Y1218836D01*
X287822Y1218613D01*
X287798Y1218549D01*
X287754Y1218496D01*
X287629Y1218266D01*
X287609Y1218200D01*
X287568Y1218145D01*
X287455Y1217909D01*
X287438Y1217842D01*
X287400Y1217785D01*
X287299Y1217543D01*
X287286Y1217475D01*
X287251Y1217416D01*
X287164Y1217170D01*
X287154Y1217102D01*
X287122Y1217041D01*
X287047Y1216790D01*
X287041Y1216721D01*
X287012Y1216659D01*
X286951Y1216404D01*
X286948Y1216336D01*
X286923Y1216272D01*
X286875Y1216014D01*
X286876Y1215945D01*
X286854Y1215880D01*
X286820Y1215621D01*
X286824Y1215552D01*
X286806Y1215486D01*
X286785Y1215225D01*
X286793Y1215157D01*
X286778Y1215089D01*
X286771Y1214828D01*
X286783Y1214760D01*
X286771Y1214692D01*
X286778Y1214430D01*
X286793Y1214363D01*
X286785Y1214295D01*
X286806Y1214034D01*
X286824Y1213968D01*
X286820Y1213899D01*
X286854Y1213640D01*
X286876Y1213575D01*
X286875Y1213506D01*
X286923Y1213249D01*
X286948Y1213185D01*
X286951Y1213116D01*
X287012Y1212861D01*
X287041Y1212799D01*
X287047Y1212730D01*
X287122Y1212479D01*
X287154Y1212419D01*
X287164Y1212350D01*
X287251Y1212104D01*
X287286Y1212045D01*
X287299Y1211977D01*
X287400Y1211735D01*
X287438Y1211678D01*
X287455Y1211611D01*
X287568Y1211375D01*
X287609Y1211320D01*
X287629Y1211254D01*
X287754Y1211024D01*
X287798Y1210971D01*
X287822Y1210907D01*
X287959Y1210684D01*
X288005Y1210633D01*
X288032Y1210570D01*
X288181Y1210354D01*
X288230Y1210306D01*
X288260Y1210245D01*
X288420Y1210037D01*
X288471Y1209992D01*
X288505Y1209931D01*
X288675Y1209732D01*
X288729Y1209690D01*
X288766Y1209632D01*
X288946Y1209442D01*
X289002Y1209402D01*
X289042Y1209346D01*
X289232Y1209166D01*
X289290Y1209129D01*
X289333Y1209075D01*
X289532Y1208905D01*
X289592Y1208871D01*
X289637Y1208820D01*
X289844Y1208660D01*
X289906Y1208630D01*
X289954Y1208581D01*
X290170Y1208432D01*
X290233Y1208405D01*
X290284Y1208359D01*
X290507Y1208222D01*
X290571Y1208198D01*
X290624Y1208154D01*
X290854Y1208029D01*
X290920Y1208009D01*
X290975Y1207967D01*
X291212Y1207855D01*
X291278Y1207838D01*
X291335Y1207800D01*
X291577Y1207700D01*
X291645Y1207686D01*
X291704Y1207651D01*
X291950Y1207563D01*
X292019Y1207554D01*
X292079Y1207522D01*
X292330Y1207447D01*
X292399Y1207441D01*
X292461Y1207412D01*
X292716Y1207351D01*
X292785Y1207348D01*
X292848Y1207323D01*
X293106Y1207275D01*
X293175Y1207276D01*
X293240Y1207254D01*
X293499Y1207220D01*
X293568Y1207224D01*
X293634Y1207206D01*
X293895Y1207185D01*
X293964Y1207193D01*
X294030Y1207178D01*
X294292Y1207171D01*
X294326Y1207177D01*
X294360Y1207170D01*
X306360D01*
X306394Y1207177D01*
X306428Y1207171D01*
X306689Y1207178D01*
X306756Y1207193D01*
X306825Y1207185D01*
X307086Y1207206D01*
X307152Y1207224D01*
X307221Y1207220D01*
X307480Y1207254D01*
X307545Y1207276D01*
X307614Y1207275D01*
X307871Y1207323D01*
X307935Y1207348D01*
X308004Y1207351D01*
X308259Y1207412D01*
X308321Y1207441D01*
X308390Y1207447D01*
X308641Y1207522D01*
X308701Y1207554D01*
X308770Y1207563D01*
X309016Y1207651D01*
X309075Y1207686D01*
X309143Y1207700D01*
X309385Y1207800D01*
X309442Y1207838D01*
X309508Y1207855D01*
X309745Y1207967D01*
X309800Y1208009D01*
X309866Y1208029D01*
X310096Y1208154D01*
X310149Y1208198D01*
X310213Y1208222D01*
X310436Y1208359D01*
X310487Y1208405D01*
X310550Y1208432D01*
X310766Y1208581D01*
X310814Y1208630D01*
X310875Y1208660D01*
X311083Y1208820D01*
X311129Y1208871D01*
X311189Y1208905D01*
X311388Y1209075D01*
X311430Y1209129D01*
X311488Y1209166D01*
X311678Y1209346D01*
X311718Y1209402D01*
X311774Y1209442D01*
X311954Y1209632D01*
X311991Y1209690D01*
X312045Y1209732D01*
X312215Y1209931D01*
X312249Y1209992D01*
X312300Y1210037D01*
X312460Y1210245D01*
X312490Y1210306D01*
X312539Y1210354D01*
X312688Y1210570D01*
X312715Y1210633D01*
X312761Y1210684D01*
X312898Y1210907D01*
X312922Y1210971D01*
X312966Y1211024D01*
X313091Y1211254D01*
X313111Y1211320D01*
X313153Y1211375D01*
X313265Y1211611D01*
X313282Y1211678D01*
X313320Y1211735D01*
X313421Y1211977D01*
X313434Y1212045D01*
X313469Y1212104D01*
X313556Y1212350D01*
X313566Y1212419D01*
X313598Y1212479D01*
X313673Y1212730D01*
X313679Y1212799D01*
X313708Y1212861D01*
X313769Y1213116D01*
X313772Y1213185D01*
X313797Y1213249D01*
X313845Y1213506D01*
X313844Y1213575D01*
X313866Y1213640D01*
X313900Y1213899D01*
X313896Y1213968D01*
X313914Y1214034D01*
X313935Y1214295D01*
X313927Y1214363D01*
X313942Y1214430D01*
X313949Y1214692D01*
X313937Y1214760D01*
X313949Y1214828D01*
X313942Y1215089D01*
X313927Y1215157D01*
X313935Y1215225D01*
X313914Y1215486D01*
X313896Y1215552D01*
X313900Y1215621D01*
X313866Y1215880D01*
X313844Y1215945D01*
X313845Y1216014D01*
X313797Y1216272D01*
X313772Y1216335D01*
X313769Y1216404D01*
X313708Y1216659D01*
X313679Y1216721D01*
X313673Y1216790D01*
X313598Y1217041D01*
X313566Y1217102D01*
X313556Y1217170D01*
X313469Y1217416D01*
X313434Y1217475D01*
X313421Y1217543D01*
X313320Y1217785D01*
X313282Y1217842D01*
X313265Y1217909D01*
X313153Y1218145D01*
X313111Y1218200D01*
X313091Y1218266D01*
X312966Y1218496D01*
X312922Y1218549D01*
X312898Y1218613D01*
X312761Y1218836D01*
X312715Y1218887D01*
X312688Y1218950D01*
X312539Y1219166D01*
X312490Y1219214D01*
X312460Y1219276D01*
X312300Y1219483D01*
X312249Y1219529D01*
X312215Y1219588D01*
X312045Y1219788D01*
X311991Y1219830D01*
X311954Y1219888D01*
X311774Y1220078D01*
X311718Y1220118D01*
X311678Y1220174D01*
X311488Y1220354D01*
X311430Y1220391D01*
X311388Y1220445D01*
X311189Y1220615D01*
X311129Y1220649D01*
X311083Y1220700D01*
X310875Y1220860D01*
X310814Y1220890D01*
X310766Y1220939D01*
X310550Y1221088D01*
X310487Y1221115D01*
X310436Y1221161D01*
X310213Y1221298D01*
X310149Y1221322D01*
X310096Y1221366D01*
X309866Y1221491D01*
X309800Y1221511D01*
X309745Y1221553D01*
X309509Y1221665D01*
X309442Y1221682D01*
X309385Y1221720D01*
X309143Y1221821D01*
X309076Y1221834D01*
X309016Y1221869D01*
X308770Y1221956D01*
X308701Y1221966D01*
X308641Y1221998D01*
X308390Y1222073D01*
X308321Y1222079D01*
X308259Y1222108D01*
X308004Y1222169D01*
X307936Y1222172D01*
X307871Y1222197D01*
X307614Y1222245D01*
X307545Y1222244D01*
X307480Y1222266D01*
X307221Y1222300D01*
X307152Y1222296D01*
X307086Y1222314D01*
X306825Y1222335D01*
X306757Y1222327D01*
X306689Y1222342D01*
X306428Y1222349D01*
X306394Y1222343D01*
X306360Y1222350D01*
D02*
G37*
G36*
X815340Y1266754D02*
X637540D01*
X635866Y1266421D01*
X634447Y1265473D01*
X611587Y1242613D01*
X610639Y1241194D01*
X610306Y1239520D01*
Y1192738D01*
X609531Y1192220D01*
X607129D01*
X604909Y1191301D01*
X604162Y1190554D01*
X602522D01*
X596194Y1196882D01*
Y1219200D01*
X595861Y1220874D01*
X594913Y1222293D01*
X579673Y1237533D01*
X577133Y1240073D01*
X575714Y1241021D01*
X574040Y1241354D01*
X472798D01*
X472051Y1242101D01*
X469831Y1243020D01*
X467429D01*
X465209Y1242101D01*
X463509Y1240401D01*
X462590Y1238181D01*
Y1235779D01*
X463509Y1233559D01*
X465209Y1231860D01*
X467429Y1230940D01*
X469831D01*
X472051Y1231860D01*
X472798Y1232606D01*
X479351D01*
X479736Y1231336D01*
X479507Y1231183D01*
X466818Y1218494D01*
X378818D01*
X378071Y1219240D01*
X375851Y1220160D01*
X373449D01*
X371229Y1219240D01*
X369529Y1217541D01*
X368610Y1215321D01*
Y1212919D01*
X369529Y1210699D01*
X371229Y1208999D01*
X373449Y1208080D01*
X375851D01*
X378071Y1208999D01*
X378818Y1209746D01*
X386786D01*
Y1133198D01*
X386040Y1132451D01*
X385120Y1130231D01*
Y1127829D01*
X386040Y1125609D01*
X386786Y1124862D01*
Y1062328D01*
X385880Y1061421D01*
X384960Y1059201D01*
Y1056799D01*
X385880Y1054579D01*
X386786Y1053672D01*
Y983338D01*
X386040Y982591D01*
X385120Y980371D01*
Y977969D01*
X386040Y975749D01*
X387739Y974050D01*
X389959Y973130D01*
X392361D01*
X394581Y974050D01*
X396281Y975749D01*
X397200Y977969D01*
Y980371D01*
X396281Y982591D01*
X395534Y983338D01*
Y1053992D01*
X396120Y1054579D01*
X397040Y1056799D01*
Y1059201D01*
X396120Y1061421D01*
X395534Y1062008D01*
Y1124862D01*
X396281Y1125609D01*
X397200Y1127829D01*
Y1130231D01*
X396281Y1132451D01*
X395534Y1133198D01*
Y1209746D01*
X468630D01*
X470304Y1210079D01*
X471723Y1211027D01*
X484412Y1223716D01*
X529048D01*
X537520Y1215244D01*
Y1214189D01*
X537788Y1213542D01*
X536828Y1212540D01*
X534739D01*
X532519Y1211620D01*
X530820Y1209921D01*
X529900Y1207701D01*
Y1205612D01*
X528898Y1204652D01*
X528251Y1204920D01*
X525849D01*
X523629Y1204000D01*
X521930Y1202301D01*
X521010Y1200081D01*
Y1197679D01*
X521930Y1195459D01*
X523629Y1193760D01*
X525644Y1192925D01*
X525707Y1192830D01*
X530620Y1187917D01*
X530134Y1186744D01*
X514708D01*
X513961Y1187490D01*
X511741Y1188410D01*
X509339D01*
X507119Y1187490D01*
X505420Y1185791D01*
X504500Y1183571D01*
Y1182422D01*
X503230Y1181896D01*
X494463Y1190663D01*
X493044Y1191611D01*
X491370Y1191944D01*
X412648D01*
X411901Y1192691D01*
X409682Y1193610D01*
X407279D01*
X405059Y1192691D01*
X403360Y1190991D01*
X402440Y1188771D01*
Y1186369D01*
X403360Y1184149D01*
X404336Y1183172D01*
Y1139318D01*
X403820Y1138801D01*
X402900Y1136581D01*
Y1134179D01*
X403820Y1131959D01*
X405519Y1130259D01*
X407739Y1129340D01*
X410141D01*
X412361Y1130259D01*
X414061Y1131959D01*
X414980Y1134179D01*
Y1136581D01*
X414061Y1138801D01*
X413084Y1139778D01*
Y1183196D01*
X489558D01*
X502367Y1170387D01*
X503786Y1169439D01*
X505460Y1169106D01*
X553178D01*
X593400Y1128884D01*
Y1127829D01*
X594319Y1125609D01*
X595066Y1124862D01*
Y1099092D01*
X590387Y1094413D01*
X589602Y1094472D01*
X588820Y1095717D01*
X588970Y1096079D01*
Y1097134D01*
X591103Y1099267D01*
X592051Y1100686D01*
X592384Y1102360D01*
Y1117600D01*
X592051Y1119274D01*
X591103Y1120693D01*
X558083Y1153713D01*
X556664Y1154661D01*
X554990Y1154994D01*
X439778D01*
X439031Y1155741D01*
X436811Y1156660D01*
X434409D01*
X432364Y1155813D01*
X431094Y1156305D01*
Y1161692D01*
X431841Y1162439D01*
X432760Y1164659D01*
Y1167061D01*
X431841Y1169281D01*
X430141Y1170981D01*
X427921Y1171900D01*
X425519D01*
X423299Y1170981D01*
X421600Y1169281D01*
X420680Y1167061D01*
Y1164659D01*
X421600Y1162439D01*
X422346Y1161692D01*
Y1146810D01*
X422679Y1145136D01*
X423627Y1143717D01*
X427437Y1139907D01*
X428856Y1138959D01*
X430530Y1138626D01*
X550638D01*
X575163Y1114102D01*
Y1111873D01*
X574350Y1109911D01*
Y1107509D01*
X575270Y1105289D01*
X576969Y1103589D01*
X578335Y1103023D01*
X578633Y1101525D01*
X577809Y1100701D01*
X576890Y1098481D01*
Y1096079D01*
X577299Y1095090D01*
X576594Y1094034D01*
X574738D01*
X574081Y1095621D01*
X572381Y1097320D01*
X570161Y1098240D01*
X567759D01*
X565539Y1097320D01*
X563839Y1095621D01*
X562920Y1093401D01*
Y1090999D01*
X563839Y1088779D01*
X565539Y1087079D01*
X567145Y1086414D01*
X566893Y1085144D01*
X550452D01*
X505150Y1130446D01*
Y1131501D01*
X504230Y1133721D01*
X502531Y1135421D01*
X500311Y1136340D01*
X497909D01*
X495689Y1135421D01*
X493989Y1133721D01*
X493070Y1131501D01*
Y1129099D01*
X493989Y1126879D01*
X495689Y1125180D01*
X497909Y1124260D01*
X498964D01*
X545547Y1077677D01*
X546966Y1076729D01*
X548640Y1076396D01*
X593090D01*
X594764Y1076729D01*
X596183Y1077677D01*
X624758Y1106253D01*
X625707Y1107672D01*
X626040Y1109345D01*
Y1113091D01*
X625707Y1114765D01*
X624758Y1116184D01*
X623810Y1117133D01*
X624296Y1118306D01*
X781756D01*
Y1031240D01*
X790504D01*
Y1121192D01*
X790171Y1122866D01*
X789223Y1124285D01*
X787735Y1125773D01*
X786560Y1126558D01*
X786155Y1127949D01*
X788476Y1130270D01*
X754336D01*
Y1133404D01*
X677699D01*
X677213Y1134577D01*
X678326Y1135690D01*
X679381D01*
X681601Y1136609D01*
X683300Y1138309D01*
X684220Y1140529D01*
Y1142931D01*
X683300Y1145151D01*
X681601Y1146851D01*
X679381Y1147770D01*
X676979D01*
X674759Y1146851D01*
X673059Y1145151D01*
X672140Y1142931D01*
Y1141876D01*
X670018Y1139754D01*
X666042D01*
X665364Y1141024D01*
X665711Y1141544D01*
X666044Y1143218D01*
Y1203418D01*
X672372Y1209746D01*
X704492D01*
X705239Y1208999D01*
X707459Y1208080D01*
X709861D01*
X712081Y1208999D01*
X713781Y1210699D01*
X714700Y1212919D01*
Y1215321D01*
X713781Y1217541D01*
X712081Y1219240D01*
X709861Y1220160D01*
X707459D01*
X705239Y1219240D01*
X704492Y1218494D01*
X670560D01*
X668886Y1218161D01*
X667467Y1217213D01*
X658577Y1208323D01*
X657629Y1206904D01*
X657296Y1205230D01*
Y1146104D01*
X645765D01*
X645273Y1147374D01*
X646120Y1149419D01*
Y1151821D01*
X645201Y1154041D01*
X643501Y1155741D01*
X641281Y1156660D01*
X639192D01*
X638232Y1157662D01*
X638500Y1158309D01*
Y1160711D01*
X637580Y1162931D01*
X635881Y1164631D01*
X633661Y1165550D01*
X631572D01*
X630612Y1166552D01*
X630880Y1167199D01*
Y1168254D01*
X631743Y1169117D01*
X632691Y1170536D01*
X633024Y1172210D01*
Y1218658D01*
X650782Y1236416D01*
X794456D01*
Y1206500D01*
X803204D01*
Y1236622D01*
X803951Y1237369D01*
X804493Y1238678D01*
X805867D01*
X806410Y1237369D01*
X807156Y1236622D01*
Y1206500D01*
X815904D01*
Y1236622D01*
X816650Y1237369D01*
X817193Y1238678D01*
X818567D01*
X819109Y1237369D01*
X819856Y1236622D01*
Y1206500D01*
X828604D01*
Y1236622D01*
X829351Y1237369D01*
X830270Y1239589D01*
Y1241991D01*
X829351Y1244211D01*
X828604Y1244958D01*
Y1253490D01*
X828271Y1255164D01*
X827323Y1256583D01*
X818433Y1265473D01*
X817014Y1266421D01*
X815340Y1266754D01*
D02*
G37*
G36*
X908102Y1201300D02*
X905458D01*
X902905Y1200616D01*
X900615Y1199294D01*
X898746Y1197425D01*
X898445Y1196904D01*
X868680D01*
Y1188156D01*
X897218D01*
X897424Y1187385D01*
X898746Y1185095D01*
X900615Y1183226D01*
X902905Y1181904D01*
X905458Y1181220D01*
X908102D01*
X910655Y1181904D01*
X912945Y1183226D01*
X914814Y1185095D01*
X916136Y1187385D01*
X916820Y1189938D01*
Y1192582D01*
X916136Y1195135D01*
X914814Y1197425D01*
X912945Y1199294D01*
X910655Y1200616D01*
X908102Y1201300D01*
D02*
G37*
G36*
X374581Y1182060D02*
X372179D01*
X369959Y1181141D01*
X368260Y1179441D01*
X367340Y1177221D01*
Y1174819D01*
X368260Y1172599D01*
X369006Y1171852D01*
Y1162408D01*
X368260Y1161661D01*
X367340Y1159441D01*
Y1157039D01*
X368260Y1154819D01*
X369959Y1153120D01*
X372179Y1152200D01*
X374581D01*
X376801Y1153120D01*
X378501Y1154819D01*
X379420Y1157039D01*
Y1159441D01*
X378501Y1161661D01*
X377754Y1162408D01*
Y1171852D01*
X378501Y1172599D01*
X379420Y1174819D01*
Y1177221D01*
X378501Y1179441D01*
X376801Y1181141D01*
X374581Y1182060D01*
D02*
G37*
G36*
X1042601Y1217620D02*
X1040199D01*
X1037979Y1216701D01*
X1036280Y1215001D01*
X1035360Y1212781D01*
Y1210379D01*
X1036280Y1208159D01*
X1037979Y1206460D01*
X1040199Y1205540D01*
X1042601D01*
X1044821Y1206460D01*
X1045568Y1207206D01*
X1075148D01*
X1077666Y1204688D01*
Y1202570D01*
X1072000D01*
Y1182490D01*
X1092080D01*
Y1188156D01*
X1131658D01*
X1141166Y1178648D01*
Y1161890D01*
X1133000D01*
Y1137760D01*
X1133000Y1136272D01*
X1132102Y1135374D01*
X1114812D01*
X1105374Y1144812D01*
Y1165950D01*
X1105041Y1167624D01*
X1104093Y1169043D01*
X1102043Y1171093D01*
X1100624Y1172041D01*
X1098950Y1172374D01*
X1050742D01*
X1045774Y1177342D01*
Y1188362D01*
X1046520Y1189109D01*
X1047440Y1191329D01*
Y1193731D01*
X1046520Y1195951D01*
X1044821Y1197651D01*
X1042601Y1198570D01*
X1040199D01*
X1037979Y1197651D01*
X1036280Y1195951D01*
X1035360Y1193731D01*
Y1191329D01*
X1036280Y1189109D01*
X1037026Y1188362D01*
Y1175530D01*
X1037359Y1173856D01*
X1038307Y1172437D01*
X1045837Y1164907D01*
X1047256Y1163959D01*
X1048068Y1163797D01*
X1048220Y1163653D01*
X1048757Y1162395D01*
X1048060Y1160711D01*
Y1158309D01*
X1048979Y1156089D01*
X1050679Y1154389D01*
X1052899Y1153470D01*
X1055301D01*
X1057521Y1154389D01*
X1058268Y1155136D01*
X1076678D01*
X1077666Y1154148D01*
Y1138098D01*
X1075875Y1137064D01*
X1074006Y1135195D01*
X1072684Y1132905D01*
X1072000Y1130352D01*
Y1127708D01*
X1072684Y1125155D01*
X1074006Y1122865D01*
X1075875Y1120996D01*
X1078165Y1119674D01*
X1080718Y1118990D01*
X1083362D01*
X1085915Y1119674D01*
X1088205Y1120996D01*
X1090074Y1122865D01*
X1091396Y1125155D01*
X1092080Y1127708D01*
Y1130352D01*
X1091396Y1132905D01*
X1090074Y1135195D01*
X1088205Y1137064D01*
X1086414Y1138098D01*
Y1155960D01*
X1086081Y1157634D01*
X1085133Y1159053D01*
X1081830Y1162356D01*
X1082096Y1163325D01*
X1082310Y1163626D01*
X1096626D01*
Y1143000D01*
X1096959Y1141326D01*
X1097907Y1139907D01*
X1109907Y1127907D01*
X1111326Y1126959D01*
X1113000Y1126626D01*
X1133000D01*
Y1112360D01*
X1133000Y1111410D01*
X1133000Y1110140D01*
Y1101654D01*
X1050290D01*
X1048616Y1101321D01*
X1047197Y1100373D01*
X1038307Y1091483D01*
X1037359Y1090064D01*
X1037026Y1088390D01*
Y1044504D01*
X1027430D01*
X1025756Y1044171D01*
X1024337Y1043223D01*
X1021797Y1040683D01*
X1020849Y1039264D01*
X1020516Y1037590D01*
Y1008380D01*
X1020849Y1006706D01*
X1021797Y1005287D01*
X1029417Y997667D01*
X1030836Y996719D01*
X1032510Y996386D01*
X1079282D01*
X1080956Y996719D01*
X1082375Y997667D01*
X1083863Y999155D01*
X1084811Y1000574D01*
X1085144Y1002248D01*
Y1005960D01*
X1092080D01*
Y1026040D01*
X1072000D01*
Y1005960D01*
X1071072Y1005134D01*
X1034322D01*
X1029264Y1010192D01*
Y1035756D01*
X1037232D01*
X1037979Y1035010D01*
X1040199Y1034090D01*
X1042601D01*
X1044821Y1035010D01*
X1046520Y1036709D01*
X1047440Y1038929D01*
Y1041331D01*
X1046520Y1043551D01*
X1045774Y1044298D01*
Y1086578D01*
X1052102Y1092906D01*
X1133000D01*
Y1086960D01*
X1133000Y1086010D01*
X1133000Y1084740D01*
Y1076254D01*
X1066800D01*
X1065126Y1075921D01*
X1063707Y1074973D01*
X1052277Y1063543D01*
X1051329Y1062124D01*
X1050996Y1060450D01*
Y1022350D01*
X1051117Y1021743D01*
X1049748Y1020374D01*
X1045568D01*
X1044821Y1021121D01*
X1042601Y1022040D01*
X1040199D01*
X1037979Y1021121D01*
X1036280Y1019421D01*
X1035360Y1017201D01*
Y1014799D01*
X1036280Y1012579D01*
X1037979Y1010880D01*
X1040199Y1009960D01*
X1042601D01*
X1044821Y1010880D01*
X1045568Y1011626D01*
X1051560D01*
X1053234Y1011959D01*
X1054653Y1012907D01*
X1058681Y1016935D01*
X1059629Y1018354D01*
X1059962Y1020028D01*
Y1022132D01*
X1059744Y1023228D01*
Y1058638D01*
X1068612Y1067506D01*
X1133000D01*
Y1061560D01*
X1133000Y1060610D01*
X1133000Y1059340D01*
Y1052129D01*
X1118870D01*
X1118870Y1052129D01*
X1116708Y1051699D01*
X1114876Y1050474D01*
X1114876Y1050474D01*
X1099636Y1035234D01*
X1098411Y1033402D01*
X1097981Y1031240D01*
X1097981Y1031240D01*
Y951030D01*
X1091130Y944178D01*
X1089713D01*
X1089187Y945449D01*
X1090074Y946335D01*
X1091396Y948625D01*
X1092080Y951178D01*
Y953822D01*
X1091396Y956375D01*
X1090074Y958665D01*
X1088205Y960534D01*
X1086414Y961568D01*
Y977900D01*
X1086081Y979574D01*
X1085133Y980993D01*
X1078783Y987343D01*
X1077364Y988291D01*
X1075690Y988624D01*
X1055728D01*
X1054981Y989370D01*
X1052761Y990290D01*
X1050359D01*
X1048139Y989370D01*
X1046440Y987671D01*
X1045520Y985451D01*
Y983049D01*
X1046440Y980829D01*
X1048139Y979129D01*
X1050359Y978210D01*
X1052761D01*
X1054981Y979129D01*
X1055728Y979876D01*
X1073878D01*
X1077666Y976088D01*
Y961568D01*
X1075875Y960534D01*
X1074006Y958665D01*
X1072684Y956375D01*
X1072000Y953822D01*
Y951178D01*
X1072684Y948625D01*
X1074006Y946335D01*
X1074893Y945449D01*
X1074367Y944178D01*
X1010260D01*
X1009765Y945449D01*
X1010610Y947489D01*
Y949891D01*
X1009690Y952111D01*
X1008944Y952858D01*
Y1041400D01*
Y1118172D01*
X1010531Y1118829D01*
X1012231Y1120529D01*
X1013150Y1122749D01*
Y1125151D01*
X1012231Y1127371D01*
X1010531Y1129071D01*
X1008311Y1129990D01*
X1005909D01*
X1003689Y1129071D01*
X1001990Y1127371D01*
X1001070Y1125151D01*
Y1122749D01*
X1001086Y1122710D01*
X1000529Y1121877D01*
X1000196Y1120203D01*
Y1045774D01*
X840740D01*
X839066Y1045441D01*
X837647Y1044493D01*
X824394Y1031240D01*
X836766D01*
X842552Y1037026D01*
X854922D01*
X854934Y1037008D01*
X855307Y1035756D01*
X854526Y1035234D01*
X854526Y1035234D01*
X850532Y1031240D01*
X868680D01*
Y1025592D01*
X900392D01*
X900721Y1024365D01*
X900615Y1024304D01*
X898746Y1022435D01*
X897556Y1020374D01*
X876300D01*
X874626Y1020041D01*
X873207Y1019093D01*
X868680Y1014566D01*
Y1002194D01*
X878112Y1011626D01*
X897868D01*
X898746Y1010105D01*
X900615Y1008236D01*
X902905Y1006914D01*
X905458Y1006230D01*
X908102D01*
X910655Y1006914D01*
X912945Y1008236D01*
X914814Y1010105D01*
X916136Y1012395D01*
X916820Y1014948D01*
Y1017592D01*
X916136Y1020145D01*
X914814Y1022435D01*
X912945Y1024304D01*
X912840Y1024365D01*
X913168Y1025592D01*
X946350D01*
X972252Y999690D01*
Y949960D01*
X972251Y949960D01*
X972681Y947798D01*
X973906Y945966D01*
X985554Y934318D01*
X986002Y934018D01*
X985617Y932748D01*
X934720D01*
X932558Y932319D01*
X930726Y931094D01*
X930726Y931094D01*
X914600Y914968D01*
X834190D01*
X827338Y921820D01*
Y955010D01*
X816041D01*
Y919480D01*
X816041Y919480D01*
X816471Y917318D01*
X817696Y915486D01*
X827856Y905326D01*
X827856Y905326D01*
X829688Y904101D01*
X831850Y903671D01*
X916940D01*
X916940Y903671D01*
X919102Y904101D01*
X920934Y905326D01*
X937060Y921451D01*
X1099820D01*
X1099820Y921451D01*
X1101982Y921881D01*
X1103814Y923106D01*
X1120324Y939616D01*
X1120324Y939616D01*
X1121549Y941448D01*
X1121979Y943610D01*
X1121979Y943610D01*
Y1013660D01*
X1123750Y1015432D01*
X1133000D01*
Y1009810D01*
X1158080D01*
Y1034890D01*
X1158080D01*
Y1035210D01*
X1158080D01*
Y1059340D01*
X1158080Y1060290D01*
X1158080Y1061560D01*
Y1084740D01*
X1158080Y1085690D01*
X1158080Y1086960D01*
Y1110140D01*
X1158080Y1111090D01*
X1158080Y1112360D01*
Y1135540D01*
X1158080Y1136490D01*
X1158080Y1137760D01*
Y1161890D01*
X1149914D01*
Y1180460D01*
X1149581Y1182134D01*
X1148633Y1183553D01*
X1136563Y1195623D01*
X1135144Y1196571D01*
X1133470Y1196904D01*
X1092080D01*
Y1202570D01*
X1086414D01*
Y1206500D01*
X1086081Y1208174D01*
X1085133Y1209593D01*
X1080053Y1214673D01*
X1078634Y1215621D01*
X1076960Y1215954D01*
X1045568D01*
X1044821Y1216701D01*
X1042601Y1217620D01*
D02*
G37*
G36*
X344360Y1109950D02*
X336360D01*
X336326Y1109943D01*
X336292Y1109949D01*
X336031Y1109942D01*
X335964Y1109927D01*
X335895Y1109935D01*
X335634Y1109914D01*
X335568Y1109896D01*
X335499Y1109900D01*
X335240Y1109866D01*
X335175Y1109844D01*
X335106Y1109845D01*
X334849Y1109797D01*
X334785Y1109772D01*
X334716Y1109769D01*
X334461Y1109708D01*
X334399Y1109679D01*
X334330Y1109673D01*
X334079Y1109598D01*
X334019Y1109566D01*
X333951Y1109557D01*
X333704Y1109469D01*
X333645Y1109434D01*
X333577Y1109420D01*
X333335Y1109320D01*
X333278Y1109282D01*
X333212Y1109265D01*
X332975Y1109153D01*
X332920Y1109111D01*
X332854Y1109091D01*
X332624Y1108966D01*
X332571Y1108922D01*
X332507Y1108898D01*
X332284Y1108762D01*
X332233Y1108715D01*
X332170Y1108688D01*
X331954Y1108539D01*
X331906Y1108490D01*
X331844Y1108460D01*
X331637Y1108300D01*
X331591Y1108249D01*
X331531Y1108215D01*
X331333Y1108045D01*
X331290Y1107991D01*
X331232Y1107954D01*
X331042Y1107774D01*
X331002Y1107718D01*
X330946Y1107678D01*
X330766Y1107488D01*
X330729Y1107430D01*
X330675Y1107388D01*
X330505Y1107189D01*
X330471Y1107128D01*
X330420Y1107083D01*
X330260Y1106875D01*
X330230Y1106814D01*
X330181Y1106766D01*
X330033Y1106550D01*
X330005Y1106487D01*
X329958Y1106436D01*
X329822Y1106213D01*
X329798Y1106149D01*
X329754Y1106096D01*
X329629Y1105866D01*
X329609Y1105800D01*
X329567Y1105745D01*
X329455Y1105509D01*
X329438Y1105442D01*
X329400Y1105385D01*
X329300Y1105143D01*
X329286Y1105075D01*
X329251Y1105016D01*
X329164Y1104770D01*
X329154Y1104702D01*
X329122Y1104641D01*
X329047Y1104390D01*
X329041Y1104321D01*
X329012Y1104259D01*
X328951Y1104004D01*
X328948Y1103935D01*
X328923Y1103872D01*
X328875Y1103614D01*
X328876Y1103545D01*
X328854Y1103480D01*
X328820Y1103221D01*
X328824Y1103152D01*
X328806Y1103086D01*
X328785Y1102825D01*
X328793Y1102757D01*
X328778Y1102690D01*
X328771Y1102428D01*
X328783Y1102360D01*
X328771Y1102292D01*
X328778Y1102030D01*
X328793Y1101963D01*
X328785Y1101895D01*
X328806Y1101634D01*
X328824Y1101568D01*
X328820Y1101499D01*
X328854Y1101240D01*
X328876Y1101175D01*
X328875Y1101106D01*
X328923Y1100848D01*
X328948Y1100785D01*
X328951Y1100716D01*
X329012Y1100461D01*
X329041Y1100399D01*
X329047Y1100330D01*
X329122Y1100079D01*
X329154Y1100018D01*
X329164Y1099950D01*
X329251Y1099704D01*
X329286Y1099645D01*
X329300Y1099577D01*
X329400Y1099335D01*
X329438Y1099278D01*
X329455Y1099211D01*
X329567Y1098975D01*
X329609Y1098920D01*
X329629Y1098854D01*
X329754Y1098624D01*
X329798Y1098571D01*
X329822Y1098507D01*
X329958Y1098284D01*
X330005Y1098233D01*
X330033Y1098170D01*
X330181Y1097954D01*
X330230Y1097906D01*
X330260Y1097845D01*
X330420Y1097637D01*
X330471Y1097592D01*
X330505Y1097532D01*
X330675Y1097333D01*
X330729Y1097290D01*
X330766Y1097232D01*
X330946Y1097042D01*
X331002Y1097002D01*
X331042Y1096946D01*
X331232Y1096766D01*
X331290Y1096729D01*
X331333Y1096675D01*
X331531Y1096505D01*
X331591Y1096471D01*
X331637Y1096420D01*
X331844Y1096260D01*
X331906Y1096230D01*
X331954Y1096181D01*
X332170Y1096032D01*
X332233Y1096005D01*
X332284Y1095958D01*
X332507Y1095822D01*
X332571Y1095798D01*
X332624Y1095754D01*
X332854Y1095629D01*
X332920Y1095609D01*
X332975Y1095567D01*
X333211Y1095455D01*
X333278Y1095438D01*
X333335Y1095400D01*
X333577Y1095300D01*
X333645Y1095286D01*
X333704Y1095251D01*
X333951Y1095163D01*
X334019Y1095154D01*
X334079Y1095122D01*
X334330Y1095047D01*
X334399Y1095041D01*
X334461Y1095012D01*
X334716Y1094951D01*
X334785Y1094948D01*
X334849Y1094923D01*
X335106Y1094875D01*
X335175Y1094876D01*
X335240Y1094854D01*
X335499Y1094820D01*
X335568Y1094824D01*
X335634Y1094806D01*
X335895Y1094785D01*
X335963Y1094793D01*
X336031Y1094778D01*
X336292Y1094771D01*
X336326Y1094777D01*
X336360Y1094770D01*
X344360D01*
X344394Y1094777D01*
X344428Y1094771D01*
X344689Y1094778D01*
X344757Y1094793D01*
X344825Y1094785D01*
X345086Y1094806D01*
X345152Y1094824D01*
X345221Y1094820D01*
X345480Y1094854D01*
X345545Y1094876D01*
X345614Y1094875D01*
X345872Y1094923D01*
X345935Y1094948D01*
X346004Y1094951D01*
X346259Y1095012D01*
X346321Y1095041D01*
X346390Y1095047D01*
X346641Y1095122D01*
X346702Y1095154D01*
X346770Y1095163D01*
X347016Y1095251D01*
X347075Y1095286D01*
X347143Y1095300D01*
X347385Y1095400D01*
X347442Y1095438D01*
X347509Y1095455D01*
X347745Y1095567D01*
X347800Y1095609D01*
X347866Y1095629D01*
X348096Y1095754D01*
X348149Y1095798D01*
X348213Y1095822D01*
X348436Y1095958D01*
X348487Y1096005D01*
X348550Y1096032D01*
X348766Y1096181D01*
X348814Y1096230D01*
X348876Y1096260D01*
X349083Y1096420D01*
X349128Y1096471D01*
X349188Y1096505D01*
X349388Y1096675D01*
X349430Y1096729D01*
X349488Y1096766D01*
X349678Y1096946D01*
X349718Y1097002D01*
X349774Y1097042D01*
X349954Y1097232D01*
X349991Y1097290D01*
X350045Y1097333D01*
X350215Y1097532D01*
X350249Y1097591D01*
X350300Y1097637D01*
X350460Y1097844D01*
X350490Y1097906D01*
X350539Y1097954D01*
X350688Y1098170D01*
X350715Y1098233D01*
X350761Y1098284D01*
X350898Y1098507D01*
X350922Y1098571D01*
X350966Y1098624D01*
X351091Y1098854D01*
X351111Y1098920D01*
X351152Y1098975D01*
X351265Y1099211D01*
X351282Y1099278D01*
X351320Y1099335D01*
X351421Y1099577D01*
X351434Y1099644D01*
X351469Y1099704D01*
X351557Y1099950D01*
X351566Y1100018D01*
X351598Y1100079D01*
X351673Y1100330D01*
X351679Y1100399D01*
X351708Y1100461D01*
X351769Y1100716D01*
X351772Y1100785D01*
X351797Y1100848D01*
X351845Y1101106D01*
X351844Y1101175D01*
X351866Y1101240D01*
X351900Y1101499D01*
X351896Y1101568D01*
X351914Y1101634D01*
X351935Y1101895D01*
X351927Y1101963D01*
X351942Y1102030D01*
X351949Y1102292D01*
X351937Y1102360D01*
X351949Y1102428D01*
X351942Y1102690D01*
X351927Y1102757D01*
X351935Y1102825D01*
X351914Y1103086D01*
X351896Y1103152D01*
X351900Y1103221D01*
X351866Y1103480D01*
X351844Y1103545D01*
X351845Y1103614D01*
X351797Y1103872D01*
X351772Y1103935D01*
X351769Y1104004D01*
X351708Y1104259D01*
X351679Y1104321D01*
X351673Y1104390D01*
X351598Y1104641D01*
X351566Y1104702D01*
X351557Y1104770D01*
X351469Y1105016D01*
X351434Y1105075D01*
X351421Y1105143D01*
X351320Y1105385D01*
X351282Y1105442D01*
X351265Y1105509D01*
X351152Y1105745D01*
X351111Y1105800D01*
X351091Y1105866D01*
X350966Y1106096D01*
X350922Y1106149D01*
X350898Y1106213D01*
X350761Y1106436D01*
X350715Y1106487D01*
X350688Y1106550D01*
X350539Y1106766D01*
X350490Y1106814D01*
X350460Y1106875D01*
X350300Y1107083D01*
X350249Y1107129D01*
X350215Y1107189D01*
X350045Y1107388D01*
X349991Y1107430D01*
X349954Y1107488D01*
X349774Y1107678D01*
X349718Y1107718D01*
X349678Y1107774D01*
X349488Y1107954D01*
X349430Y1107991D01*
X349388Y1108045D01*
X349188Y1108215D01*
X349128Y1108249D01*
X349083Y1108300D01*
X348876Y1108460D01*
X348814Y1108490D01*
X348766Y1108539D01*
X348550Y1108688D01*
X348487Y1108715D01*
X348436Y1108761D01*
X348213Y1108898D01*
X348149Y1108922D01*
X348096Y1108966D01*
X347866Y1109091D01*
X347800Y1109111D01*
X347745Y1109153D01*
X347508Y1109265D01*
X347442Y1109282D01*
X347385Y1109320D01*
X347143Y1109420D01*
X347076Y1109434D01*
X347016Y1109469D01*
X346770Y1109557D01*
X346702Y1109566D01*
X346641Y1109598D01*
X346390Y1109673D01*
X346321Y1109679D01*
X346259Y1109708D01*
X346004Y1109769D01*
X345936Y1109772D01*
X345872Y1109797D01*
X345614Y1109845D01*
X345545Y1109844D01*
X345480Y1109866D01*
X345221Y1109900D01*
X345152Y1109896D01*
X345086Y1109914D01*
X344825Y1109935D01*
X344757Y1109927D01*
X344689Y1109942D01*
X344428Y1109949D01*
X344394Y1109943D01*
X344360Y1109950D01*
D02*
G37*
G36*
X306360D02*
X294360D01*
X294326Y1109943D01*
X294292Y1109949D01*
X294030Y1109942D01*
X293964Y1109927D01*
X293895Y1109935D01*
X293634Y1109914D01*
X293568Y1109896D01*
X293499Y1109900D01*
X293240Y1109866D01*
X293175Y1109844D01*
X293106Y1109845D01*
X292848Y1109797D01*
X292785Y1109772D01*
X292716Y1109769D01*
X292461Y1109708D01*
X292399Y1109679D01*
X292330Y1109673D01*
X292079Y1109598D01*
X292019Y1109566D01*
X291950Y1109557D01*
X291704Y1109469D01*
X291645Y1109434D01*
X291577Y1109420D01*
X291335Y1109320D01*
X291278Y1109282D01*
X291212Y1109265D01*
X290975Y1109153D01*
X290920Y1109111D01*
X290854Y1109091D01*
X290624Y1108966D01*
X290571Y1108922D01*
X290507Y1108898D01*
X290284Y1108761D01*
X290233Y1108715D01*
X290170Y1108688D01*
X289954Y1108539D01*
X289906Y1108490D01*
X289844Y1108460D01*
X289637Y1108300D01*
X289592Y1108249D01*
X289532Y1108215D01*
X289333Y1108045D01*
X289290Y1107991D01*
X289232Y1107954D01*
X289042Y1107774D01*
X289002Y1107718D01*
X288946Y1107678D01*
X288766Y1107488D01*
X288729Y1107430D01*
X288675Y1107388D01*
X288505Y1107189D01*
X288471Y1107129D01*
X288420Y1107083D01*
X288260Y1106875D01*
X288230Y1106814D01*
X288181Y1106766D01*
X288032Y1106550D01*
X288005Y1106487D01*
X287959Y1106436D01*
X287822Y1106213D01*
X287798Y1106149D01*
X287754Y1106096D01*
X287629Y1105866D01*
X287609Y1105800D01*
X287568Y1105745D01*
X287455Y1105509D01*
X287438Y1105442D01*
X287400Y1105385D01*
X287299Y1105143D01*
X287286Y1105075D01*
X287251Y1105016D01*
X287164Y1104770D01*
X287154Y1104702D01*
X287122Y1104641D01*
X287047Y1104390D01*
X287041Y1104321D01*
X287012Y1104259D01*
X286951Y1104004D01*
X286948Y1103935D01*
X286923Y1103872D01*
X286875Y1103614D01*
X286876Y1103545D01*
X286854Y1103480D01*
X286820Y1103221D01*
X286824Y1103152D01*
X286806Y1103086D01*
X286785Y1102825D01*
X286793Y1102757D01*
X286778Y1102690D01*
X286771Y1102428D01*
X286783Y1102360D01*
X286771Y1102292D01*
X286778Y1102030D01*
X286793Y1101963D01*
X286785Y1101895D01*
X286806Y1101634D01*
X286824Y1101568D01*
X286820Y1101499D01*
X286854Y1101240D01*
X286876Y1101175D01*
X286875Y1101106D01*
X286923Y1100848D01*
X286948Y1100785D01*
X286951Y1100716D01*
X287012Y1100461D01*
X287041Y1100399D01*
X287047Y1100330D01*
X287122Y1100079D01*
X287154Y1100018D01*
X287164Y1099950D01*
X287251Y1099704D01*
X287286Y1099645D01*
X287299Y1099577D01*
X287400Y1099335D01*
X287438Y1099278D01*
X287455Y1099211D01*
X287568Y1098975D01*
X287609Y1098920D01*
X287629Y1098854D01*
X287754Y1098624D01*
X287798Y1098571D01*
X287822Y1098507D01*
X287959Y1098284D01*
X288005Y1098233D01*
X288032Y1098170D01*
X288181Y1097954D01*
X288230Y1097906D01*
X288260Y1097844D01*
X288420Y1097637D01*
X288471Y1097591D01*
X288505Y1097532D01*
X288675Y1097333D01*
X288729Y1097290D01*
X288766Y1097232D01*
X288946Y1097042D01*
X289002Y1097002D01*
X289042Y1096946D01*
X289232Y1096766D01*
X289290Y1096729D01*
X289333Y1096675D01*
X289532Y1096505D01*
X289592Y1096471D01*
X289637Y1096420D01*
X289844Y1096260D01*
X289906Y1096230D01*
X289954Y1096181D01*
X290170Y1096032D01*
X290233Y1096005D01*
X290284Y1095958D01*
X290507Y1095822D01*
X290571Y1095798D01*
X290624Y1095754D01*
X290854Y1095629D01*
X290920Y1095609D01*
X290975Y1095567D01*
X291211Y1095455D01*
X291278Y1095438D01*
X291335Y1095400D01*
X291577Y1095300D01*
X291645Y1095286D01*
X291704Y1095251D01*
X291950Y1095163D01*
X292019Y1095154D01*
X292079Y1095122D01*
X292330Y1095047D01*
X292399Y1095041D01*
X292461Y1095012D01*
X292716Y1094951D01*
X292785Y1094948D01*
X292848Y1094923D01*
X293106Y1094875D01*
X293175Y1094876D01*
X293240Y1094854D01*
X293499Y1094820D01*
X293568Y1094824D01*
X293634Y1094806D01*
X293895Y1094785D01*
X293963Y1094793D01*
X294030Y1094778D01*
X294292Y1094771D01*
X294326Y1094777D01*
X294360Y1094770D01*
X306360D01*
X306394Y1094777D01*
X306428Y1094771D01*
X306689Y1094778D01*
X306757Y1094793D01*
X306825Y1094785D01*
X307086Y1094806D01*
X307152Y1094824D01*
X307221Y1094820D01*
X307480Y1094854D01*
X307545Y1094876D01*
X307614Y1094875D01*
X307871Y1094923D01*
X307935Y1094948D01*
X308004Y1094951D01*
X308259Y1095012D01*
X308321Y1095041D01*
X308390Y1095047D01*
X308641Y1095122D01*
X308701Y1095154D01*
X308770Y1095163D01*
X309016Y1095251D01*
X309075Y1095286D01*
X309143Y1095300D01*
X309385Y1095400D01*
X309442Y1095438D01*
X309509Y1095455D01*
X309745Y1095567D01*
X309800Y1095609D01*
X309866Y1095629D01*
X310096Y1095754D01*
X310149Y1095798D01*
X310213Y1095822D01*
X310436Y1095958D01*
X310487Y1096005D01*
X310550Y1096032D01*
X310766Y1096181D01*
X310814Y1096230D01*
X310875Y1096260D01*
X311083Y1096420D01*
X311129Y1096471D01*
X311189Y1096505D01*
X311388Y1096675D01*
X311430Y1096729D01*
X311488Y1096766D01*
X311678Y1096946D01*
X311718Y1097002D01*
X311774Y1097042D01*
X311954Y1097232D01*
X311991Y1097290D01*
X312045Y1097333D01*
X312215Y1097532D01*
X312249Y1097591D01*
X312300Y1097637D01*
X312460Y1097844D01*
X312490Y1097906D01*
X312539Y1097954D01*
X312688Y1098170D01*
X312715Y1098233D01*
X312761Y1098284D01*
X312898Y1098507D01*
X312922Y1098571D01*
X312966Y1098624D01*
X313091Y1098854D01*
X313111Y1098920D01*
X313153Y1098975D01*
X313265Y1099211D01*
X313282Y1099278D01*
X313320Y1099335D01*
X313421Y1099577D01*
X313434Y1099644D01*
X313469Y1099704D01*
X313556Y1099950D01*
X313566Y1100018D01*
X313598Y1100079D01*
X313673Y1100330D01*
X313679Y1100399D01*
X313708Y1100461D01*
X313769Y1100716D01*
X313772Y1100785D01*
X313797Y1100848D01*
X313845Y1101106D01*
X313844Y1101175D01*
X313866Y1101240D01*
X313900Y1101499D01*
X313896Y1101568D01*
X313914Y1101634D01*
X313935Y1101895D01*
X313927Y1101963D01*
X313942Y1102030D01*
X313949Y1102292D01*
X313937Y1102360D01*
X313949Y1102428D01*
X313942Y1102690D01*
X313927Y1102757D01*
X313935Y1102825D01*
X313914Y1103086D01*
X313896Y1103152D01*
X313900Y1103221D01*
X313866Y1103480D01*
X313844Y1103545D01*
X313845Y1103614D01*
X313797Y1103872D01*
X313772Y1103935D01*
X313769Y1104004D01*
X313708Y1104259D01*
X313679Y1104321D01*
X313673Y1104390D01*
X313598Y1104641D01*
X313566Y1104702D01*
X313556Y1104770D01*
X313469Y1105016D01*
X313434Y1105075D01*
X313421Y1105143D01*
X313320Y1105385D01*
X313282Y1105442D01*
X313265Y1105509D01*
X313153Y1105745D01*
X313111Y1105800D01*
X313091Y1105866D01*
X312966Y1106096D01*
X312922Y1106149D01*
X312898Y1106213D01*
X312761Y1106436D01*
X312715Y1106487D01*
X312688Y1106550D01*
X312539Y1106766D01*
X312490Y1106814D01*
X312460Y1106875D01*
X312300Y1107083D01*
X312249Y1107129D01*
X312215Y1107189D01*
X312045Y1107388D01*
X311991Y1107430D01*
X311954Y1107488D01*
X311774Y1107678D01*
X311718Y1107718D01*
X311678Y1107774D01*
X311488Y1107954D01*
X311430Y1107991D01*
X311388Y1108045D01*
X311189Y1108215D01*
X311129Y1108249D01*
X311083Y1108300D01*
X310875Y1108460D01*
X310814Y1108490D01*
X310766Y1108539D01*
X310550Y1108688D01*
X310487Y1108715D01*
X310436Y1108761D01*
X310213Y1108898D01*
X310149Y1108922D01*
X310096Y1108966D01*
X309866Y1109091D01*
X309800Y1109111D01*
X309745Y1109153D01*
X309508Y1109265D01*
X309442Y1109282D01*
X309385Y1109320D01*
X309143Y1109420D01*
X309076Y1109434D01*
X309016Y1109469D01*
X308770Y1109557D01*
X308701Y1109566D01*
X308641Y1109598D01*
X308390Y1109673D01*
X308321Y1109679D01*
X308259Y1109708D01*
X308004Y1109769D01*
X307936Y1109772D01*
X307871Y1109797D01*
X307614Y1109845D01*
X307545Y1109844D01*
X307480Y1109866D01*
X307221Y1109900D01*
X307152Y1109896D01*
X307086Y1109914D01*
X306825Y1109935D01*
X306756Y1109927D01*
X306689Y1109942D01*
X306428Y1109949D01*
X306394Y1109943D01*
X306360Y1109950D01*
D02*
G37*
G36*
X908102Y1152500D02*
X905458D01*
X902905Y1151816D01*
X900615Y1150494D01*
X898746Y1148625D01*
X897424Y1146335D01*
X896740Y1143782D01*
Y1141138D01*
X897424Y1138585D01*
X898746Y1136295D01*
X900615Y1134426D01*
X901136Y1134125D01*
Y1105442D01*
X887188Y1091494D01*
X854182D01*
X853656Y1092764D01*
X854751Y1093859D01*
X855670Y1096079D01*
Y1098481D01*
X854751Y1100701D01*
X854004Y1101448D01*
Y1130270D01*
X845256D01*
Y1101448D01*
X844510Y1100701D01*
X843967Y1099392D01*
X842593D01*
X842050Y1100701D01*
X840351Y1102401D01*
X838131Y1103320D01*
X835729D01*
X833509Y1102401D01*
X831809Y1100701D01*
X830890Y1098481D01*
Y1096079D01*
X831809Y1093859D01*
X832556Y1093112D01*
Y1089660D01*
X832889Y1087986D01*
X833837Y1086567D01*
X836377Y1084027D01*
X837796Y1083079D01*
X839470Y1082746D01*
X889000D01*
X890674Y1083079D01*
X892093Y1084027D01*
X908603Y1100537D01*
X909551Y1101956D01*
X909884Y1103630D01*
Y1132898D01*
X910655Y1133104D01*
X912945Y1134426D01*
X914814Y1136295D01*
X916136Y1138585D01*
X916820Y1141138D01*
Y1143782D01*
X916136Y1146335D01*
X914814Y1148625D01*
X912945Y1150494D01*
X910655Y1151816D01*
X908102Y1152500D01*
D02*
G37*
G36*
X344000Y1083790D02*
X336000D01*
X335966Y1083783D01*
X335932Y1083789D01*
X335671Y1083782D01*
X335603Y1083767D01*
X335535Y1083775D01*
X335274Y1083754D01*
X335208Y1083736D01*
X335139Y1083740D01*
X334880Y1083706D01*
X334815Y1083684D01*
X334746Y1083685D01*
X334489Y1083637D01*
X334425Y1083612D01*
X334356Y1083609D01*
X334101Y1083548D01*
X334039Y1083519D01*
X333970Y1083513D01*
X333719Y1083438D01*
X333659Y1083406D01*
X333591Y1083397D01*
X333344Y1083309D01*
X333285Y1083274D01*
X333217Y1083260D01*
X332975Y1083160D01*
X332918Y1083122D01*
X332851Y1083105D01*
X332615Y1082992D01*
X332560Y1082951D01*
X332495Y1082931D01*
X332264Y1082806D01*
X332211Y1082762D01*
X332147Y1082738D01*
X331924Y1082601D01*
X331873Y1082555D01*
X331810Y1082528D01*
X331594Y1082379D01*
X331546Y1082330D01*
X331484Y1082300D01*
X331277Y1082140D01*
X331231Y1082089D01*
X331171Y1082055D01*
X330973Y1081885D01*
X330930Y1081831D01*
X330872Y1081794D01*
X330682Y1081614D01*
X330642Y1081558D01*
X330586Y1081518D01*
X330406Y1081328D01*
X330369Y1081270D01*
X330315Y1081227D01*
X330145Y1081028D01*
X330111Y1080968D01*
X330060Y1080923D01*
X329900Y1080715D01*
X329870Y1080654D01*
X329821Y1080606D01*
X329673Y1080390D01*
X329645Y1080327D01*
X329599Y1080276D01*
X329462Y1080053D01*
X329438Y1079989D01*
X329394Y1079936D01*
X329269Y1079706D01*
X329249Y1079640D01*
X329207Y1079585D01*
X329095Y1079349D01*
X329078Y1079282D01*
X329040Y1079225D01*
X328940Y1078983D01*
X328926Y1078915D01*
X328891Y1078856D01*
X328803Y1078610D01*
X328794Y1078541D01*
X328762Y1078481D01*
X328687Y1078230D01*
X328681Y1078161D01*
X328652Y1078099D01*
X328591Y1077844D01*
X328588Y1077775D01*
X328563Y1077711D01*
X328515Y1077454D01*
X328516Y1077385D01*
X328494Y1077320D01*
X328460Y1077061D01*
X328464Y1076992D01*
X328446Y1076926D01*
X328425Y1076665D01*
X328433Y1076597D01*
X328418Y1076529D01*
X328411Y1076268D01*
X328423Y1076200D01*
X328411Y1076132D01*
X328418Y1075871D01*
X328433Y1075803D01*
X328425Y1075735D01*
X328446Y1075474D01*
X328464Y1075408D01*
X328460Y1075339D01*
X328494Y1075080D01*
X328516Y1075015D01*
X328515Y1074946D01*
X328563Y1074688D01*
X328588Y1074625D01*
X328591Y1074556D01*
X328652Y1074301D01*
X328681Y1074239D01*
X328687Y1074170D01*
X328762Y1073919D01*
X328794Y1073858D01*
X328803Y1073790D01*
X328891Y1073544D01*
X328926Y1073485D01*
X328940Y1073417D01*
X329040Y1073175D01*
X329078Y1073118D01*
X329095Y1073051D01*
X329207Y1072815D01*
X329249Y1072760D01*
X329269Y1072694D01*
X329394Y1072464D01*
X329438Y1072411D01*
X329462Y1072347D01*
X329599Y1072124D01*
X329645Y1072073D01*
X329673Y1072010D01*
X329821Y1071794D01*
X329870Y1071746D01*
X329900Y1071685D01*
X330060Y1071477D01*
X330111Y1071432D01*
X330145Y1071371D01*
X330315Y1071172D01*
X330369Y1071130D01*
X330406Y1071072D01*
X330586Y1070882D01*
X330642Y1070842D01*
X330682Y1070786D01*
X330872Y1070606D01*
X330930Y1070569D01*
X330973Y1070515D01*
X331171Y1070345D01*
X331231Y1070311D01*
X331277Y1070260D01*
X331484Y1070100D01*
X331546Y1070070D01*
X331594Y1070021D01*
X331810Y1069872D01*
X331873Y1069845D01*
X331924Y1069799D01*
X332147Y1069662D01*
X332211Y1069638D01*
X332264Y1069594D01*
X332494Y1069469D01*
X332560Y1069449D01*
X332615Y1069407D01*
X332852Y1069295D01*
X332918Y1069278D01*
X332975Y1069240D01*
X333217Y1069139D01*
X333285Y1069126D01*
X333344Y1069091D01*
X333591Y1069004D01*
X333659Y1068994D01*
X333719Y1068962D01*
X333970Y1068887D01*
X334039Y1068881D01*
X334101Y1068852D01*
X334356Y1068791D01*
X334425Y1068788D01*
X334488Y1068763D01*
X334746Y1068715D01*
X334815Y1068716D01*
X334880Y1068694D01*
X335139Y1068660D01*
X335208Y1068664D01*
X335274Y1068646D01*
X335535Y1068625D01*
X335603Y1068633D01*
X335671Y1068618D01*
X335932Y1068611D01*
X335966Y1068617D01*
X336000Y1068610D01*
X344000D01*
X344034Y1068617D01*
X344068Y1068611D01*
X344329Y1068618D01*
X344397Y1068633D01*
X344465Y1068625D01*
X344726Y1068646D01*
X344792Y1068664D01*
X344861Y1068660D01*
X345120Y1068694D01*
X345185Y1068716D01*
X345254Y1068715D01*
X345512Y1068763D01*
X345575Y1068788D01*
X345644Y1068791D01*
X345899Y1068852D01*
X345961Y1068881D01*
X346030Y1068887D01*
X346281Y1068962D01*
X346342Y1068994D01*
X346410Y1069004D01*
X346656Y1069091D01*
X346715Y1069126D01*
X346783Y1069139D01*
X347025Y1069240D01*
X347082Y1069278D01*
X347148Y1069295D01*
X347385Y1069407D01*
X347440Y1069449D01*
X347506Y1069469D01*
X347736Y1069594D01*
X347789Y1069638D01*
X347853Y1069662D01*
X348076Y1069799D01*
X348127Y1069845D01*
X348190Y1069872D01*
X348406Y1070021D01*
X348454Y1070070D01*
X348516Y1070100D01*
X348723Y1070260D01*
X348769Y1070311D01*
X348829Y1070345D01*
X349027Y1070515D01*
X349070Y1070569D01*
X349128Y1070606D01*
X349318Y1070786D01*
X349358Y1070842D01*
X349414Y1070882D01*
X349594Y1071072D01*
X349631Y1071130D01*
X349685Y1071172D01*
X349855Y1071371D01*
X349889Y1071432D01*
X349940Y1071477D01*
X350100Y1071685D01*
X350130Y1071746D01*
X350179Y1071794D01*
X350328Y1072010D01*
X350355Y1072073D01*
X350401Y1072124D01*
X350538Y1072347D01*
X350562Y1072411D01*
X350606Y1072464D01*
X350731Y1072694D01*
X350751Y1072760D01*
X350793Y1072815D01*
X350905Y1073051D01*
X350922Y1073118D01*
X350960Y1073175D01*
X351060Y1073417D01*
X351074Y1073484D01*
X351109Y1073544D01*
X351197Y1073790D01*
X351206Y1073858D01*
X351238Y1073919D01*
X351313Y1074170D01*
X351319Y1074239D01*
X351348Y1074301D01*
X351409Y1074556D01*
X351412Y1074624D01*
X351437Y1074688D01*
X351485Y1074946D01*
X351484Y1075015D01*
X351506Y1075080D01*
X351540Y1075339D01*
X351536Y1075408D01*
X351554Y1075474D01*
X351575Y1075735D01*
X351567Y1075803D01*
X351582Y1075870D01*
X351589Y1076132D01*
X351577Y1076200D01*
X351589Y1076268D01*
X351582Y1076529D01*
X351567Y1076597D01*
X351575Y1076665D01*
X351554Y1076926D01*
X351536Y1076992D01*
X351540Y1077061D01*
X351506Y1077320D01*
X351484Y1077385D01*
X351485Y1077454D01*
X351437Y1077711D01*
X351412Y1077775D01*
X351409Y1077844D01*
X351348Y1078099D01*
X351319Y1078161D01*
X351313Y1078230D01*
X351238Y1078481D01*
X351206Y1078541D01*
X351197Y1078610D01*
X351109Y1078856D01*
X351074Y1078915D01*
X351060Y1078983D01*
X350960Y1079225D01*
X350922Y1079282D01*
X350905Y1079349D01*
X350793Y1079585D01*
X350751Y1079640D01*
X350731Y1079706D01*
X350606Y1079936D01*
X350562Y1079989D01*
X350538Y1080053D01*
X350401Y1080276D01*
X350355Y1080327D01*
X350328Y1080390D01*
X350179Y1080606D01*
X350130Y1080654D01*
X350100Y1080715D01*
X349940Y1080923D01*
X349889Y1080968D01*
X349855Y1081028D01*
X349685Y1081227D01*
X349631Y1081270D01*
X349594Y1081328D01*
X349414Y1081518D01*
X349358Y1081558D01*
X349318Y1081614D01*
X349128Y1081794D01*
X349070Y1081831D01*
X349027Y1081885D01*
X348829Y1082055D01*
X348769Y1082089D01*
X348723Y1082140D01*
X348516Y1082300D01*
X348454Y1082330D01*
X348406Y1082379D01*
X348190Y1082528D01*
X348127Y1082555D01*
X348076Y1082601D01*
X347853Y1082738D01*
X347789Y1082762D01*
X347736Y1082806D01*
X347506Y1082931D01*
X347440Y1082951D01*
X347385Y1082992D01*
X347149Y1083105D01*
X347082Y1083122D01*
X347025Y1083160D01*
X346783Y1083260D01*
X346716Y1083274D01*
X346656Y1083309D01*
X346410Y1083397D01*
X346342Y1083406D01*
X346281Y1083438D01*
X346030Y1083513D01*
X345961Y1083519D01*
X345899Y1083548D01*
X345644Y1083609D01*
X345575Y1083612D01*
X345512Y1083637D01*
X345254Y1083685D01*
X345185Y1083684D01*
X345120Y1083706D01*
X344861Y1083740D01*
X344792Y1083736D01*
X344726Y1083754D01*
X344465Y1083775D01*
X344397Y1083767D01*
X344329Y1083782D01*
X344068Y1083789D01*
X344034Y1083783D01*
X344000Y1083790D01*
D02*
G37*
G36*
X306000D02*
X294000D01*
X293966Y1083783D01*
X293932Y1083789D01*
X293671Y1083782D01*
X293603Y1083767D01*
X293535Y1083775D01*
X293274Y1083754D01*
X293208Y1083736D01*
X293139Y1083740D01*
X292880Y1083706D01*
X292815Y1083684D01*
X292746Y1083685D01*
X292488Y1083637D01*
X292425Y1083612D01*
X292356Y1083609D01*
X292101Y1083548D01*
X292039Y1083519D01*
X291970Y1083513D01*
X291719Y1083438D01*
X291658Y1083406D01*
X291590Y1083397D01*
X291344Y1083309D01*
X291285Y1083274D01*
X291217Y1083260D01*
X290975Y1083160D01*
X290918Y1083122D01*
X290851Y1083105D01*
X290615Y1082992D01*
X290560Y1082951D01*
X290494Y1082931D01*
X290264Y1082806D01*
X290211Y1082762D01*
X290147Y1082738D01*
X289924Y1082601D01*
X289873Y1082555D01*
X289810Y1082528D01*
X289594Y1082379D01*
X289546Y1082330D01*
X289485Y1082300D01*
X289277Y1082140D01*
X289231Y1082089D01*
X289172Y1082055D01*
X288972Y1081885D01*
X288930Y1081831D01*
X288872Y1081794D01*
X288682Y1081614D01*
X288642Y1081558D01*
X288586Y1081518D01*
X288406Y1081328D01*
X288369Y1081270D01*
X288315Y1081227D01*
X288145Y1081028D01*
X288111Y1080968D01*
X288060Y1080923D01*
X287900Y1080715D01*
X287870Y1080654D01*
X287821Y1080606D01*
X287672Y1080390D01*
X287645Y1080327D01*
X287599Y1080276D01*
X287462Y1080053D01*
X287438Y1079989D01*
X287394Y1079936D01*
X287269Y1079706D01*
X287249Y1079640D01*
X287208Y1079585D01*
X287095Y1079349D01*
X287078Y1079282D01*
X287040Y1079225D01*
X286940Y1078983D01*
X286926Y1078915D01*
X286891Y1078856D01*
X286803Y1078610D01*
X286794Y1078541D01*
X286762Y1078481D01*
X286687Y1078230D01*
X286681Y1078161D01*
X286652Y1078099D01*
X286591Y1077844D01*
X286588Y1077775D01*
X286563Y1077711D01*
X286515Y1077454D01*
X286516Y1077385D01*
X286494Y1077320D01*
X286460Y1077061D01*
X286464Y1076992D01*
X286446Y1076926D01*
X286425Y1076665D01*
X286433Y1076597D01*
X286418Y1076529D01*
X286411Y1076268D01*
X286423Y1076200D01*
X286411Y1076132D01*
X286418Y1075871D01*
X286433Y1075803D01*
X286425Y1075735D01*
X286446Y1075474D01*
X286464Y1075408D01*
X286460Y1075339D01*
X286494Y1075080D01*
X286516Y1075015D01*
X286515Y1074946D01*
X286563Y1074688D01*
X286588Y1074625D01*
X286591Y1074556D01*
X286652Y1074301D01*
X286681Y1074239D01*
X286687Y1074170D01*
X286762Y1073919D01*
X286794Y1073858D01*
X286803Y1073790D01*
X286891Y1073544D01*
X286926Y1073485D01*
X286940Y1073417D01*
X287040Y1073175D01*
X287078Y1073118D01*
X287095Y1073051D01*
X287208Y1072815D01*
X287249Y1072760D01*
X287269Y1072694D01*
X287394Y1072464D01*
X287438Y1072411D01*
X287462Y1072347D01*
X287599Y1072124D01*
X287645Y1072073D01*
X287672Y1072010D01*
X287821Y1071794D01*
X287870Y1071746D01*
X287900Y1071685D01*
X288060Y1071477D01*
X288111Y1071432D01*
X288145Y1071371D01*
X288315Y1071172D01*
X288369Y1071130D01*
X288406Y1071072D01*
X288586Y1070882D01*
X288642Y1070842D01*
X288682Y1070786D01*
X288872Y1070606D01*
X288930Y1070569D01*
X288972Y1070515D01*
X289172Y1070345D01*
X289231Y1070311D01*
X289277Y1070260D01*
X289485Y1070100D01*
X289546Y1070070D01*
X289594Y1070021D01*
X289810Y1069872D01*
X289873Y1069845D01*
X289924Y1069799D01*
X290147Y1069662D01*
X290211Y1069638D01*
X290264Y1069594D01*
X290494Y1069469D01*
X290560Y1069449D01*
X290615Y1069407D01*
X290852Y1069295D01*
X290918Y1069278D01*
X290975Y1069240D01*
X291217Y1069139D01*
X291285Y1069126D01*
X291344Y1069091D01*
X291590Y1069004D01*
X291658Y1068994D01*
X291719Y1068962D01*
X291970Y1068887D01*
X292039Y1068881D01*
X292101Y1068852D01*
X292356Y1068791D01*
X292425Y1068788D01*
X292488Y1068763D01*
X292746Y1068715D01*
X292815Y1068716D01*
X292880Y1068694D01*
X293139Y1068660D01*
X293208Y1068664D01*
X293274Y1068646D01*
X293535Y1068625D01*
X293603Y1068633D01*
X293671Y1068618D01*
X293932Y1068611D01*
X293966Y1068617D01*
X294000Y1068610D01*
X306000D01*
X306034Y1068617D01*
X306068Y1068611D01*
X306329Y1068618D01*
X306397Y1068633D01*
X306465Y1068625D01*
X306726Y1068646D01*
X306792Y1068664D01*
X306861Y1068660D01*
X307120Y1068694D01*
X307185Y1068716D01*
X307254Y1068715D01*
X307512Y1068763D01*
X307575Y1068788D01*
X307644Y1068791D01*
X307899Y1068852D01*
X307961Y1068881D01*
X308030Y1068887D01*
X308281Y1068962D01*
X308342Y1068994D01*
X308410Y1069004D01*
X308656Y1069091D01*
X308715Y1069126D01*
X308783Y1069139D01*
X309025Y1069240D01*
X309082Y1069278D01*
X309148Y1069295D01*
X309385Y1069407D01*
X309440Y1069449D01*
X309506Y1069469D01*
X309736Y1069594D01*
X309789Y1069638D01*
X309853Y1069662D01*
X310076Y1069799D01*
X310127Y1069845D01*
X310190Y1069872D01*
X310406Y1070021D01*
X310454Y1070070D01*
X310515Y1070100D01*
X310723Y1070260D01*
X310769Y1070311D01*
X310828Y1070345D01*
X311028Y1070515D01*
X311070Y1070569D01*
X311128Y1070606D01*
X311318Y1070786D01*
X311358Y1070842D01*
X311414Y1070882D01*
X311594Y1071072D01*
X311631Y1071130D01*
X311685Y1071172D01*
X311855Y1071371D01*
X311889Y1071432D01*
X311940Y1071477D01*
X312100Y1071685D01*
X312130Y1071746D01*
X312179Y1071794D01*
X312328Y1072010D01*
X312355Y1072073D01*
X312402Y1072124D01*
X312538Y1072347D01*
X312562Y1072411D01*
X312606Y1072464D01*
X312731Y1072694D01*
X312751Y1072760D01*
X312792Y1072815D01*
X312905Y1073051D01*
X312922Y1073118D01*
X312960Y1073175D01*
X313060Y1073417D01*
X313074Y1073484D01*
X313109Y1073544D01*
X313197Y1073790D01*
X313206Y1073858D01*
X313238Y1073919D01*
X313313Y1074170D01*
X313319Y1074239D01*
X313348Y1074301D01*
X313409Y1074556D01*
X313412Y1074624D01*
X313437Y1074688D01*
X313485Y1074946D01*
X313484Y1075015D01*
X313506Y1075080D01*
X313540Y1075339D01*
X313536Y1075408D01*
X313554Y1075474D01*
X313575Y1075735D01*
X313567Y1075803D01*
X313582Y1075870D01*
X313589Y1076132D01*
X313577Y1076200D01*
X313589Y1076268D01*
X313582Y1076529D01*
X313567Y1076597D01*
X313575Y1076665D01*
X313554Y1076926D01*
X313536Y1076992D01*
X313540Y1077061D01*
X313506Y1077320D01*
X313484Y1077385D01*
X313485Y1077454D01*
X313437Y1077711D01*
X313412Y1077775D01*
X313409Y1077844D01*
X313348Y1078099D01*
X313319Y1078161D01*
X313313Y1078230D01*
X313238Y1078481D01*
X313206Y1078541D01*
X313197Y1078610D01*
X313109Y1078856D01*
X313074Y1078915D01*
X313060Y1078983D01*
X312960Y1079225D01*
X312922Y1079282D01*
X312905Y1079349D01*
X312792Y1079585D01*
X312751Y1079640D01*
X312731Y1079706D01*
X312606Y1079936D01*
X312562Y1079989D01*
X312538Y1080053D01*
X312402Y1080276D01*
X312355Y1080327D01*
X312328Y1080390D01*
X312179Y1080606D01*
X312130Y1080654D01*
X312100Y1080715D01*
X311940Y1080923D01*
X311889Y1080968D01*
X311855Y1081028D01*
X311685Y1081227D01*
X311631Y1081270D01*
X311594Y1081328D01*
X311414Y1081518D01*
X311358Y1081558D01*
X311318Y1081614D01*
X311128Y1081794D01*
X311070Y1081831D01*
X311028Y1081885D01*
X310828Y1082055D01*
X310769Y1082089D01*
X310723Y1082140D01*
X310515Y1082300D01*
X310454Y1082330D01*
X310406Y1082379D01*
X310190Y1082528D01*
X310127Y1082555D01*
X310076Y1082601D01*
X309853Y1082738D01*
X309789Y1082762D01*
X309736Y1082806D01*
X309506Y1082931D01*
X309440Y1082951D01*
X309385Y1082992D01*
X309149Y1083105D01*
X309082Y1083122D01*
X309025Y1083160D01*
X308783Y1083260D01*
X308715Y1083274D01*
X308656Y1083309D01*
X308410Y1083397D01*
X308342Y1083406D01*
X308281Y1083438D01*
X308030Y1083513D01*
X307961Y1083519D01*
X307899Y1083548D01*
X307644Y1083609D01*
X307575Y1083612D01*
X307512Y1083637D01*
X307254Y1083685D01*
X307185Y1083684D01*
X307120Y1083706D01*
X306861Y1083740D01*
X306792Y1083736D01*
X306726Y1083754D01*
X306465Y1083775D01*
X306397Y1083767D01*
X306329Y1083782D01*
X306068Y1083789D01*
X306034Y1083783D01*
X306000Y1083790D01*
D02*
G37*
G36*
X742881Y1090620D02*
X740479D01*
X739533Y1090229D01*
X717768D01*
X715606Y1089799D01*
X713774Y1088574D01*
X713178Y1087682D01*
X712286Y1087086D01*
X711061Y1085254D01*
X710631Y1083092D01*
Y1012758D01*
X544630D01*
X537394Y1019994D01*
X535562Y1021219D01*
X533400Y1021649D01*
X533400Y1021648D01*
X467360D01*
X467360Y1021649D01*
X465198Y1021219D01*
X463366Y1019994D01*
X463366Y1019994D01*
X455746Y1012374D01*
X454521Y1010542D01*
X454091Y1008380D01*
X454091Y1008380D01*
Y991477D01*
X453700Y990531D01*
Y988129D01*
X454619Y985909D01*
X456319Y984210D01*
X458539Y983290D01*
X460941D01*
X463161Y984210D01*
X464860Y985909D01*
X465780Y988129D01*
Y990531D01*
X465388Y991477D01*
Y1006040D01*
X469700Y1010351D01*
X531060D01*
X538296Y1003116D01*
X538296Y1003116D01*
X540128Y1001891D01*
X542290Y1001461D01*
X542290Y1001461D01*
X714134D01*
X715079Y1001070D01*
X717481D01*
X718427Y1001461D01*
X740610D01*
X752926Y989146D01*
X752926Y989146D01*
X753700Y988628D01*
X753315Y987358D01*
X527618D01*
Y998220D01*
X527189Y1000382D01*
X525964Y1002214D01*
X525964Y1002214D01*
X523424Y1004754D01*
X521592Y1005979D01*
X519430Y1006409D01*
X519430Y1006408D01*
X515227D01*
X514281Y1006800D01*
X511879D01*
X509659Y1005881D01*
X507960Y1004181D01*
X507040Y1001961D01*
Y999559D01*
X507960Y997339D01*
X509659Y995639D01*
X511879Y994720D01*
X514281D01*
X515051Y995039D01*
X516321Y994547D01*
Y983857D01*
X515930Y982911D01*
Y980509D01*
X516850Y978289D01*
X518549Y976590D01*
X520769Y975670D01*
X523171D01*
X524117Y976061D01*
X754336D01*
Y1003712D01*
X746944Y1011104D01*
X745112Y1012329D01*
X742950Y1012759D01*
X742950Y1012758D01*
X721928D01*
Y1014742D01*
X722984Y1015448D01*
X723969Y1015040D01*
X726371D01*
X728591Y1015959D01*
X729338Y1016706D01*
X754336D01*
Y1025454D01*
X729338D01*
X728591Y1026200D01*
X726371Y1027120D01*
X723969D01*
X722984Y1026712D01*
X721928Y1027418D01*
Y1078932D01*
X739533D01*
X740479Y1078540D01*
X742881D01*
X745101Y1079460D01*
X746801Y1081159D01*
X747720Y1083379D01*
Y1085781D01*
X746801Y1088001D01*
X745101Y1089700D01*
X742881Y1090620D01*
D02*
G37*
G36*
X828604Y1130270D02*
X819856D01*
Y1070968D01*
X819109Y1070221D01*
X818567Y1068912D01*
X817193D01*
X816650Y1070221D01*
X815904Y1070968D01*
Y1130270D01*
X807156D01*
Y1070968D01*
X806410Y1070221D01*
X805867Y1068912D01*
X804493D01*
X803951Y1070221D01*
X803204Y1070968D01*
Y1130270D01*
X794456D01*
Y1070968D01*
X793709Y1070221D01*
X792790Y1068001D01*
Y1065599D01*
X793709Y1063379D01*
X795409Y1061680D01*
X797629Y1060760D01*
X800031D01*
X802251Y1061680D01*
X803951Y1063379D01*
X804493Y1064688D01*
X805867D01*
X806410Y1063379D01*
X808109Y1061680D01*
X810329Y1060760D01*
X812731D01*
X814951Y1061680D01*
X816650Y1063379D01*
X817193Y1064688D01*
X818567D01*
X819109Y1063379D01*
X820809Y1061680D01*
X823029Y1060760D01*
X825431D01*
X827651Y1061680D01*
X829351Y1063379D01*
X830270Y1065599D01*
Y1068001D01*
X829351Y1070221D01*
X828604Y1070968D01*
Y1130270D01*
D02*
G37*
G36*
X344000Y971390D02*
X336000D01*
X335966Y971383D01*
X335932Y971389D01*
X335671Y971382D01*
X335603Y971367D01*
X335535Y971375D01*
X335274Y971354D01*
X335208Y971336D01*
X335139Y971340D01*
X334880Y971306D01*
X334815Y971284D01*
X334746Y971285D01*
X334489Y971237D01*
X334425Y971212D01*
X334356Y971209D01*
X334101Y971148D01*
X334039Y971119D01*
X333970Y971113D01*
X333719Y971038D01*
X333659Y971006D01*
X333591Y970996D01*
X333344Y970909D01*
X333285Y970874D01*
X333217Y970861D01*
X332975Y970760D01*
X332918Y970722D01*
X332852Y970705D01*
X332615Y970593D01*
X332560Y970551D01*
X332494Y970531D01*
X332264Y970406D01*
X332211Y970362D01*
X332147Y970338D01*
X331924Y970201D01*
X331873Y970155D01*
X331810Y970128D01*
X331594Y969979D01*
X331546Y969930D01*
X331484Y969900D01*
X331277Y969740D01*
X331231Y969689D01*
X331171Y969655D01*
X330973Y969485D01*
X330930Y969431D01*
X330872Y969394D01*
X330682Y969214D01*
X330642Y969158D01*
X330586Y969118D01*
X330406Y968928D01*
X330369Y968870D01*
X330315Y968828D01*
X330145Y968629D01*
X330111Y968568D01*
X330060Y968523D01*
X329900Y968315D01*
X329870Y968254D01*
X329821Y968206D01*
X329673Y967990D01*
X329645Y967927D01*
X329599Y967876D01*
X329462Y967653D01*
X329438Y967589D01*
X329394Y967536D01*
X329269Y967306D01*
X329249Y967240D01*
X329207Y967185D01*
X329095Y966949D01*
X329078Y966882D01*
X329040Y966825D01*
X328940Y966583D01*
X328926Y966515D01*
X328891Y966456D01*
X328803Y966210D01*
X328794Y966142D01*
X328762Y966081D01*
X328687Y965830D01*
X328681Y965761D01*
X328652Y965699D01*
X328591Y965444D01*
X328588Y965376D01*
X328563Y965312D01*
X328515Y965054D01*
X328516Y964985D01*
X328494Y964920D01*
X328460Y964661D01*
X328464Y964592D01*
X328446Y964526D01*
X328425Y964265D01*
X328433Y964197D01*
X328418Y964129D01*
X328411Y963868D01*
X328423Y963800D01*
X328411Y963732D01*
X328418Y963471D01*
X328433Y963403D01*
X328425Y963335D01*
X328446Y963074D01*
X328464Y963008D01*
X328460Y962939D01*
X328494Y962680D01*
X328516Y962615D01*
X328515Y962546D01*
X328563Y962289D01*
X328588Y962225D01*
X328591Y962156D01*
X328652Y961901D01*
X328681Y961839D01*
X328687Y961770D01*
X328762Y961519D01*
X328794Y961459D01*
X328803Y961390D01*
X328891Y961144D01*
X328926Y961085D01*
X328940Y961017D01*
X329040Y960775D01*
X329078Y960718D01*
X329095Y960651D01*
X329207Y960415D01*
X329249Y960360D01*
X329269Y960294D01*
X329394Y960064D01*
X329438Y960011D01*
X329462Y959947D01*
X329599Y959724D01*
X329645Y959673D01*
X329673Y959610D01*
X329821Y959394D01*
X329870Y959346D01*
X329900Y959285D01*
X330060Y959077D01*
X330111Y959032D01*
X330145Y958971D01*
X330315Y958773D01*
X330369Y958730D01*
X330406Y958672D01*
X330586Y958482D01*
X330642Y958442D01*
X330682Y958386D01*
X330872Y958206D01*
X330930Y958169D01*
X330973Y958115D01*
X331171Y957945D01*
X331231Y957911D01*
X331277Y957860D01*
X331484Y957700D01*
X331546Y957670D01*
X331594Y957621D01*
X331810Y957472D01*
X331873Y957445D01*
X331924Y957399D01*
X332147Y957262D01*
X332211Y957238D01*
X332264Y957194D01*
X332495Y957069D01*
X332560Y957049D01*
X332615Y957008D01*
X332851Y956895D01*
X332918Y956878D01*
X332975Y956840D01*
X333217Y956740D01*
X333285Y956726D01*
X333344Y956691D01*
X333591Y956603D01*
X333659Y956594D01*
X333719Y956562D01*
X333970Y956487D01*
X334039Y956481D01*
X334101Y956452D01*
X334356Y956391D01*
X334425Y956388D01*
X334488Y956363D01*
X334746Y956315D01*
X334815Y956316D01*
X334880Y956294D01*
X335139Y956260D01*
X335208Y956264D01*
X335274Y956246D01*
X335535Y956225D01*
X335603Y956233D01*
X335671Y956218D01*
X335932Y956211D01*
X335966Y956217D01*
X336000Y956210D01*
X344000D01*
X344034Y956217D01*
X344068Y956211D01*
X344329Y956218D01*
X344397Y956233D01*
X344465Y956225D01*
X344726Y956246D01*
X344792Y956264D01*
X344861Y956260D01*
X345120Y956294D01*
X345185Y956316D01*
X345254Y956315D01*
X345512Y956363D01*
X345575Y956388D01*
X345644Y956391D01*
X345899Y956452D01*
X345961Y956481D01*
X346030Y956487D01*
X346281Y956562D01*
X346342Y956594D01*
X346410Y956603D01*
X346656Y956691D01*
X346715Y956726D01*
X346783Y956740D01*
X347025Y956840D01*
X347082Y956878D01*
X347149Y956895D01*
X347385Y957008D01*
X347440Y957049D01*
X347506Y957069D01*
X347736Y957194D01*
X347789Y957238D01*
X347853Y957262D01*
X348076Y957399D01*
X348127Y957445D01*
X348190Y957472D01*
X348406Y957621D01*
X348454Y957670D01*
X348516Y957700D01*
X348723Y957860D01*
X348769Y957911D01*
X348829Y957945D01*
X349027Y958115D01*
X349070Y958169D01*
X349128Y958206D01*
X349318Y958386D01*
X349358Y958442D01*
X349414Y958482D01*
X349594Y958672D01*
X349631Y958730D01*
X349685Y958773D01*
X349855Y958971D01*
X349889Y959032D01*
X349940Y959077D01*
X350100Y959285D01*
X350130Y959346D01*
X350179Y959394D01*
X350328Y959610D01*
X350355Y959673D01*
X350401Y959724D01*
X350538Y959947D01*
X350562Y960011D01*
X350606Y960064D01*
X350731Y960294D01*
X350751Y960360D01*
X350793Y960415D01*
X350905Y960651D01*
X350922Y960718D01*
X350960Y960775D01*
X351060Y961017D01*
X351074Y961085D01*
X351109Y961144D01*
X351197Y961390D01*
X351206Y961459D01*
X351238Y961519D01*
X351313Y961770D01*
X351319Y961839D01*
X351348Y961901D01*
X351409Y962156D01*
X351412Y962225D01*
X351437Y962289D01*
X351485Y962546D01*
X351484Y962615D01*
X351506Y962680D01*
X351540Y962939D01*
X351536Y963008D01*
X351554Y963074D01*
X351575Y963335D01*
X351567Y963403D01*
X351582Y963471D01*
X351589Y963732D01*
X351577Y963800D01*
X351589Y963868D01*
X351582Y964129D01*
X351567Y964197D01*
X351575Y964265D01*
X351554Y964526D01*
X351536Y964592D01*
X351540Y964661D01*
X351506Y964920D01*
X351484Y964985D01*
X351485Y965054D01*
X351437Y965312D01*
X351412Y965375D01*
X351409Y965444D01*
X351348Y965699D01*
X351319Y965761D01*
X351313Y965830D01*
X351238Y966081D01*
X351206Y966142D01*
X351197Y966210D01*
X351109Y966456D01*
X351074Y966515D01*
X351060Y966583D01*
X350960Y966825D01*
X350922Y966882D01*
X350905Y966949D01*
X350793Y967185D01*
X350751Y967240D01*
X350731Y967306D01*
X350606Y967536D01*
X350562Y967589D01*
X350538Y967653D01*
X350401Y967876D01*
X350355Y967927D01*
X350328Y967990D01*
X350179Y968206D01*
X350130Y968254D01*
X350100Y968315D01*
X349940Y968523D01*
X349889Y968568D01*
X349855Y968629D01*
X349685Y968828D01*
X349631Y968870D01*
X349594Y968928D01*
X349414Y969118D01*
X349358Y969158D01*
X349318Y969214D01*
X349128Y969394D01*
X349070Y969431D01*
X349027Y969485D01*
X348829Y969655D01*
X348769Y969689D01*
X348723Y969740D01*
X348516Y969900D01*
X348454Y969930D01*
X348406Y969979D01*
X348190Y970128D01*
X348127Y970155D01*
X348076Y970201D01*
X347853Y970338D01*
X347789Y970362D01*
X347736Y970406D01*
X347506Y970531D01*
X347440Y970551D01*
X347385Y970593D01*
X347149Y970705D01*
X347082Y970722D01*
X347025Y970760D01*
X346783Y970861D01*
X346716Y970874D01*
X346656Y970909D01*
X346410Y970996D01*
X346342Y971006D01*
X346281Y971038D01*
X346030Y971113D01*
X345961Y971119D01*
X345899Y971148D01*
X345644Y971209D01*
X345575Y971212D01*
X345512Y971237D01*
X345254Y971285D01*
X345185Y971284D01*
X345120Y971306D01*
X344861Y971340D01*
X344792Y971336D01*
X344726Y971354D01*
X344465Y971375D01*
X344397Y971367D01*
X344329Y971382D01*
X344068Y971389D01*
X344034Y971383D01*
X344000Y971390D01*
D02*
G37*
G36*
X306000D02*
X294000D01*
X293966Y971383D01*
X293932Y971389D01*
X293671Y971382D01*
X293603Y971367D01*
X293535Y971375D01*
X293274Y971354D01*
X293208Y971336D01*
X293139Y971340D01*
X292880Y971306D01*
X292815Y971284D01*
X292746Y971285D01*
X292488Y971237D01*
X292425Y971212D01*
X292356Y971209D01*
X292101Y971148D01*
X292039Y971119D01*
X291970Y971113D01*
X291719Y971038D01*
X291658Y971006D01*
X291590Y970996D01*
X291344Y970909D01*
X291285Y970874D01*
X291217Y970861D01*
X290975Y970760D01*
X290918Y970722D01*
X290852Y970705D01*
X290615Y970593D01*
X290560Y970551D01*
X290494Y970531D01*
X290264Y970406D01*
X290211Y970362D01*
X290147Y970338D01*
X289924Y970201D01*
X289873Y970155D01*
X289810Y970128D01*
X289594Y969979D01*
X289546Y969930D01*
X289485Y969900D01*
X289277Y969740D01*
X289231Y969689D01*
X289172Y969655D01*
X288972Y969485D01*
X288930Y969431D01*
X288872Y969394D01*
X288682Y969214D01*
X288642Y969158D01*
X288586Y969118D01*
X288406Y968928D01*
X288369Y968870D01*
X288315Y968828D01*
X288145Y968629D01*
X288111Y968568D01*
X288060Y968523D01*
X287900Y968315D01*
X287870Y968254D01*
X287821Y968206D01*
X287672Y967990D01*
X287645Y967927D01*
X287599Y967876D01*
X287462Y967653D01*
X287438Y967589D01*
X287394Y967536D01*
X287269Y967306D01*
X287249Y967240D01*
X287208Y967185D01*
X287095Y966949D01*
X287078Y966882D01*
X287040Y966825D01*
X286940Y966583D01*
X286926Y966515D01*
X286891Y966456D01*
X286803Y966210D01*
X286794Y966142D01*
X286762Y966081D01*
X286687Y965830D01*
X286681Y965761D01*
X286652Y965699D01*
X286591Y965444D01*
X286588Y965376D01*
X286563Y965312D01*
X286515Y965054D01*
X286516Y964985D01*
X286494Y964920D01*
X286460Y964661D01*
X286464Y964592D01*
X286446Y964526D01*
X286425Y964265D01*
X286433Y964197D01*
X286418Y964129D01*
X286411Y963868D01*
X286423Y963800D01*
X286411Y963732D01*
X286418Y963471D01*
X286433Y963403D01*
X286425Y963335D01*
X286446Y963074D01*
X286464Y963008D01*
X286460Y962939D01*
X286494Y962680D01*
X286516Y962615D01*
X286515Y962546D01*
X286563Y962289D01*
X286588Y962225D01*
X286591Y962156D01*
X286652Y961901D01*
X286681Y961839D01*
X286687Y961770D01*
X286762Y961519D01*
X286794Y961459D01*
X286803Y961390D01*
X286891Y961144D01*
X286926Y961085D01*
X286940Y961017D01*
X287040Y960775D01*
X287078Y960718D01*
X287095Y960651D01*
X287208Y960415D01*
X287249Y960360D01*
X287269Y960294D01*
X287394Y960064D01*
X287438Y960011D01*
X287462Y959947D01*
X287599Y959724D01*
X287645Y959673D01*
X287672Y959610D01*
X287821Y959394D01*
X287870Y959346D01*
X287900Y959285D01*
X288060Y959077D01*
X288111Y959032D01*
X288145Y958971D01*
X288315Y958773D01*
X288369Y958730D01*
X288406Y958672D01*
X288586Y958482D01*
X288642Y958442D01*
X288682Y958386D01*
X288872Y958206D01*
X288930Y958169D01*
X288972Y958115D01*
X289172Y957945D01*
X289231Y957911D01*
X289277Y957860D01*
X289485Y957700D01*
X289546Y957670D01*
X289594Y957621D01*
X289810Y957472D01*
X289873Y957445D01*
X289924Y957399D01*
X290147Y957262D01*
X290211Y957238D01*
X290264Y957194D01*
X290494Y957069D01*
X290560Y957049D01*
X290615Y957008D01*
X290851Y956895D01*
X290918Y956878D01*
X290975Y956840D01*
X291217Y956740D01*
X291285Y956726D01*
X291344Y956691D01*
X291590Y956603D01*
X291658Y956594D01*
X291719Y956562D01*
X291970Y956487D01*
X292039Y956481D01*
X292101Y956452D01*
X292356Y956391D01*
X292425Y956388D01*
X292488Y956363D01*
X292746Y956315D01*
X292815Y956316D01*
X292880Y956294D01*
X293139Y956260D01*
X293208Y956264D01*
X293274Y956246D01*
X293535Y956225D01*
X293603Y956233D01*
X293671Y956218D01*
X293932Y956211D01*
X293966Y956217D01*
X294000Y956210D01*
X306000D01*
X306034Y956217D01*
X306068Y956211D01*
X306329Y956218D01*
X306397Y956233D01*
X306465Y956225D01*
X306726Y956246D01*
X306792Y956264D01*
X306861Y956260D01*
X307120Y956294D01*
X307185Y956316D01*
X307254Y956315D01*
X307512Y956363D01*
X307575Y956388D01*
X307644Y956391D01*
X307899Y956452D01*
X307961Y956481D01*
X308030Y956487D01*
X308281Y956562D01*
X308342Y956594D01*
X308410Y956603D01*
X308656Y956691D01*
X308715Y956726D01*
X308783Y956740D01*
X309025Y956840D01*
X309082Y956878D01*
X309149Y956895D01*
X309385Y957008D01*
X309440Y957049D01*
X309506Y957069D01*
X309736Y957194D01*
X309789Y957238D01*
X309853Y957262D01*
X310076Y957399D01*
X310127Y957445D01*
X310190Y957472D01*
X310406Y957621D01*
X310454Y957670D01*
X310515Y957700D01*
X310723Y957860D01*
X310769Y957911D01*
X310828Y957945D01*
X311028Y958115D01*
X311070Y958169D01*
X311128Y958206D01*
X311318Y958386D01*
X311358Y958442D01*
X311414Y958482D01*
X311594Y958672D01*
X311631Y958730D01*
X311685Y958773D01*
X311855Y958971D01*
X311889Y959032D01*
X311940Y959077D01*
X312100Y959285D01*
X312130Y959346D01*
X312179Y959394D01*
X312328Y959610D01*
X312355Y959673D01*
X312402Y959724D01*
X312538Y959947D01*
X312562Y960011D01*
X312606Y960064D01*
X312731Y960294D01*
X312751Y960360D01*
X312792Y960415D01*
X312905Y960651D01*
X312922Y960718D01*
X312960Y960775D01*
X313060Y961017D01*
X313074Y961085D01*
X313109Y961144D01*
X313197Y961390D01*
X313206Y961459D01*
X313238Y961519D01*
X313313Y961770D01*
X313319Y961839D01*
X313348Y961901D01*
X313409Y962156D01*
X313412Y962225D01*
X313437Y962289D01*
X313485Y962546D01*
X313484Y962615D01*
X313506Y962680D01*
X313540Y962939D01*
X313536Y963008D01*
X313554Y963074D01*
X313575Y963335D01*
X313567Y963403D01*
X313582Y963471D01*
X313589Y963732D01*
X313577Y963800D01*
X313589Y963868D01*
X313582Y964129D01*
X313567Y964197D01*
X313575Y964265D01*
X313554Y964526D01*
X313536Y964592D01*
X313540Y964661D01*
X313506Y964920D01*
X313484Y964985D01*
X313485Y965054D01*
X313437Y965312D01*
X313412Y965375D01*
X313409Y965444D01*
X313348Y965699D01*
X313319Y965761D01*
X313313Y965830D01*
X313238Y966081D01*
X313206Y966142D01*
X313197Y966210D01*
X313109Y966456D01*
X313074Y966515D01*
X313060Y966583D01*
X312960Y966825D01*
X312922Y966882D01*
X312905Y966949D01*
X312792Y967185D01*
X312751Y967240D01*
X312731Y967306D01*
X312606Y967536D01*
X312562Y967589D01*
X312538Y967653D01*
X312402Y967876D01*
X312355Y967927D01*
X312328Y967990D01*
X312179Y968206D01*
X312130Y968254D01*
X312100Y968315D01*
X311940Y968523D01*
X311889Y968568D01*
X311855Y968629D01*
X311685Y968828D01*
X311631Y968870D01*
X311594Y968928D01*
X311414Y969118D01*
X311358Y969158D01*
X311318Y969214D01*
X311128Y969394D01*
X311070Y969431D01*
X311028Y969485D01*
X310828Y969655D01*
X310769Y969689D01*
X310723Y969740D01*
X310515Y969900D01*
X310454Y969930D01*
X310406Y969979D01*
X310190Y970128D01*
X310127Y970155D01*
X310076Y970201D01*
X309853Y970338D01*
X309789Y970362D01*
X309736Y970406D01*
X309506Y970531D01*
X309440Y970551D01*
X309385Y970593D01*
X309149Y970705D01*
X309082Y970722D01*
X309025Y970760D01*
X308783Y970861D01*
X308715Y970874D01*
X308656Y970909D01*
X308410Y970996D01*
X308342Y971006D01*
X308281Y971038D01*
X308030Y971113D01*
X307961Y971119D01*
X307899Y971148D01*
X307644Y971209D01*
X307575Y971212D01*
X307512Y971237D01*
X307254Y971285D01*
X307185Y971284D01*
X307120Y971306D01*
X306861Y971340D01*
X306792Y971336D01*
X306726Y971354D01*
X306465Y971375D01*
X306397Y971367D01*
X306329Y971382D01*
X306068Y971389D01*
X306034Y971383D01*
X306000Y971390D01*
D02*
G37*
G36*
X908102Y977510D02*
X905458D01*
X902905Y976826D01*
X900615Y975504D01*
X898746Y973635D01*
X897424Y971345D01*
X896740Y968792D01*
Y966148D01*
X897424Y963595D01*
X898746Y961305D01*
X900615Y959436D01*
X901136Y959135D01*
Y925124D01*
X855966D01*
X855260Y926180D01*
X855670Y927169D01*
Y929571D01*
X854751Y931791D01*
X854004Y932538D01*
Y955010D01*
X845256D01*
Y932538D01*
X844510Y931791D01*
X843967Y930482D01*
X842593D01*
X842050Y931791D01*
X840351Y933491D01*
X838131Y934410D01*
X835729D01*
X833509Y933491D01*
X831809Y931791D01*
X830890Y929571D01*
Y927169D01*
X831809Y924949D01*
X832556Y924202D01*
Y922800D01*
X832889Y921126D01*
X833837Y919707D01*
X835887Y917657D01*
X837306Y916709D01*
X838980Y916376D01*
X903460D01*
X905134Y916709D01*
X906553Y917657D01*
X908603Y919707D01*
X909551Y921126D01*
X909884Y922800D01*
Y957908D01*
X910655Y958114D01*
X912945Y959436D01*
X914814Y961305D01*
X916136Y963595D01*
X916820Y966148D01*
Y968792D01*
X916136Y971345D01*
X914814Y973635D01*
X912945Y975504D01*
X910655Y976826D01*
X908102Y977510D01*
D02*
G37*
G36*
X670560Y927729D02*
X282189D01*
Y904240D01*
X670560D01*
Y927729D01*
D02*
G37*
%LPD*%
G36*
X344622Y1219753D02*
X344883Y1219733D01*
X345142Y1219698D01*
X345400Y1219651D01*
X345654Y1219590D01*
X345905Y1219515D01*
X346152Y1219428D01*
X346394Y1219328D01*
X346630Y1219215D01*
X346860Y1219090D01*
X347083Y1218953D01*
X347299Y1218805D01*
X347507Y1218646D01*
X347706Y1218476D01*
X347896Y1218296D01*
X348076Y1218106D01*
X348246Y1217907D01*
X348405Y1217699D01*
X348553Y1217483D01*
X348690Y1217260D01*
X348815Y1217030D01*
X348928Y1216794D01*
X349028Y1216552D01*
X349115Y1216305D01*
X349190Y1216054D01*
X349251Y1215799D01*
X349298Y1215542D01*
X349333Y1215283D01*
X349353Y1215022D01*
X349360Y1214760D01*
X349353Y1214498D01*
X349333Y1214237D01*
X349298Y1213978D01*
X349251Y1213720D01*
X349190Y1213466D01*
X349115Y1213215D01*
X349028Y1212968D01*
X348928Y1212726D01*
X348815Y1212490D01*
X348690Y1212260D01*
X348553Y1212037D01*
X348405Y1211821D01*
X348246Y1211613D01*
X348076Y1211414D01*
X347896Y1211225D01*
X347706Y1211044D01*
X347507Y1210874D01*
X347299Y1210715D01*
X347083Y1210567D01*
X346860Y1210430D01*
X346630Y1210305D01*
X346394Y1210192D01*
X346152Y1210092D01*
X345905Y1210005D01*
X345654Y1209930D01*
X345400Y1209869D01*
X345142Y1209822D01*
X344883Y1209787D01*
X344622Y1209767D01*
X344360Y1209760D01*
X336360D01*
X336098Y1209767D01*
X335837Y1209787D01*
X335578Y1209822D01*
X335320Y1209869D01*
X335066Y1209930D01*
X334815Y1210005D01*
X334568Y1210092D01*
X334326Y1210192D01*
X334090Y1210305D01*
X333860Y1210430D01*
X333637Y1210567D01*
X333421Y1210715D01*
X333213Y1210874D01*
X333014Y1211044D01*
X332825Y1211225D01*
X332644Y1211414D01*
X332474Y1211613D01*
X332315Y1211821D01*
X332167Y1212037D01*
X332030Y1212260D01*
X331905Y1212490D01*
X331792Y1212726D01*
X331692Y1212968D01*
X331605Y1213215D01*
X331530Y1213466D01*
X331469Y1213720D01*
X331422Y1213978D01*
X331387Y1214237D01*
X331367Y1214498D01*
X331360Y1214760D01*
X331367Y1215022D01*
X331387Y1215283D01*
X331422Y1215542D01*
X331469Y1215799D01*
X331530Y1216054D01*
X331605Y1216305D01*
X331692Y1216552D01*
X331792Y1216794D01*
X331905Y1217030D01*
X332030Y1217260D01*
X332167Y1217483D01*
X332315Y1217699D01*
X332474Y1217907D01*
X332644Y1218106D01*
X332825Y1218296D01*
X333014Y1218476D01*
X333213Y1218646D01*
X333421Y1218805D01*
X333637Y1218953D01*
X333860Y1219090D01*
X334090Y1219215D01*
X334326Y1219328D01*
X334568Y1219428D01*
X334815Y1219515D01*
X335066Y1219590D01*
X335320Y1219651D01*
X335578Y1219698D01*
X335837Y1219733D01*
X336098Y1219753D01*
X336360Y1219760D01*
X344360D01*
X344622Y1219753D01*
D02*
G37*
G36*
X306622D02*
X306883Y1219733D01*
X307142Y1219698D01*
X307400Y1219651D01*
X307654Y1219590D01*
X307905Y1219515D01*
X308152Y1219428D01*
X308394Y1219328D01*
X308630Y1219215D01*
X308860Y1219090D01*
X309083Y1218953D01*
X309299Y1218805D01*
X309507Y1218646D01*
X309706Y1218476D01*
X309895Y1218296D01*
X310076Y1218106D01*
X310246Y1217907D01*
X310405Y1217699D01*
X310553Y1217483D01*
X310690Y1217260D01*
X310815Y1217030D01*
X310928Y1216794D01*
X311028Y1216552D01*
X311115Y1216305D01*
X311190Y1216054D01*
X311251Y1215799D01*
X311298Y1215542D01*
X311333Y1215283D01*
X311353Y1215022D01*
X311360Y1214760D01*
X311353Y1214498D01*
X311333Y1214237D01*
X311298Y1213978D01*
X311251Y1213720D01*
X311190Y1213466D01*
X311115Y1213215D01*
X311028Y1212968D01*
X310928Y1212726D01*
X310815Y1212490D01*
X310690Y1212260D01*
X310553Y1212037D01*
X310405Y1211821D01*
X310246Y1211613D01*
X310076Y1211414D01*
X309895Y1211225D01*
X309706Y1211044D01*
X309507Y1210874D01*
X309299Y1210715D01*
X309083Y1210567D01*
X308860Y1210430D01*
X308630Y1210305D01*
X308394Y1210192D01*
X308152Y1210092D01*
X307905Y1210005D01*
X307654Y1209930D01*
X307400Y1209869D01*
X307142Y1209822D01*
X306883Y1209787D01*
X306622Y1209767D01*
X306360Y1209760D01*
X294360D01*
X294098Y1209767D01*
X293837Y1209787D01*
X293578Y1209822D01*
X293320Y1209869D01*
X293066Y1209930D01*
X292815Y1210005D01*
X292568Y1210092D01*
X292326Y1210192D01*
X292090Y1210305D01*
X291860Y1210430D01*
X291637Y1210567D01*
X291421Y1210715D01*
X291213Y1210874D01*
X291014Y1211044D01*
X290825Y1211225D01*
X290644Y1211414D01*
X290474Y1211613D01*
X290315Y1211821D01*
X290167Y1212037D01*
X290030Y1212260D01*
X289905Y1212490D01*
X289792Y1212726D01*
X289692Y1212968D01*
X289605Y1213215D01*
X289530Y1213466D01*
X289469Y1213720D01*
X289422Y1213978D01*
X289387Y1214237D01*
X289367Y1214498D01*
X289360Y1214760D01*
X289367Y1215022D01*
X289387Y1215283D01*
X289422Y1215542D01*
X289469Y1215799D01*
X289530Y1216054D01*
X289605Y1216305D01*
X289692Y1216552D01*
X289792Y1216794D01*
X289905Y1217030D01*
X290030Y1217260D01*
X290167Y1217483D01*
X290315Y1217699D01*
X290474Y1217907D01*
X290644Y1218106D01*
X290825Y1218296D01*
X291014Y1218476D01*
X291213Y1218646D01*
X291421Y1218805D01*
X291637Y1218953D01*
X291860Y1219090D01*
X292090Y1219215D01*
X292326Y1219328D01*
X292568Y1219428D01*
X292815Y1219515D01*
X293066Y1219590D01*
X293320Y1219651D01*
X293578Y1219698D01*
X293837Y1219733D01*
X294098Y1219753D01*
X294360Y1219760D01*
X306360D01*
X306622Y1219753D01*
D02*
G37*
G36*
X819856Y1251678D02*
Y1244958D01*
X819109Y1244211D01*
X818567Y1242902D01*
X817193D01*
X816650Y1244211D01*
X815904Y1244958D01*
Y1248410D01*
X815571Y1250084D01*
X814623Y1251503D01*
X810813Y1255313D01*
X809394Y1256261D01*
X807720Y1256594D01*
X643890D01*
X642216Y1256261D01*
X640797Y1255313D01*
X620227Y1234743D01*
X619054Y1235229D01*
Y1237708D01*
X639352Y1258006D01*
X813528D01*
X819856Y1251678D01*
D02*
G37*
G36*
X797015Y1246576D02*
X795409Y1245910D01*
X794662Y1245164D01*
X648970D01*
X647296Y1244831D01*
X645877Y1243883D01*
X626674Y1224680D01*
X625404Y1225206D01*
Y1227548D01*
X645702Y1247846D01*
X796763D01*
X797015Y1246576D01*
D02*
G37*
G36*
X567387Y1231433D02*
X562057Y1226103D01*
X561109Y1224684D01*
X560776Y1223010D01*
Y1205772D01*
X555718Y1200714D01*
X547912D01*
X541980Y1206646D01*
Y1207701D01*
X541712Y1208348D01*
X542672Y1209350D01*
X544761D01*
X546981Y1210269D01*
X548680Y1211969D01*
X549600Y1214189D01*
Y1216591D01*
X548680Y1218811D01*
X546981Y1220510D01*
X544761Y1221430D01*
X543706D01*
X533953Y1231183D01*
X533724Y1231336D01*
X534109Y1232606D01*
X566901D01*
X567387Y1231433D01*
D02*
G37*
G36*
X587446Y1204625D02*
Y1195070D01*
X587779Y1193396D01*
X588727Y1191977D01*
X597617Y1183087D01*
X599036Y1182139D01*
X600710Y1181806D01*
X604162D01*
X604909Y1181059D01*
X607129Y1180140D01*
X608278D01*
X608804Y1178870D01*
X607777Y1177843D01*
X606829Y1176424D01*
X606496Y1174750D01*
Y1165379D01*
X605323Y1164893D01*
X582224Y1187992D01*
Y1203418D01*
X583076Y1204270D01*
X584131D01*
X586176Y1205117D01*
X587446Y1204625D01*
D02*
G37*
G36*
X606656Y1126259D02*
X606829Y1126225D01*
X607197Y1125009D01*
X607020Y1124831D01*
X606100Y1122611D01*
Y1120209D01*
X607020Y1117989D01*
X608719Y1116290D01*
X610939Y1115370D01*
X613201D01*
X616480Y1112091D01*
Y1110346D01*
X604987Y1098853D01*
X603814Y1099339D01*
Y1124862D01*
X604561Y1125609D01*
X604730Y1126018D01*
X606302Y1126495D01*
X606656Y1126259D01*
D02*
G37*
G36*
X1133000Y1035210D02*
X1133000D01*
Y1034890D01*
X1133000D01*
Y1026729D01*
X1121410D01*
X1121410Y1026729D01*
X1119248Y1026299D01*
X1117416Y1025074D01*
X1117416Y1025074D01*
X1112336Y1019994D01*
X1111111Y1018162D01*
X1110681Y1016000D01*
X1110682Y1016000D01*
Y945950D01*
X1098188Y933456D01*
X1098148Y933466D01*
X1097985Y933721D01*
X1097792Y934864D01*
X1107624Y944696D01*
X1107624Y944696D01*
X1108849Y946528D01*
X1109278Y948690D01*
Y1028900D01*
X1121210Y1040832D01*
X1133000D01*
Y1035210D01*
D02*
G37*
G36*
X1000196Y952858D02*
X999449Y952111D01*
X998530Y949891D01*
Y947489D01*
X999375Y945449D01*
X998880Y944178D01*
X991870D01*
X991703Y944145D01*
X983549Y952300D01*
Y1002030D01*
X983549Y1002030D01*
X983119Y1004192D01*
X981894Y1006024D01*
X981894Y1006024D01*
X972510Y1015408D01*
Y1015931D01*
X971590Y1018151D01*
X969891Y1019850D01*
X967671Y1020770D01*
X967148D01*
X952684Y1035234D01*
X951903Y1035756D01*
X952288Y1037026D01*
X1000196D01*
Y952858D01*
D02*
G37*
G36*
X344622Y1107353D02*
X344883Y1107333D01*
X345142Y1107298D01*
X345400Y1107251D01*
X345654Y1107190D01*
X345905Y1107115D01*
X346152Y1107028D01*
X346394Y1106928D01*
X346630Y1106815D01*
X346860Y1106690D01*
X347083Y1106553D01*
X347299Y1106405D01*
X347507Y1106246D01*
X347706Y1106076D01*
X347896Y1105895D01*
X348076Y1105706D01*
X348246Y1105507D01*
X348405Y1105299D01*
X348553Y1105083D01*
X348690Y1104860D01*
X348815Y1104630D01*
X348928Y1104394D01*
X349028Y1104152D01*
X349115Y1103905D01*
X349190Y1103654D01*
X349251Y1103400D01*
X349298Y1103142D01*
X349333Y1102883D01*
X349353Y1102622D01*
X349360Y1102360D01*
X349353Y1102098D01*
X349333Y1101837D01*
X349298Y1101578D01*
X349251Y1101320D01*
X349190Y1101066D01*
X349115Y1100815D01*
X349028Y1100568D01*
X348928Y1100326D01*
X348815Y1100090D01*
X348690Y1099860D01*
X348553Y1099637D01*
X348405Y1099421D01*
X348246Y1099213D01*
X348076Y1099014D01*
X347896Y1098824D01*
X347706Y1098644D01*
X347507Y1098474D01*
X347299Y1098315D01*
X347083Y1098167D01*
X346860Y1098030D01*
X346630Y1097905D01*
X346394Y1097792D01*
X346152Y1097692D01*
X345905Y1097605D01*
X345654Y1097530D01*
X345400Y1097469D01*
X345142Y1097422D01*
X344883Y1097387D01*
X344622Y1097367D01*
X344360Y1097360D01*
X336360D01*
X336098Y1097367D01*
X335837Y1097387D01*
X335578Y1097422D01*
X335320Y1097469D01*
X335066Y1097530D01*
X334815Y1097605D01*
X334568Y1097692D01*
X334326Y1097792D01*
X334090Y1097905D01*
X333860Y1098030D01*
X333637Y1098167D01*
X333421Y1098315D01*
X333213Y1098474D01*
X333014Y1098644D01*
X332825Y1098824D01*
X332644Y1099014D01*
X332474Y1099213D01*
X332315Y1099421D01*
X332167Y1099637D01*
X332030Y1099860D01*
X331905Y1100090D01*
X331792Y1100326D01*
X331692Y1100568D01*
X331605Y1100815D01*
X331530Y1101066D01*
X331469Y1101320D01*
X331422Y1101578D01*
X331387Y1101837D01*
X331367Y1102098D01*
X331360Y1102360D01*
X331367Y1102622D01*
X331387Y1102883D01*
X331422Y1103142D01*
X331469Y1103400D01*
X331530Y1103654D01*
X331605Y1103905D01*
X331692Y1104152D01*
X331792Y1104394D01*
X331905Y1104630D01*
X332030Y1104860D01*
X332167Y1105083D01*
X332315Y1105299D01*
X332474Y1105507D01*
X332644Y1105706D01*
X332825Y1105895D01*
X333014Y1106076D01*
X333213Y1106246D01*
X333421Y1106405D01*
X333637Y1106553D01*
X333860Y1106690D01*
X334090Y1106815D01*
X334326Y1106928D01*
X334568Y1107028D01*
X334815Y1107115D01*
X335066Y1107190D01*
X335320Y1107251D01*
X335578Y1107298D01*
X335837Y1107333D01*
X336098Y1107353D01*
X336360Y1107360D01*
X344360D01*
X344622Y1107353D01*
D02*
G37*
G36*
X306622D02*
X306883Y1107333D01*
X307142Y1107298D01*
X307400Y1107251D01*
X307654Y1107190D01*
X307905Y1107115D01*
X308152Y1107028D01*
X308394Y1106928D01*
X308630Y1106815D01*
X308860Y1106690D01*
X309083Y1106553D01*
X309299Y1106405D01*
X309507Y1106246D01*
X309706Y1106076D01*
X309895Y1105895D01*
X310076Y1105706D01*
X310246Y1105507D01*
X310405Y1105299D01*
X310553Y1105083D01*
X310690Y1104860D01*
X310815Y1104630D01*
X310928Y1104394D01*
X311028Y1104152D01*
X311115Y1103905D01*
X311190Y1103654D01*
X311251Y1103400D01*
X311298Y1103142D01*
X311333Y1102883D01*
X311353Y1102622D01*
X311360Y1102360D01*
X311353Y1102098D01*
X311333Y1101837D01*
X311298Y1101578D01*
X311251Y1101320D01*
X311190Y1101066D01*
X311115Y1100815D01*
X311028Y1100568D01*
X310928Y1100326D01*
X310815Y1100090D01*
X310690Y1099860D01*
X310553Y1099637D01*
X310405Y1099421D01*
X310246Y1099213D01*
X310076Y1099014D01*
X309895Y1098824D01*
X309706Y1098644D01*
X309507Y1098474D01*
X309299Y1098315D01*
X309083Y1098167D01*
X308860Y1098030D01*
X308630Y1097905D01*
X308394Y1097792D01*
X308152Y1097692D01*
X307905Y1097605D01*
X307654Y1097530D01*
X307400Y1097469D01*
X307142Y1097422D01*
X306883Y1097387D01*
X306622Y1097367D01*
X306360Y1097360D01*
X294360D01*
X294098Y1097367D01*
X293837Y1097387D01*
X293578Y1097422D01*
X293320Y1097469D01*
X293066Y1097530D01*
X292815Y1097605D01*
X292568Y1097692D01*
X292326Y1097792D01*
X292090Y1097905D01*
X291860Y1098030D01*
X291637Y1098167D01*
X291421Y1098315D01*
X291213Y1098474D01*
X291014Y1098644D01*
X290825Y1098824D01*
X290644Y1099014D01*
X290474Y1099213D01*
X290315Y1099421D01*
X290167Y1099637D01*
X290030Y1099860D01*
X289905Y1100090D01*
X289792Y1100326D01*
X289692Y1100568D01*
X289605Y1100815D01*
X289530Y1101066D01*
X289469Y1101320D01*
X289422Y1101578D01*
X289387Y1101837D01*
X289367Y1102098D01*
X289360Y1102360D01*
X289367Y1102622D01*
X289387Y1102883D01*
X289422Y1103142D01*
X289469Y1103400D01*
X289530Y1103654D01*
X289605Y1103905D01*
X289692Y1104152D01*
X289792Y1104394D01*
X289905Y1104630D01*
X290030Y1104860D01*
X290167Y1105083D01*
X290315Y1105299D01*
X290474Y1105507D01*
X290644Y1105706D01*
X290825Y1105895D01*
X291014Y1106076D01*
X291213Y1106246D01*
X291421Y1106405D01*
X291637Y1106553D01*
X291860Y1106690D01*
X292090Y1106815D01*
X292326Y1106928D01*
X292568Y1107028D01*
X292815Y1107115D01*
X293066Y1107190D01*
X293320Y1107251D01*
X293578Y1107298D01*
X293837Y1107333D01*
X294098Y1107353D01*
X294360Y1107360D01*
X306360D01*
X306622Y1107353D01*
D02*
G37*
G36*
X344262Y1081193D02*
X344523Y1081173D01*
X344782Y1081138D01*
X345040Y1081091D01*
X345294Y1081030D01*
X345545Y1080955D01*
X345792Y1080868D01*
X346034Y1080768D01*
X346270Y1080655D01*
X346500Y1080530D01*
X346723Y1080393D01*
X346939Y1080245D01*
X347147Y1080086D01*
X347346Y1079916D01*
X347536Y1079735D01*
X347716Y1079546D01*
X347886Y1079347D01*
X348045Y1079139D01*
X348193Y1078923D01*
X348330Y1078700D01*
X348455Y1078470D01*
X348568Y1078234D01*
X348668Y1077992D01*
X348755Y1077745D01*
X348830Y1077494D01*
X348891Y1077240D01*
X348938Y1076982D01*
X348973Y1076723D01*
X348993Y1076462D01*
X349000Y1076200D01*
X348993Y1075938D01*
X348973Y1075677D01*
X348938Y1075418D01*
X348891Y1075160D01*
X348830Y1074906D01*
X348755Y1074655D01*
X348668Y1074408D01*
X348568Y1074166D01*
X348455Y1073930D01*
X348330Y1073700D01*
X348193Y1073477D01*
X348045Y1073261D01*
X347886Y1073053D01*
X347716Y1072854D01*
X347536Y1072664D01*
X347346Y1072484D01*
X347147Y1072314D01*
X346939Y1072155D01*
X346723Y1072007D01*
X346500Y1071870D01*
X346270Y1071745D01*
X346034Y1071632D01*
X345792Y1071532D01*
X345545Y1071445D01*
X345294Y1071370D01*
X345040Y1071309D01*
X344782Y1071262D01*
X344523Y1071227D01*
X344262Y1071207D01*
X344000Y1071200D01*
X336000D01*
X335738Y1071207D01*
X335477Y1071227D01*
X335218Y1071262D01*
X334960Y1071309D01*
X334706Y1071370D01*
X334455Y1071445D01*
X334208Y1071532D01*
X333966Y1071632D01*
X333730Y1071745D01*
X333500Y1071870D01*
X333277Y1072007D01*
X333061Y1072155D01*
X332853Y1072314D01*
X332654Y1072484D01*
X332464Y1072664D01*
X332284Y1072854D01*
X332114Y1073053D01*
X331955Y1073261D01*
X331807Y1073477D01*
X331670Y1073700D01*
X331545Y1073930D01*
X331432Y1074166D01*
X331332Y1074408D01*
X331245Y1074655D01*
X331170Y1074906D01*
X331109Y1075160D01*
X331062Y1075418D01*
X331027Y1075677D01*
X331007Y1075938D01*
X331000Y1076200D01*
X331007Y1076462D01*
X331027Y1076723D01*
X331062Y1076982D01*
X331109Y1077240D01*
X331170Y1077494D01*
X331245Y1077745D01*
X331332Y1077992D01*
X331432Y1078234D01*
X331545Y1078470D01*
X331670Y1078700D01*
X331807Y1078923D01*
X331955Y1079139D01*
X332114Y1079347D01*
X332284Y1079546D01*
X332464Y1079735D01*
X332654Y1079916D01*
X332853Y1080086D01*
X333061Y1080245D01*
X333277Y1080393D01*
X333500Y1080530D01*
X333730Y1080655D01*
X333966Y1080768D01*
X334208Y1080868D01*
X334455Y1080955D01*
X334706Y1081030D01*
X334960Y1081091D01*
X335218Y1081138D01*
X335477Y1081173D01*
X335738Y1081193D01*
X336000Y1081200D01*
X344000D01*
X344262Y1081193D01*
D02*
G37*
G36*
X306262D02*
X306523Y1081173D01*
X306782Y1081138D01*
X307040Y1081091D01*
X307294Y1081030D01*
X307545Y1080955D01*
X307792Y1080868D01*
X308034Y1080768D01*
X308270Y1080655D01*
X308500Y1080530D01*
X308723Y1080393D01*
X308939Y1080245D01*
X309147Y1080086D01*
X309346Y1079916D01*
X309536Y1079735D01*
X309716Y1079546D01*
X309886Y1079347D01*
X310045Y1079139D01*
X310193Y1078923D01*
X310330Y1078700D01*
X310455Y1078470D01*
X310568Y1078234D01*
X310668Y1077992D01*
X310755Y1077745D01*
X310830Y1077494D01*
X310891Y1077240D01*
X310938Y1076982D01*
X310973Y1076723D01*
X310993Y1076462D01*
X311000Y1076200D01*
X310993Y1075938D01*
X310973Y1075677D01*
X310938Y1075418D01*
X310891Y1075160D01*
X310830Y1074906D01*
X310755Y1074655D01*
X310668Y1074408D01*
X310568Y1074166D01*
X310455Y1073930D01*
X310330Y1073700D01*
X310193Y1073477D01*
X310045Y1073261D01*
X309886Y1073053D01*
X309716Y1072854D01*
X309536Y1072664D01*
X309346Y1072484D01*
X309147Y1072314D01*
X308939Y1072155D01*
X308723Y1072007D01*
X308500Y1071870D01*
X308270Y1071745D01*
X308034Y1071632D01*
X307792Y1071532D01*
X307545Y1071445D01*
X307294Y1071370D01*
X307040Y1071309D01*
X306782Y1071262D01*
X306523Y1071227D01*
X306262Y1071207D01*
X306000Y1071200D01*
X294000D01*
X293738Y1071207D01*
X293477Y1071227D01*
X293218Y1071262D01*
X292960Y1071309D01*
X292706Y1071370D01*
X292455Y1071445D01*
X292208Y1071532D01*
X291966Y1071632D01*
X291730Y1071745D01*
X291500Y1071870D01*
X291277Y1072007D01*
X291061Y1072155D01*
X290853Y1072314D01*
X290654Y1072484D01*
X290464Y1072664D01*
X290284Y1072854D01*
X290114Y1073053D01*
X289955Y1073261D01*
X289807Y1073477D01*
X289670Y1073700D01*
X289545Y1073930D01*
X289432Y1074166D01*
X289332Y1074408D01*
X289245Y1074655D01*
X289170Y1074906D01*
X289109Y1075160D01*
X289062Y1075418D01*
X289027Y1075677D01*
X289007Y1075938D01*
X289000Y1076200D01*
X289007Y1076462D01*
X289027Y1076723D01*
X289062Y1076982D01*
X289109Y1077240D01*
X289170Y1077494D01*
X289245Y1077745D01*
X289332Y1077992D01*
X289432Y1078234D01*
X289545Y1078470D01*
X289670Y1078700D01*
X289807Y1078923D01*
X289955Y1079139D01*
X290114Y1079347D01*
X290284Y1079546D01*
X290464Y1079735D01*
X290654Y1079916D01*
X290853Y1080086D01*
X291061Y1080245D01*
X291277Y1080393D01*
X291500Y1080530D01*
X291730Y1080655D01*
X291966Y1080768D01*
X292208Y1080868D01*
X292455Y1080955D01*
X292706Y1081030D01*
X292960Y1081091D01*
X293218Y1081138D01*
X293477Y1081173D01*
X293738Y1081193D01*
X294000Y1081200D01*
X306000D01*
X306262Y1081193D01*
D02*
G37*
G36*
X344262Y968793D02*
X344523Y968773D01*
X344782Y968738D01*
X345040Y968691D01*
X345294Y968630D01*
X345545Y968555D01*
X345792Y968468D01*
X346034Y968368D01*
X346270Y968255D01*
X346500Y968130D01*
X346723Y967993D01*
X346939Y967845D01*
X347147Y967686D01*
X347346Y967516D01*
X347536Y967336D01*
X347716Y967146D01*
X347886Y966947D01*
X348045Y966739D01*
X348193Y966523D01*
X348330Y966300D01*
X348455Y966070D01*
X348568Y965834D01*
X348668Y965592D01*
X348755Y965345D01*
X348830Y965094D01*
X348891Y964839D01*
X348938Y964582D01*
X348973Y964323D01*
X348993Y964062D01*
X349000Y963800D01*
X348993Y963538D01*
X348973Y963277D01*
X348938Y963018D01*
X348891Y962760D01*
X348830Y962506D01*
X348755Y962255D01*
X348668Y962008D01*
X348568Y961766D01*
X348455Y961530D01*
X348330Y961300D01*
X348193Y961077D01*
X348045Y960861D01*
X347886Y960653D01*
X347716Y960454D01*
X347536Y960264D01*
X347346Y960084D01*
X347147Y959914D01*
X346939Y959755D01*
X346723Y959607D01*
X346500Y959470D01*
X346270Y959345D01*
X346034Y959232D01*
X345792Y959132D01*
X345545Y959045D01*
X345294Y958970D01*
X345040Y958909D01*
X344782Y958862D01*
X344523Y958827D01*
X344262Y958807D01*
X344000Y958800D01*
X336000D01*
X335738Y958807D01*
X335477Y958827D01*
X335218Y958862D01*
X334960Y958909D01*
X334706Y958970D01*
X334455Y959045D01*
X334208Y959132D01*
X333966Y959232D01*
X333730Y959345D01*
X333500Y959470D01*
X333277Y959607D01*
X333061Y959755D01*
X332853Y959914D01*
X332654Y960084D01*
X332464Y960264D01*
X332284Y960454D01*
X332114Y960653D01*
X331955Y960861D01*
X331807Y961077D01*
X331670Y961300D01*
X331545Y961530D01*
X331432Y961766D01*
X331332Y962008D01*
X331245Y962255D01*
X331170Y962506D01*
X331109Y962760D01*
X331062Y963018D01*
X331027Y963277D01*
X331007Y963538D01*
X331000Y963800D01*
X331007Y964062D01*
X331027Y964323D01*
X331062Y964582D01*
X331109Y964839D01*
X331170Y965094D01*
X331245Y965345D01*
X331332Y965592D01*
X331432Y965834D01*
X331545Y966070D01*
X331670Y966300D01*
X331807Y966523D01*
X331955Y966739D01*
X332114Y966947D01*
X332284Y967146D01*
X332464Y967336D01*
X332654Y967516D01*
X332853Y967686D01*
X333061Y967845D01*
X333277Y967993D01*
X333500Y968130D01*
X333730Y968255D01*
X333966Y968368D01*
X334208Y968468D01*
X334455Y968555D01*
X334706Y968630D01*
X334960Y968691D01*
X335218Y968738D01*
X335477Y968773D01*
X335738Y968793D01*
X336000Y968800D01*
X344000D01*
X344262Y968793D01*
D02*
G37*
G36*
X306262D02*
X306523Y968773D01*
X306782Y968738D01*
X307040Y968691D01*
X307294Y968630D01*
X307545Y968555D01*
X307792Y968468D01*
X308034Y968368D01*
X308270Y968255D01*
X308500Y968130D01*
X308723Y967993D01*
X308939Y967845D01*
X309147Y967686D01*
X309346Y967516D01*
X309536Y967336D01*
X309716Y967146D01*
X309886Y966947D01*
X310045Y966739D01*
X310193Y966523D01*
X310330Y966300D01*
X310455Y966070D01*
X310568Y965834D01*
X310668Y965592D01*
X310755Y965345D01*
X310830Y965094D01*
X310891Y964839D01*
X310938Y964582D01*
X310973Y964323D01*
X310993Y964062D01*
X311000Y963800D01*
X310993Y963538D01*
X310973Y963277D01*
X310938Y963018D01*
X310891Y962760D01*
X310830Y962506D01*
X310755Y962255D01*
X310668Y962008D01*
X310568Y961766D01*
X310455Y961530D01*
X310330Y961300D01*
X310193Y961077D01*
X310045Y960861D01*
X309886Y960653D01*
X309716Y960454D01*
X309536Y960264D01*
X309346Y960084D01*
X309147Y959914D01*
X308939Y959755D01*
X308723Y959607D01*
X308500Y959470D01*
X308270Y959345D01*
X308034Y959232D01*
X307792Y959132D01*
X307545Y959045D01*
X307294Y958970D01*
X307040Y958909D01*
X306782Y958862D01*
X306523Y958827D01*
X306262Y958807D01*
X306000Y958800D01*
X294000D01*
X293738Y958807D01*
X293477Y958827D01*
X293218Y958862D01*
X292960Y958909D01*
X292706Y958970D01*
X292455Y959045D01*
X292208Y959132D01*
X291966Y959232D01*
X291730Y959345D01*
X291500Y959470D01*
X291277Y959607D01*
X291061Y959755D01*
X290853Y959914D01*
X290654Y960084D01*
X290464Y960264D01*
X290284Y960454D01*
X290114Y960653D01*
X289955Y960861D01*
X289807Y961077D01*
X289670Y961300D01*
X289545Y961530D01*
X289432Y961766D01*
X289332Y962008D01*
X289245Y962255D01*
X289170Y962506D01*
X289109Y962760D01*
X289062Y963018D01*
X289027Y963277D01*
X289007Y963538D01*
X289000Y963800D01*
X289007Y964062D01*
X289027Y964323D01*
X289062Y964582D01*
X289109Y964839D01*
X289170Y965094D01*
X289245Y965345D01*
X289332Y965592D01*
X289432Y965834D01*
X289545Y966070D01*
X289670Y966300D01*
X289807Y966523D01*
X289955Y966739D01*
X290114Y966947D01*
X290284Y967146D01*
X290464Y967336D01*
X290654Y967516D01*
X290853Y967686D01*
X291061Y967845D01*
X291277Y967993D01*
X291500Y968130D01*
X291730Y968255D01*
X291966Y968368D01*
X292208Y968468D01*
X292455Y968555D01*
X292706Y968630D01*
X292960Y968691D01*
X293218Y968738D01*
X293477Y968773D01*
X293738Y968793D01*
X294000Y968800D01*
X306000D01*
X306262Y968793D01*
D02*
G37*
D10*
X574437Y1110788D02*
G03*
X574437Y1110788I-1000J0D01*
G01*
X364500Y1052700D02*
G03*
X364500Y1052700I-1000J0D01*
G01*
X364860Y1191260D02*
G03*
X364860Y1191260I-1000J0D01*
G01*
X977220Y950870D02*
G03*
X977220Y950870I-1000J0D01*
G01*
X711660Y1068790D02*
G03*
X711660Y1068790I-2000J0D01*
G01*
X585837Y1215102D02*
G03*
X585837Y1215102I-1000J0D01*
G01*
X711660Y1170390D02*
G03*
X711660Y1170390I-2000J0D01*
G01*
X979760Y1126130D02*
G03*
X979760Y1126130I-1000J0D01*
G01*
X672830Y935220D02*
G03*
X672830Y935220I-1000J0D01*
G01*
X551990Y969620D02*
G03*
X551990Y969620I-1000J0D01*
G01*
D11*
X908473Y1048622D02*
G03*
X883478Y1025313I-843J-24152D01*
G01*
Y958427D02*
G03*
X908473Y935118I24152J843D01*
G01*
X908462Y935118D02*
G03*
X930082Y958302I-782J22402D01*
G01*
Y1025438D02*
G03*
X908462Y1048622I-22402J782D01*
G01*
X908473Y1223612D02*
G03*
X883478Y1200303I-843J-24152D01*
G01*
Y1133417D02*
G03*
X908473Y1110108I24152J843D01*
G01*
X908462Y1110108D02*
G03*
X930082Y1133292I-782J22402D01*
G01*
Y1200428D02*
G03*
X908462Y1223612I-22402J782D01*
G01*
X558800Y1111283D02*
X608298Y1160780D01*
X509302D02*
X558800Y1210277D01*
X509302Y1160780D02*
X558800Y1111283D01*
Y1210277D02*
X608298Y1160780D01*
X883480Y958370D02*
Y1025370D01*
X930080Y958370D02*
Y1025370D01*
X1107440Y941100D02*
Y1040100D01*
X1056640D02*
X1107440D01*
X1056640Y941100D02*
Y1040100D01*
Y941100D02*
X1107440D01*
X973720Y1011370D02*
X1022720D01*
X973720Y972370D02*
X1022720D01*
Y1011370D01*
X973720Y972370D02*
Y1011370D01*
X691160Y1143790D02*
X726160D01*
X691160Y1083790D02*
X726160D01*
X691160D02*
Y1143790D01*
X726160Y1083790D02*
Y1143790D01*
X586959Y1224294D02*
X609586Y1246921D01*
X586959Y1224294D02*
X622314Y1188939D01*
X644941Y1211566D01*
X609586Y1246921D02*
X644941Y1211566D01*
X691160Y1245390D02*
X726160D01*
X691160Y1185390D02*
X726160D01*
X691160D02*
Y1245390D01*
X726160Y1185390D02*
Y1245390D01*
X883480Y1133360D02*
Y1200360D01*
X930080Y1133360D02*
Y1200360D01*
X976260Y1186630D02*
X1025260D01*
X976260Y1147630D02*
X1025260D01*
Y1186630D01*
X976260Y1147630D02*
Y1186630D01*
X1107440Y1117630D02*
Y1216630D01*
X1056640D02*
X1107440D01*
X1056640Y1117630D02*
Y1216630D01*
Y1117630D02*
X1107440D01*
X619830Y946220D02*
X723830D01*
Y1050220D01*
X619830D02*
X723830D01*
X619830Y946220D02*
Y1050220D01*
X565540Y945120D02*
X582540D01*
X565540Y975120D02*
X582540D01*
Y945120D02*
Y975120D01*
X565540Y945120D02*
Y975120D01*
D13*
X349999Y1062956D02*
G03*
X345994Y1066199I-3624J-381D01*
G01*
X347187Y1059699D02*
G03*
X350001Y1062937I-212J3026D01*
G01*
X347208Y1059701D02*
G03*
X345999Y1058208I142J-1351D01*
G01*
Y981792D02*
G03*
X347208Y980299I1351J-142D01*
G01*
X350001Y977063D02*
G03*
X347187Y980301I-3026J212D01*
G01*
X345994Y973801D02*
G03*
X349999Y977044I381J3624D01*
G01*
X350359Y1201516D02*
G03*
X346354Y1204759I-3624J-381D01*
G01*
X347547Y1198259D02*
G03*
X350361Y1201497I-212J3026D01*
G01*
X347568Y1198261D02*
G03*
X346359Y1196768I142J-1351D01*
G01*
Y1120352D02*
G03*
X347568Y1118859I1351J-142D01*
G01*
X350361Y1115623D02*
G03*
X347547Y1118861I-3026J212D01*
G01*
X346354Y1112361D02*
G03*
X350359Y1115604I381J3624D01*
G01*
X284000Y1066200D02*
Y1085200D01*
Y1066200D02*
X346000D01*
Y981800D02*
Y1058200D01*
X284000Y973800D02*
X346000D01*
X284000Y956400D02*
Y973800D01*
X284360Y1204760D02*
Y1223760D01*
Y1204760D02*
X346360D01*
Y1120360D02*
Y1196760D01*
X284360Y1112360D02*
X346360D01*
X284360Y1094960D02*
Y1112360D01*
D14*
X904139Y1051861D02*
G03*
X880989Y1025229I1741J-24891D01*
G01*
Y958511D02*
G03*
X904139Y931879I24891J-1741D01*
G01*
X909420D02*
G03*
X932571Y958511I-1741J24891D01*
G01*
Y1025229D02*
G03*
X909420Y1051861I-24891J1741D01*
G01*
X904139Y1226851D02*
G03*
X880989Y1200219I1741J-24891D01*
G01*
Y1133501D02*
G03*
X904139Y1106869I24891J-1741D01*
G01*
X909420D02*
G03*
X932571Y1133501I-1741J24891D01*
G01*
Y1200219D02*
G03*
X909420Y1226851I-24891J1741D01*
G01*
X500605Y1160780D02*
X558800Y1218975D01*
Y1102585D02*
X616995Y1160780D01*
X500605D02*
X558800Y1102585D01*
Y1218975D02*
X616995Y1160780D01*
X276500Y1083700D02*
X359500D01*
X276500Y956300D02*
Y1083700D01*
X359500Y956300D02*
Y1083700D01*
X276500Y956300D02*
X359500D01*
X276860Y1222260D02*
X359860D01*
X276860Y1094860D02*
Y1222260D01*
X359860Y1094860D02*
Y1222260D01*
X276860Y1094860D02*
X359860D01*
X880980Y958370D02*
Y1025370D01*
X904280Y931870D02*
X909280D01*
X932580Y958370D02*
Y1025370D01*
X904280Y1051870D02*
X909280D01*
X1109940Y938600D02*
Y1042600D01*
X1054140D02*
X1109940D01*
X1054140Y938600D02*
Y1042600D01*
Y938600D02*
X1109940D01*
X971220Y1028970D02*
X1025220D01*
X971220Y954770D02*
X1025220D01*
Y1028970D01*
X971220Y954770D02*
Y1028970D01*
X688660Y1073290D02*
Y1154290D01*
X728660D01*
Y1073290D02*
Y1154290D01*
X688660Y1073290D02*
X728660D01*
X579180Y1225708D02*
X608172Y1254699D01*
X579180Y1225708D02*
X623728Y1181161D01*
X652719Y1210152D01*
X608172Y1254699D02*
X652719Y1210152D01*
X688660Y1174890D02*
Y1255890D01*
X728660D01*
Y1174890D02*
Y1255890D01*
X688660Y1174890D02*
X728660D01*
X880980Y1133360D02*
Y1200360D01*
X904280Y1106860D02*
X909280D01*
X932580Y1133360D02*
Y1200360D01*
X904280Y1226860D02*
X909280D01*
X973760Y1204230D02*
X1027760D01*
X973760Y1130030D02*
X1027760D01*
Y1204230D01*
X973760Y1130030D02*
Y1204230D01*
X1109940Y1115130D02*
Y1219130D01*
X1054140D02*
X1109940D01*
X1054140Y1115130D02*
Y1219130D01*
Y1115130D02*
X1109940D01*
X617330Y942220D02*
X726330D01*
Y1054220D01*
X617330D02*
X726330D01*
X617330Y942220D02*
Y1054220D01*
X552990Y942620D02*
X595090D01*
Y977620D01*
X552990D02*
X595090D01*
X552990Y942620D02*
Y977620D01*
D15*
X665480Y912652D02*
Y922649D01*
X660482D01*
X658816Y920983D01*
Y917651D01*
X660482Y915984D01*
X665480D01*
X655483Y919317D02*
Y912652D01*
Y915984D01*
X653817Y917651D01*
X652151Y919317D01*
X650485D01*
X643820Y912652D02*
X640488D01*
X638822Y914318D01*
Y917651D01*
X640488Y919317D01*
X643820D01*
X645486Y917651D01*
Y914318D01*
X643820Y912652D01*
X635490Y909320D02*
X633824D01*
X632157Y910986D01*
Y919317D01*
X620494Y912652D02*
X623827D01*
X625493Y914318D01*
Y917651D01*
X623827Y919317D01*
X620494D01*
X618828Y917651D01*
Y915984D01*
X625493D01*
X608832Y919317D02*
X613830D01*
X615496Y917651D01*
Y914318D01*
X613830Y912652D01*
X608832D01*
X603833Y920983D02*
Y919317D01*
X605499D01*
X602167D01*
X603833D01*
Y914318D01*
X602167Y912652D01*
X587172D02*
Y919317D01*
X583840Y922649D01*
X580507Y919317D01*
Y912652D01*
Y917651D01*
X587172D01*
X577175Y919317D02*
Y914318D01*
X575509Y912652D01*
X570511D01*
Y919317D01*
X565512Y920983D02*
Y919317D01*
X567178D01*
X563846D01*
X565512D01*
Y914318D01*
X563846Y912652D01*
X558848Y922649D02*
Y912652D01*
Y917651D01*
X557182Y919317D01*
X553849D01*
X552183Y917651D01*
Y912652D01*
X547185D02*
X543853D01*
X542186Y914318D01*
Y917651D01*
X543853Y919317D01*
X547185D01*
X548851Y917651D01*
Y914318D01*
X547185Y912652D01*
X538854Y919317D02*
Y912652D01*
Y915984D01*
X537188Y917651D01*
X535522Y919317D01*
X533856D01*
X518861Y912652D02*
Y922649D01*
X512196Y912652D01*
Y922649D01*
X507198Y919317D02*
X503865D01*
X502199Y917651D01*
Y912652D01*
X507198D01*
X508864Y914318D01*
X507198Y915984D01*
X502199D01*
X498867Y919317D02*
X492202D01*
X498867Y912652D01*
X492202D01*
X487204Y919317D02*
X483872D01*
X482206Y917651D01*
Y912652D01*
X487204D01*
X488870Y914318D01*
X487204Y915984D01*
X482206D01*
X478873Y919317D02*
Y912652D01*
Y915984D01*
X477207Y917651D01*
X475541Y919317D01*
X473875D01*
X458880Y922649D02*
Y912652D01*
X453881D01*
X452215Y914318D01*
Y920983D01*
X453881Y922649D01*
X458880D01*
X448883Y912652D02*
X445551D01*
X447217D01*
Y919317D01*
X448883D01*
X438886D02*
X435554D01*
X433888Y917651D01*
Y912652D01*
X438886D01*
X440552Y914318D01*
X438886Y915984D01*
X433888D01*
X423891Y922649D02*
Y912652D01*
X428890D01*
X430556Y914318D01*
Y917651D01*
X428890Y919317D01*
X423891D01*
X420559Y912652D02*
X417227D01*
X418893D01*
Y919317D01*
X420559D01*
X412228D02*
Y914318D01*
X410562Y912652D01*
X405564D01*
Y919317D01*
X402231Y912652D02*
Y919317D01*
X397233D01*
X395567Y917651D01*
Y912652D01*
X392235D02*
Y914318D01*
X390569D01*
Y912652D01*
X392235D01*
X373907Y922649D02*
Y920983D01*
X370575Y917651D01*
X367243Y920983D01*
Y922649D01*
X370575Y917651D02*
Y912652D01*
X358912D02*
X362244D01*
X363910Y914318D01*
Y917651D01*
X362244Y919317D01*
X358912D01*
X357246Y917651D01*
Y915984D01*
X363910D01*
X352248Y919317D02*
X348915D01*
X347249Y917651D01*
Y912652D01*
X352248D01*
X353914Y914318D01*
X352248Y915984D01*
X347249D01*
X343917Y919317D02*
Y912652D01*
Y915984D01*
X342251Y917651D01*
X340585Y919317D01*
X338919D01*
X317259Y912652D02*
X323923D01*
X317259Y919317D01*
Y920983D01*
X318925Y922649D01*
X322257D01*
X323923Y920983D01*
X313927D02*
X312260Y922649D01*
X308928D01*
X307262Y920983D01*
Y914318D01*
X308928Y912652D01*
X312260D01*
X313927Y914318D01*
Y920983D01*
X297265Y912652D02*
X303930D01*
X297265Y919317D01*
Y920983D01*
X298932Y922649D01*
X302264D01*
X303930Y920983D01*
X287269Y912652D02*
X293933D01*
X287269Y919317D01*
Y920983D01*
X288935Y922649D01*
X292267D01*
X293933Y920983D01*
D16*
X545370Y1029970D02*
X549370D01*
X547370Y1027970D02*
Y1031970D01*
X515732Y1254965D02*
X525985Y1244712D01*
X500175Y1239408D02*
X510428Y1229155D01*
X525985Y1244712D01*
X500175Y1239408D02*
X515732Y1254965D01*
X279000Y1064700D02*
X344000D01*
X279000Y975300D02*
X344000D01*
Y1064700D01*
X279000Y975300D02*
Y1064700D01*
X284000Y960000D02*
Y1080000D01*
X279360Y1203260D02*
X344360D01*
X279360Y1113860D02*
X344360D01*
Y1203260D01*
X279360Y1113860D02*
Y1203260D01*
X284360Y1098560D02*
Y1218560D01*
X756330Y1059800D02*
X777830D01*
X756330Y1073800D02*
X777830D01*
Y1059800D02*
Y1073800D01*
X756330Y1059800D02*
Y1073800D01*
X1031860Y981120D02*
Y1002620D01*
X1045860Y981120D02*
Y1002620D01*
X1031860Y981120D02*
X1045860D01*
X1031860Y1002620D02*
X1045860D01*
X958480Y1002460D02*
Y1024460D01*
X943980Y1002460D02*
Y1024460D01*
X958480D01*
X943980Y1002460D02*
X958480D01*
X943980Y960550D02*
Y982550D01*
X958480Y960550D02*
Y982550D01*
X943980Y960550D02*
X958480D01*
X943980Y982550D02*
X958480D01*
X733160Y960550D02*
Y982550D01*
X747660Y960550D02*
Y982550D01*
X733160Y960550D02*
X747660D01*
X733160Y982550D02*
X747660D01*
X731410Y992650D02*
Y1026650D01*
X749410Y992650D02*
Y1026650D01*
X731410Y992650D02*
X749410D01*
X731410Y1026650D02*
X749410D01*
X732680Y1167910D02*
Y1201910D01*
X750680Y1167910D02*
Y1201910D01*
X732680Y1167910D02*
X750680D01*
X732680Y1201910D02*
X750680D01*
X734430Y1134540D02*
Y1156540D01*
X748930Y1134540D02*
Y1156540D01*
X734430Y1134540D02*
X748930D01*
X734430Y1156540D02*
X748930D01*
X671180Y1103040D02*
Y1124540D01*
X685180Y1103040D02*
Y1124540D01*
X671180Y1103040D02*
X685180D01*
X671180Y1124540D02*
X685180D01*
X497728Y1187599D02*
X512931Y1202802D01*
X487829Y1197498D02*
X503032Y1212701D01*
X512931Y1202802D01*
X487829Y1197498D02*
X497728Y1187599D01*
X485028Y1200299D02*
X500231Y1215502D01*
X475129Y1210198D02*
X490332Y1225401D01*
X500231Y1215502D01*
X475129Y1210198D02*
X485028Y1200299D01*
X514145Y1225438D02*
X529702Y1240995D01*
X524398Y1215185D02*
X539955Y1230742D01*
X514145Y1225438D02*
X524398Y1215185D01*
X529702Y1240995D02*
X539955Y1230742D01*
X526938Y1120345D02*
X542495Y1104788D01*
X516685Y1110092D02*
X532242Y1094535D01*
X516685Y1110092D02*
X526938Y1120345D01*
X532242Y1094535D02*
X542495Y1104788D01*
X603138Y1120345D02*
X618695Y1104788D01*
X592885Y1110092D02*
X608442Y1094535D01*
X592885Y1110092D02*
X603138Y1120345D01*
X608442Y1094535D02*
X618695Y1104788D01*
X644449Y1142348D02*
X659652Y1157551D01*
X654348Y1132449D02*
X669551Y1147652D01*
X644449Y1142348D02*
X654348Y1132449D01*
X659652Y1157551D02*
X669551Y1147652D01*
X570025Y1245758D02*
X585582Y1261315D01*
X580278Y1235505D02*
X595835Y1251062D01*
X570025Y1245758D02*
X580278Y1235505D01*
X585582Y1261315D02*
X595835Y1251062D01*
X646318Y1173275D02*
X661875Y1188832D01*
X636065Y1183528D02*
X651622Y1199085D01*
X661875Y1188832D01*
X636065Y1183528D02*
X646318Y1173275D01*
X671180Y1204640D02*
Y1226140D01*
X685180Y1204640D02*
Y1226140D01*
X671180Y1204640D02*
X685180D01*
X671180Y1226140D02*
X685180D01*
X958480Y1176450D02*
Y1198450D01*
X943980Y1176450D02*
Y1198450D01*
X958480D01*
X943980Y1176450D02*
X958480D01*
X943980Y1137080D02*
Y1159080D01*
X958480Y1137080D02*
Y1159080D01*
X943980Y1137080D02*
X958480D01*
X943980Y1159080D02*
X958480D01*
X1034400Y1156380D02*
Y1177880D01*
X1048400Y1156380D02*
Y1177880D01*
X1034400Y1156380D02*
X1048400D01*
X1034400Y1177880D02*
X1048400D01*
X417340Y1218040D02*
X451340D01*
X417340Y1200040D02*
X451340D01*
X417340D02*
Y1218040D01*
X451340Y1200040D02*
Y1218040D01*
X391550Y1170610D02*
X408550D01*
X391550Y1161110D02*
X408550D01*
X391550D02*
Y1170610D01*
X408550Y1161110D02*
Y1170610D01*
X391550Y1155370D02*
X408550D01*
X391550Y1145870D02*
X408550D01*
X391550D02*
Y1155370D01*
X408550Y1145870D02*
Y1155370D01*
X381620Y1099230D02*
Y1120730D01*
X395620Y1099230D02*
Y1120730D01*
X381620Y1099230D02*
X395620D01*
X381620Y1120730D02*
X395620D01*
X416190Y1098980D02*
Y1120980D01*
X401690Y1098980D02*
Y1120980D01*
X416190D01*
X401690Y1098980D02*
X416190D01*
X490870Y1138600D02*
Y1160100D01*
X476870Y1138600D02*
Y1160100D01*
X490870Y1160100D01*
X476870Y1138600D02*
X490870D01*
X469280D02*
Y1160100D01*
X455280Y1138600D02*
Y1160100D01*
X469280Y1160100D01*
X455280Y1138600D02*
X469280D01*
X417340Y1178450D02*
X451340D01*
X417340Y1196450D02*
X451340D01*
Y1178450D02*
Y1196450D01*
X417340Y1178450D02*
Y1196450D01*
X422320Y1242710D02*
X443820D01*
X422320Y1228710D02*
X443820D01*
X422320D02*
Y1242710D01*
X443820Y1228710D02*
Y1242710D01*
X514970Y950640D02*
Y972140D01*
X528970Y950640D02*
Y972140D01*
X514970Y950640D02*
X528970D01*
X514970Y972140D02*
X528970D01*
X488300Y950640D02*
Y972140D01*
X502300Y950640D02*
Y972140D01*
X488300Y950640D02*
X502300D01*
X488300Y972140D02*
X502300D01*
X450740Y979660D02*
X468740D01*
X450740Y945660D02*
X468740D01*
Y979660D01*
X450740Y945660D02*
Y979660D01*
X404230Y945310D02*
Y967310D01*
X418730Y945310D02*
Y967310D01*
X404230Y945310D02*
X418730D01*
X404230Y967310D02*
X418730D01*
X398160Y945560D02*
Y967060D01*
X384160Y945560D02*
Y967060D01*
X398160D01*
X384160Y945560D02*
X398160D01*
X451000Y1021000D02*
Y1039000D01*
X485000Y1021000D02*
Y1039000D01*
X451000D02*
X485000D01*
X451000Y1021000D02*
X485000D01*
X388990Y1184070D02*
Y1206070D01*
X403490Y1184070D02*
Y1206070D01*
X388990Y1184070D02*
X403490D01*
X388990Y1206070D02*
X403490D01*
X391840Y1242710D02*
X413340D01*
X391840Y1228710D02*
X413340D01*
X391840D02*
Y1242710D01*
X413340Y1228710D02*
Y1242710D01*
X756330Y1233790D02*
X777830D01*
X756330Y1247790D02*
X777830D01*
Y1233790D02*
Y1247790D01*
X756330Y1233790D02*
Y1247790D01*
X517323Y1257616D02*
X528636Y1246303D01*
X497524Y1237817D02*
X508837Y1226504D01*
X528636Y1246303D01*
X497524Y1237817D02*
X517323Y1257616D01*
X509544Y1238524D02*
X516616Y1245595D01*
X509544D02*
X516616Y1238524D01*
X767080Y1061800D02*
Y1071800D01*
X762080Y1066800D02*
X772080D01*
X753080Y1059300D02*
X781080D01*
X753080Y1074300D02*
X781080D01*
Y1059300D02*
Y1074300D01*
X753080Y1059300D02*
Y1074300D01*
X1033860Y991870D02*
X1043860D01*
X1038860Y986870D02*
Y996870D01*
X1031360Y977870D02*
Y1005870D01*
X1046360Y977870D02*
Y1005870D01*
X1031360Y977870D02*
X1046360D01*
X1031360Y1005870D02*
X1046360D01*
X946230Y1013460D02*
X956230D01*
X951230Y1008460D02*
Y1018460D01*
X959230Y999460D02*
Y1027460D01*
X943230Y999460D02*
Y1027460D01*
X959230D01*
X943230Y999460D02*
X959230D01*
X946230Y971550D02*
X956230D01*
X951230Y966550D02*
Y976550D01*
X943230Y957550D02*
Y985550D01*
X959230Y957550D02*
Y985550D01*
X943230Y957550D02*
X959230D01*
X943230Y985550D02*
X959230D01*
X735410Y971550D02*
X745410D01*
X740410Y966550D02*
Y976550D01*
X732410Y957550D02*
Y985550D01*
X748410Y957550D02*
Y985550D01*
X732410Y957550D02*
X748410D01*
X732410Y985550D02*
X748410D01*
X735410Y1009650D02*
X745410D01*
X740410Y1004650D02*
Y1014650D01*
X730910Y989650D02*
Y1029650D01*
X749910Y989650D02*
Y1029650D01*
X730910Y989650D02*
X749910D01*
X730910Y1029650D02*
X749910D01*
X736680Y1184910D02*
X746680D01*
X741680Y1179910D02*
Y1189910D01*
X732180Y1164910D02*
Y1204910D01*
X751180Y1164910D02*
Y1204910D01*
X732180Y1164910D02*
X751180D01*
X732180Y1204910D02*
X751180D01*
X736680Y1145540D02*
X746680D01*
X741680Y1140540D02*
Y1150540D01*
X733680Y1131540D02*
Y1159540D01*
X749680Y1131540D02*
Y1159540D01*
X733680Y1131540D02*
X749680D01*
X733680Y1159540D02*
X749680D01*
X673180Y1113790D02*
X683180D01*
X678180Y1108790D02*
Y1118790D01*
X670680Y1099790D02*
Y1127790D01*
X685680Y1099790D02*
Y1127790D01*
X670680Y1099790D02*
X685680D01*
X670680Y1127790D02*
X685680D01*
X496844Y1203686D02*
X503916Y1196615D01*
X496844Y1196615D02*
X503916Y1203686D01*
X495784Y1184947D02*
X515583Y1204746D01*
X485177Y1195554D02*
X504976Y1215353D01*
X515583Y1204746D01*
X485177Y1195554D02*
X495784Y1184947D01*
X484145Y1216386D02*
X491216Y1209314D01*
X484145Y1209314D02*
X491216Y1216386D01*
X483084Y1197647D02*
X502883Y1217446D01*
X472477Y1208254D02*
X492276Y1228053D01*
X502883Y1217446D01*
X472477Y1208254D02*
X483084Y1197647D01*
X523515Y1231626D02*
X530586Y1224554D01*
X523515Y1224554D02*
X530586Y1231626D01*
X511494Y1223847D02*
X531293Y1243646D01*
X522807Y1212534D02*
X542606Y1232333D01*
X511494Y1223847D02*
X522807Y1212534D01*
X531293Y1243646D02*
X542606Y1232333D01*
X526054Y1103904D02*
X533125Y1110975D01*
X526054D02*
X533125Y1103904D01*
X525347Y1122996D02*
X545146Y1103197D01*
X514034Y1111683D02*
X533833Y1091884D01*
X514034Y1111683D02*
X525347Y1122996D01*
X533833Y1091884D02*
X545146Y1103197D01*
X602254Y1103904D02*
X609325Y1110975D01*
X602254D02*
X609325Y1103904D01*
X601547Y1122996D02*
X621346Y1103197D01*
X590234Y1111683D02*
X610033Y1091884D01*
X590234Y1111683D02*
X601547Y1122996D01*
X610033Y1091884D02*
X621346Y1103197D01*
X653465Y1148536D02*
X660536Y1141464D01*
X653465D02*
X660536Y1148536D01*
X641797Y1140404D02*
X661596Y1160203D01*
X652404Y1129797D02*
X672203Y1149596D01*
X641797Y1140404D02*
X652404Y1129797D01*
X661596Y1160203D02*
X672203Y1149596D01*
X579394Y1251945D02*
X586466Y1244874D01*
X579394Y1244874D02*
X586466Y1251945D01*
X567374Y1244167D02*
X587173Y1263966D01*
X578687Y1232854D02*
X598486Y1252653D01*
X567374Y1244167D02*
X578687Y1232854D01*
X587173Y1263966D02*
X598486Y1252653D01*
X645434Y1189716D02*
X652505Y1182645D01*
X645434D02*
X652505Y1189716D01*
X644727Y1170624D02*
X664526Y1190423D01*
X633414Y1181937D02*
X653213Y1201736D01*
X664526Y1190423D01*
X633414Y1181937D02*
X644727Y1170624D01*
X673180Y1215390D02*
X683180D01*
X678180Y1210390D02*
Y1220390D01*
X670680Y1201390D02*
Y1229390D01*
X685680Y1201390D02*
Y1229390D01*
X670680Y1201390D02*
X685680D01*
X670680Y1229390D02*
X685680D01*
X946230Y1187450D02*
X956230D01*
X951230Y1182450D02*
Y1192450D01*
X959230Y1173450D02*
Y1201450D01*
X943230Y1173450D02*
Y1201450D01*
X959230D01*
X943230Y1173450D02*
X959230D01*
X946230Y1148080D02*
X956230D01*
X951230Y1143080D02*
Y1153080D01*
X943230Y1134080D02*
Y1162080D01*
X959230Y1134080D02*
Y1162080D01*
X943230Y1134080D02*
X959230D01*
X943230Y1162080D02*
X959230D01*
X1036400Y1167130D02*
X1046400D01*
X1041400Y1162130D02*
Y1172130D01*
X1033900Y1153130D02*
Y1181130D01*
X1048900Y1153130D02*
Y1181130D01*
X1033900Y1153130D02*
X1048900D01*
X1033900Y1181130D02*
X1048900D01*
X434340Y1204040D02*
Y1214040D01*
X429340Y1209040D02*
X439340D01*
X414340Y1218540D02*
X454340D01*
X414340Y1199540D02*
X454340D01*
X414340D02*
Y1218540D01*
X454340Y1199540D02*
Y1218540D01*
X400050Y1161110D02*
Y1170610D01*
X395300Y1165860D02*
X404800D01*
X388050Y1171360D02*
X412050D01*
X388050Y1160360D02*
X412050D01*
X388050D02*
Y1171360D01*
X412050Y1160360D02*
Y1171360D01*
X400050Y1145870D02*
Y1155370D01*
X395300Y1150620D02*
X404800D01*
X388050Y1156120D02*
X412050D01*
X388050Y1145120D02*
X412050D01*
X388050D02*
Y1156120D01*
X412050Y1145120D02*
Y1156120D01*
X383620Y1109980D02*
X393620D01*
X388620Y1104980D02*
Y1114980D01*
X381120Y1095980D02*
Y1123980D01*
X396120Y1095980D02*
Y1123980D01*
X381120Y1095980D02*
X396120D01*
X381120Y1123980D02*
X396120D01*
X403940Y1109980D02*
X413940D01*
X408940Y1104980D02*
Y1114980D01*
X416940Y1095980D02*
Y1123980D01*
X400940Y1095980D02*
Y1123980D01*
X416940D01*
X400940Y1095980D02*
X416940D01*
X478870Y1149350D02*
X488870D01*
X483870Y1144350D02*
Y1154350D01*
X491370Y1163350D02*
X491370Y1135350D01*
X476370D02*
Y1163350D01*
X491370D01*
X476370Y1135350D02*
X491370D01*
X457280Y1149350D02*
X467280D01*
X462280Y1144350D02*
Y1154350D01*
X469780Y1163350D02*
X469780Y1135350D01*
X454780D02*
Y1163350D01*
X469780D01*
X454780Y1135350D02*
X469780D01*
X434340Y1182450D02*
Y1192450D01*
X429340Y1187450D02*
X439340D01*
X414340Y1177950D02*
X454340D01*
X414340Y1196950D02*
X454340D01*
Y1177950D02*
Y1196950D01*
X414340Y1177950D02*
Y1196950D01*
X433070Y1230710D02*
Y1240710D01*
X428070Y1235710D02*
X438070D01*
X419070Y1243210D02*
X447070D01*
X419070Y1228210D02*
X447070D01*
X419070D02*
Y1243210D01*
X447070Y1228210D02*
Y1243210D01*
X516970Y961390D02*
X526970D01*
X521970Y956390D02*
Y966390D01*
X514470Y947390D02*
Y975390D01*
X529470Y947390D02*
Y975390D01*
X514470Y947390D02*
X529470D01*
X514470Y975390D02*
X529470D01*
X490300Y961390D02*
X500300D01*
X495300Y956390D02*
Y966390D01*
X487800Y947390D02*
Y975390D01*
X502800Y947390D02*
Y975390D01*
X487800Y947390D02*
X502800D01*
X487800Y975390D02*
X502800D01*
X450240Y982660D02*
X469240D01*
X450240Y942660D02*
X469240D01*
Y982660D01*
X450240Y942660D02*
Y982660D01*
X459740Y957660D02*
Y967660D01*
X454740Y962660D02*
X464740D01*
X406480Y956310D02*
X416480D01*
X411480Y951310D02*
Y961310D01*
X403480Y942310D02*
Y970310D01*
X419480Y942310D02*
Y970310D01*
X403480Y942310D02*
X419480D01*
X403480Y970310D02*
X419480D01*
X386160Y956310D02*
X396160D01*
X391160Y951310D02*
Y961310D01*
X398660Y942310D02*
Y970310D01*
X383660Y942310D02*
Y970310D01*
X398660D01*
X383660Y942310D02*
X398660D01*
X448000Y1020500D02*
Y1039500D01*
X488000Y1020500D02*
Y1039500D01*
X448000D02*
X488000D01*
X448000Y1020500D02*
X488000D01*
X463000Y1030000D02*
X473000D01*
X468000Y1025000D02*
Y1035000D01*
X391240Y1195070D02*
X401240D01*
X396240Y1190070D02*
Y1200070D01*
X388240Y1181070D02*
Y1209070D01*
X404240Y1181070D02*
Y1209070D01*
X388240Y1181070D02*
X404240D01*
X388240Y1209070D02*
X404240D01*
X402590Y1230710D02*
Y1240710D01*
X397590Y1235710D02*
X407590D01*
X388590Y1243210D02*
X416590D01*
X388590Y1228210D02*
X416590D01*
X388590D02*
Y1243210D01*
X416590Y1228210D02*
Y1243210D01*
X767080Y1235790D02*
Y1245790D01*
X762080Y1240790D02*
X772080D01*
X753080Y1233290D02*
X781080D01*
X753080Y1248290D02*
X781080D01*
Y1233290D02*
Y1248290D01*
X753080Y1233290D02*
Y1248290D01*
D63*
X1144270Y1021080D02*
X1145540Y1022350D01*
X1121410Y1021080D02*
X1144270D01*
X916940Y909320D02*
X934720Y927100D01*
X821690Y919480D02*
X831850Y909320D01*
X916940D01*
X821690Y919480D02*
Y980222D01*
X716280Y1007110D02*
Y1083092D01*
X717768Y1084580D02*
X741680D01*
X716280Y1007110D02*
X742950D01*
X542290D02*
X716280D01*
X948690Y1031240D02*
X977900Y1002030D01*
X1118870Y1046480D02*
X1145540D01*
X1103630Y1031240D02*
X1118870Y1046480D01*
X1103630Y948690D02*
Y1031240D01*
X1093470Y938530D02*
X1103630Y948690D01*
X991870Y938530D02*
X1093470D01*
X977900Y949960D02*
X989548Y938312D01*
X977900Y949960D02*
Y1002030D01*
X858520Y1031240D02*
X948690D01*
X820420Y993140D02*
X858520Y1031240D01*
X756920Y993140D02*
X820420D01*
X742950Y1007110D02*
X756920Y993140D01*
X467360Y1016000D02*
X533400D01*
X542290Y1007110D01*
X459740Y1008380D02*
X467360Y1016000D01*
X459740Y989330D02*
Y1008380D01*
X1116330Y943610D02*
Y1016000D01*
X1099820Y927100D02*
X1116330Y943610D01*
Y1016000D02*
X1121410Y1021080D01*
X934720Y927100D02*
X1099820D01*
X521970Y981710D02*
Y998220D01*
Y981710D02*
X820202D01*
X513080Y1000760D02*
X519430D01*
X521970Y998220D01*
D66*
X1101000Y1143000D02*
X1113000Y1131000D01*
X1138490D01*
X1101000Y1143000D02*
Y1165950D01*
X1098950Y1168000D02*
X1101000Y1165950D01*
X1048930Y1168000D02*
X1098950D01*
X1054100Y1159510D02*
X1078490D01*
X1082040Y1129030D02*
Y1155960D01*
X1078490Y1159510D02*
X1082040Y1155960D01*
X1041400Y1175530D02*
X1048930Y1168000D01*
X1138490Y1131000D02*
X1145540Y1123950D01*
X1133470Y1192530D02*
X1145540Y1180460D01*
Y1149350D02*
Y1180460D01*
X1082040Y1192530D02*
X1133470D01*
X391160Y979170D02*
Y1129030D01*
Y1214120D01*
X1066800Y1071880D02*
X1145540D01*
X1050290Y1097280D02*
X1145540D01*
X836930Y922800D02*
X838980Y920750D01*
X903460D02*
X905510Y922800D01*
Y966200D01*
X838980Y920750D02*
X903460D01*
X836930Y922800D02*
Y928370D01*
X849630D02*
Y989330D01*
X876300Y1016000D01*
X1041400Y1175530D02*
Y1192530D01*
X1082040Y952500D02*
Y977900D01*
X1075690Y984250D02*
X1082040Y977900D01*
X1051560Y984250D02*
X1075690D01*
X528800Y1195923D02*
Y1196183D01*
Y1195923D02*
X536003Y1188720D01*
X558800D01*
X527050Y1197933D02*
Y1198880D01*
Y1197933D02*
X528800Y1196183D01*
X610870Y1162050D02*
X619760Y1153160D01*
X627380D01*
X610870Y1162050D02*
Y1174750D01*
X617220Y1146810D02*
X624840D01*
X577850Y1186180D02*
Y1205230D01*
Y1186180D02*
X617220Y1146810D01*
X619760Y1141730D02*
X626110Y1135380D01*
X571500Y1183640D02*
X613410Y1141730D01*
X619760D01*
X571500Y1183640D02*
Y1216482D01*
X623570Y1129030D02*
X781050D01*
X615950Y1136650D02*
X623570Y1129030D01*
X610870Y1136650D02*
X615950D01*
X608330Y1130300D02*
X613410D01*
X621030Y1122680D01*
X784642D01*
X624840Y1146810D02*
X629920Y1141730D01*
X660182D01*
X627380Y1153160D02*
X629920Y1150620D01*
X640080D01*
X716280Y1083092D02*
X717768Y1084580D01*
X373380Y1158240D02*
Y1176020D01*
X991652Y938312D02*
X991870Y938530D01*
X989548Y938312D02*
X991652D01*
X820202Y981710D02*
X821690Y980222D01*
X876300Y1016000D02*
X906510D01*
X840740Y1041400D02*
X1004570D01*
Y948690D02*
Y1041400D01*
Y1120203D01*
X807720Y1008380D02*
X840740Y1041400D01*
X769620Y1008380D02*
X807720D01*
X725170Y1021080D02*
X756920D01*
X769620Y1008380D01*
X1004570Y1120203D02*
X1007110Y1122743D01*
Y1123950D01*
X1080770Y1014730D02*
X1082040Y1016000D01*
X1080770Y1002248D02*
Y1014730D01*
X1032510Y1000760D02*
X1079282D01*
X1080770Y1002248D01*
X1024890Y1008380D02*
X1032510Y1000760D01*
X1024890Y1008380D02*
Y1037590D01*
X1027430Y1040130D01*
X1041400D01*
Y1088390D02*
X1050290Y1097280D01*
X1055370Y1060450D02*
X1066800Y1071880D01*
X1055370Y1022350D02*
Y1060450D01*
Y1022350D02*
X1055588Y1022132D01*
X1051560Y1016000D02*
X1055588Y1020028D01*
Y1022132D01*
X1041400Y1016000D02*
X1051560D01*
X1041400Y1040130D02*
Y1088390D01*
X1076960Y1211580D02*
X1082040Y1206500D01*
Y1192530D02*
Y1206500D01*
X1041400Y1211580D02*
X1076960D01*
X576580Y1234440D02*
X591820Y1219200D01*
X574040Y1236980D02*
X576580Y1234440D01*
X565150Y1223010D02*
X576580Y1234440D01*
X565150Y1203960D02*
Y1223010D01*
X557530Y1196340D02*
X565150Y1203960D01*
X546100Y1196340D02*
X557530D01*
X535940Y1206500D02*
X546100Y1196340D01*
X408710Y1135610D02*
Y1187340D01*
Y1135610D02*
X408940Y1135380D01*
X408480Y1187570D02*
X408710Y1187340D01*
X600710Y1186180D02*
X608330D01*
X591820Y1195070D02*
X600710Y1186180D01*
X614680Y1239520D02*
X637540Y1262380D01*
X614680Y1178560D02*
Y1239520D01*
X610870Y1174750D02*
X614680Y1178560D01*
X621030Y1229360D02*
X643890Y1252220D01*
X621030Y1177290D02*
Y1229360D01*
X617220Y1164590D02*
Y1173480D01*
X621030Y1177290D01*
X628650Y1172210D02*
Y1220470D01*
X624840Y1168400D02*
X628650Y1172210D01*
Y1220470D02*
X648970Y1240790D01*
X617220Y1164590D02*
X622300Y1159510D01*
X632460D01*
X626110Y1135380D02*
X671830D01*
X558800Y1188720D02*
X610870Y1136650D01*
X556260Y1182370D02*
X608330Y1130300D01*
X613347Y1121410D02*
X621665Y1113091D01*
Y1109345D02*
Y1113091D01*
X593090Y1080770D02*
X621665Y1109345D01*
X612140Y1121410D02*
X613347D01*
X591820Y1089660D02*
X599440Y1097280D01*
Y1129030D01*
X572678Y1089660D02*
X591820D01*
X554990Y1173480D02*
X599440Y1129030D01*
X582930Y1097280D02*
X588010Y1102360D01*
X554990Y1150620D02*
X588010Y1117600D01*
Y1102360D02*
Y1117600D01*
X579537Y1109563D02*
Y1115913D01*
X552450Y1143000D02*
X579537Y1115913D01*
Y1109563D02*
X580390Y1108710D01*
X568960Y1092200D02*
X570138D01*
X572678Y1089660D01*
X661670Y1143218D02*
Y1205230D01*
X670560Y1214120D01*
X660182Y1141730D02*
X661670Y1143218D01*
X577850Y1205230D02*
X582930Y1210310D01*
X671830Y1135380D02*
X678180Y1141730D01*
X510540Y1182370D02*
X556260D01*
X591820Y1195070D02*
Y1219200D01*
X468630Y1236980D02*
X574040D01*
X391160Y1214120D02*
X468630D01*
X374650D02*
X391160D01*
X530860Y1228090D02*
X543560Y1215390D01*
X482600Y1228090D02*
X530860D01*
X468630Y1214120D02*
X482600Y1228090D01*
X576580Y1221562D02*
Y1221740D01*
X571500Y1216482D02*
X576580Y1221562D01*
X670560Y1214120D02*
X708660D01*
X784642Y1122680D02*
X786130Y1121192D01*
Y1019810D02*
Y1121192D01*
Y1134110D02*
Y1196340D01*
X781050Y1129030D02*
X786130Y1134110D01*
X499110Y1130300D02*
X548640Y1080770D01*
X593090D01*
X435610Y1150620D02*
X554990D01*
X505460Y1173480D02*
X554990D01*
X491370Y1187570D02*
X505460Y1173480D01*
X408480Y1187570D02*
X491370D01*
X905510Y966200D02*
X906780Y967470D01*
X906510Y1016000D02*
X906780Y1016270D01*
X905510Y1103630D02*
Y1141190D01*
X906780Y1142460D01*
X889000Y1087120D02*
X905510Y1103630D01*
X839470Y1087120D02*
X889000D01*
X836930Y1089660D02*
X839470Y1087120D01*
X836930Y1089660D02*
Y1097280D01*
X905510Y1192530D02*
X906780Y1191260D01*
X858520Y1192530D02*
X905510D01*
X849630Y1183640D02*
X858520Y1192530D01*
X849630Y1097280D02*
Y1183640D01*
X815340Y1262380D02*
X824230Y1253490D01*
Y1240790D02*
Y1253490D01*
X637540Y1262380D02*
X815340D01*
X807720Y1252220D02*
X811530Y1248410D01*
Y1240790D02*
Y1248410D01*
X643890Y1252220D02*
X807720D01*
X648970Y1240790D02*
X798830D01*
X824230Y1066800D02*
Y1240790D01*
X811530Y1066800D02*
Y1240790D01*
X798830Y1066800D02*
Y1240790D01*
X430530Y1143000D02*
X552450D01*
X426720Y1146810D02*
X430530Y1143000D01*
X426720Y1146810D02*
Y1165860D01*
D68*
X300000Y1076200D02*
D03*
Y963800D02*
D03*
X300360Y1214760D02*
D03*
Y1102360D02*
D03*
D69*
X340000Y963800D02*
D03*
Y1076200D02*
D03*
X340360Y1102360D02*
D03*
Y1214760D02*
D03*
D70*
X906780Y1016270D02*
D03*
Y967470D02*
D03*
X1082040Y952500D02*
D03*
X906780Y1191260D02*
D03*
Y1142460D02*
D03*
X1082040Y1129030D02*
D03*
D71*
Y1016000D02*
D03*
Y1192530D02*
D03*
D72*
X1145540Y1022350D02*
D03*
Y1149350D02*
D03*
Y1123950D02*
D03*
Y1098550D02*
D03*
Y1073150D02*
D03*
Y1047750D02*
D03*
D73*
X391000Y1058000D02*
D03*
X849630Y928370D02*
D03*
X836930D02*
D03*
X426720Y1165860D02*
D03*
X741680Y1084580D02*
D03*
X373380Y1158240D02*
D03*
X716280Y1007110D02*
D03*
X966470Y1014730D02*
D03*
X459740Y989330D02*
D03*
X725170Y1021080D02*
D03*
X1007110Y1123950D02*
D03*
X1004570Y948690D02*
D03*
X1054100Y1159510D02*
D03*
X1051560Y984250D02*
D03*
X1041400Y1016000D02*
D03*
Y1192530D02*
D03*
Y1040130D02*
D03*
Y1211580D02*
D03*
X535940Y1206500D02*
D03*
X527050Y1198880D02*
D03*
X373380Y1176020D02*
D03*
X408940Y1135380D02*
D03*
X391160Y1129030D02*
D03*
X608330Y1186180D02*
D03*
X640080Y1150620D02*
D03*
X632460Y1159510D02*
D03*
X624840Y1168400D02*
D03*
X612140Y1121410D02*
D03*
X582930Y1097280D02*
D03*
X580390Y1108710D02*
D03*
X568960Y1092200D02*
D03*
X468630Y1236980D02*
D03*
X391160Y979170D02*
D03*
X543560Y1215390D02*
D03*
X374650Y1214120D02*
D03*
X678180Y1141730D02*
D03*
X708660Y1214120D02*
D03*
X499110Y1130300D02*
D03*
X408480Y1187570D02*
D03*
X849630Y1097280D02*
D03*
X836930D02*
D03*
X786130Y1019810D02*
D03*
Y1196340D02*
D03*
X510540Y1182370D02*
D03*
X824230Y1066800D02*
D03*
X811530D02*
D03*
X798830D02*
D03*
X824230Y1240790D02*
D03*
X811530D02*
D03*
X798830D02*
D03*
X435610Y1150620D02*
D03*
X576580Y1221740D02*
D03*
X582930Y1210310D02*
D03*
X599440Y1129030D02*
D03*
X513080Y1000760D02*
D03*
X521970Y981710D02*
D03*
M02*
