%TF.GenerationSoftware,Altium Limited,Altium Designer,22.1.2 (22)*%
G04 Layer_Color=0*
%FSLAX44Y44*%
%MOMM*%
%TF.SameCoordinates,D2A5B157-11BA-4D30-A4C3-CA4352B12235*%
%TF.FilePolarity,Positive*%
%TF.FileFunction,Plated,1,2,PTH,Drill*%
%TF.Part,Single*%
G01*
G75*
%TA.AperFunction,ComponentDrill*%
%ADD77O,1.8000X0.6000*%
%ADD78O,1.4000X0.6000*%
%ADD79C,0.6300*%
%ADD80C,0.8000*%
%ADD81C,1.4000*%
%TA.AperFunction,ViaDrill,NotFilled*%
%ADD82C,0.4000*%
D77*
X300000Y1076200D02*
D03*
Y963800D02*
D03*
X300360Y1214760D02*
D03*
Y1102360D02*
D03*
D78*
X340000Y963800D02*
D03*
Y1076200D02*
D03*
X340360Y1102360D02*
D03*
Y1214760D02*
D03*
D79*
X906780Y1016270D02*
D03*
Y967470D02*
D03*
Y1191260D02*
D03*
Y1142460D02*
D03*
D80*
X1082040Y952500D02*
D03*
Y1016000D02*
D03*
Y1129030D02*
D03*
Y1192530D02*
D03*
D81*
X1145540Y1022350D02*
D03*
Y1149350D02*
D03*
Y1123950D02*
D03*
Y1098550D02*
D03*
Y1073150D02*
D03*
Y1047750D02*
D03*
D82*
X391000Y1058000D02*
D03*
X849630Y928370D02*
D03*
X836930D02*
D03*
X426720Y1165860D02*
D03*
X741680Y1084580D02*
D03*
X373380Y1158240D02*
D03*
X716280Y1007110D02*
D03*
X966470Y1014730D02*
D03*
X459740Y989330D02*
D03*
X725170Y1021080D02*
D03*
X1007110Y1123950D02*
D03*
X1004570Y948690D02*
D03*
X1054100Y1159510D02*
D03*
X1051560Y984250D02*
D03*
X1041400Y1016000D02*
D03*
Y1192530D02*
D03*
Y1040130D02*
D03*
Y1211580D02*
D03*
X535940Y1206500D02*
D03*
X527050Y1198880D02*
D03*
X373380Y1176020D02*
D03*
X408940Y1135380D02*
D03*
X391160Y1129030D02*
D03*
X608330Y1186180D02*
D03*
X640080Y1150620D02*
D03*
X632460Y1159510D02*
D03*
X624840Y1168400D02*
D03*
X612140Y1121410D02*
D03*
X582930Y1097280D02*
D03*
X580390Y1108710D02*
D03*
X568960Y1092200D02*
D03*
X468630Y1236980D02*
D03*
X391160Y979170D02*
D03*
X543560Y1215390D02*
D03*
X374650Y1214120D02*
D03*
X678180Y1141730D02*
D03*
X708660Y1214120D02*
D03*
X499110Y1130300D02*
D03*
X408480Y1187570D02*
D03*
X849630Y1097280D02*
D03*
X836930D02*
D03*
X786130Y1019810D02*
D03*
Y1196340D02*
D03*
X510540Y1182370D02*
D03*
X824230Y1066800D02*
D03*
X811530D02*
D03*
X798830D02*
D03*
X824230Y1240790D02*
D03*
X811530D02*
D03*
X798830D02*
D03*
X435610Y1150620D02*
D03*
X576580Y1221740D02*
D03*
X582930Y1210310D02*
D03*
X599440Y1129030D02*
D03*
X513080Y1000760D02*
D03*
X521970Y981710D02*
D03*
%TF.MD5,1c52962b6f7977d8de25d1eab40699db*%
M02*
