G04*
G04 #@! TF.GenerationSoftware,Altium Limited,Altium Designer,22.1.2 (22)*
G04*
G04 Layer_Color=8388736*
%FSLAX44Y44*%
%MOMM*%
G71*
G04*
G04 #@! TF.SameCoordinates,D73D9505-6E86-4879-9EB9-392C4F9F1875*
G04*
G04*
G04 #@! TF.FilePolarity,Negative*
G04*
G01*
G75*
%ADD10C,0.2000*%
%ADD11C,0.1270*%
%ADD13C,0.0000*%
%ADD14C,0.0500*%
%ADD16C,0.1000*%
%ADD37P,7.6413X4X180.0*%
G04:AMPARAMS|DCode=38|XSize=1.2132mm|YSize=0.4632mm|CornerRadius=0.1341mm|HoleSize=0mm|Usage=FLASHONLY|Rotation=135.000|XOffset=0mm|YOffset=0mm|HoleType=Round|Shape=RoundedRectangle|*
%AMROUNDEDRECTD38*
21,1,1.2132,0.1950,0,0,135.0*
21,1,0.9450,0.4632,0,0,135.0*
1,1,0.2682,-0.2652,0.4031*
1,1,0.2682,0.4031,-0.2652*
1,1,0.2682,0.2652,-0.4031*
1,1,0.2682,-0.4031,0.2652*
%
%ADD38ROUNDEDRECTD38*%
G04:AMPARAMS|DCode=39|XSize=0.4632mm|YSize=1.2132mm|CornerRadius=0.1341mm|HoleSize=0mm|Usage=FLASHONLY|Rotation=135.000|XOffset=0mm|YOffset=0mm|HoleType=Round|Shape=RoundedRectangle|*
%AMROUNDEDRECTD39*
21,1,0.4632,0.9450,0,0,135.0*
21,1,0.1950,1.2132,0,0,135.0*
1,1,0.2682,0.2652,0.4031*
1,1,0.2682,0.4031,0.2652*
1,1,0.2682,-0.2652,-0.4031*
1,1,0.2682,-0.4031,-0.2652*
%
%ADD39ROUNDEDRECTD39*%
G04:AMPARAMS|DCode=40|XSize=1.6032mm|YSize=1.3032mm|CornerRadius=0mm|HoleSize=0mm|Usage=FLASHONLY|Rotation=315.000|XOffset=0mm|YOffset=0mm|HoleType=Round|Shape=Rectangle|*
%AMROTATEDRECTD40*
4,1,4,-1.0276,0.1061,-0.1061,1.0276,1.0276,-0.1061,0.1061,-1.0276,-1.0276,0.1061,0.0*
%
%ADD40ROTATEDRECTD40*%

%ADD41R,1.3032X0.8032*%
%ADD42R,1.3032X0.5032*%
%ADD43R,1.2032X1.5032*%
%ADD44R,1.5032X1.2032*%
G04:AMPARAMS|DCode=45|XSize=1.9532mm|YSize=0.7932mm|CornerRadius=0.1754mm|HoleSize=0mm|Usage=FLASHONLY|Rotation=90.000|XOffset=0mm|YOffset=0mm|HoleType=Round|Shape=RoundedRectangle|*
%AMROUNDEDRECTD45*
21,1,1.9532,0.4425,0,0,90.0*
21,1,1.6025,0.7932,0,0,90.0*
1,1,0.3507,0.2213,0.8012*
1,1,0.3507,0.2213,-0.8012*
1,1,0.3507,-0.2213,-0.8012*
1,1,0.3507,-0.2213,0.8012*
%
%ADD45ROUNDEDRECTD45*%
%ADD46R,1.6032X1.3032*%
%ADD47R,1.9032X1.3032*%
%ADD48R,0.9652X1.9812*%
%ADD49R,2.4032X3.0032*%
G04:AMPARAMS|DCode=50|XSize=1.5032mm|YSize=1.2032mm|CornerRadius=0mm|HoleSize=0mm|Usage=FLASHONLY|Rotation=135.000|XOffset=0mm|YOffset=0mm|HoleType=Round|Shape=Rectangle|*
%AMROTATEDRECTD50*
4,1,4,0.9569,-0.1061,0.1061,-0.9569,-0.9569,0.1061,-0.1061,0.9569,0.9569,-0.1061,0.0*
%
%ADD50ROTATEDRECTD50*%

G04:AMPARAMS|DCode=51|XSize=1.6032mm|YSize=1.3032mm|CornerRadius=0mm|HoleSize=0mm|Usage=FLASHONLY|Rotation=225.000|XOffset=0mm|YOffset=0mm|HoleType=Round|Shape=Rectangle|*
%AMROTATEDRECTD51*
4,1,4,0.1061,1.0276,1.0276,0.1061,-0.1061,-1.0276,-1.0276,-0.1061,0.1061,1.0276,0.0*
%
%ADD51ROTATEDRECTD51*%

G04:AMPARAMS|DCode=52|XSize=1.4032mm|YSize=2.0032mm|CornerRadius=0mm|HoleSize=0mm|Usage=FLASHONLY|Rotation=45.000|XOffset=0mm|YOffset=0mm|HoleType=Round|Shape=Rectangle|*
%AMROTATEDRECTD52*
4,1,4,0.2121,-1.2044,-1.2044,0.2121,-0.2121,1.2044,1.2044,-0.2121,0.2121,-1.2044,0.0*
%
%ADD52ROTATEDRECTD52*%

%ADD53R,1.3032X1.9032*%
%ADD54R,0.9032X1.1032*%
%ADD55R,3.8032X2.8532*%
G04:AMPARAMS|DCode=56|XSize=1.5732mm|YSize=0.7932mm|CornerRadius=0.2491mm|HoleSize=0mm|Usage=FLASHONLY|Rotation=180.000|XOffset=0mm|YOffset=0mm|HoleType=Round|Shape=RoundedRectangle|*
%AMROUNDEDRECTD56*
21,1,1.5732,0.2950,0,0,180.0*
21,1,1.0750,0.7932,0,0,180.0*
1,1,0.4982,-0.5375,0.1475*
1,1,0.4982,0.5375,0.1475*
1,1,0.4982,0.5375,-0.1475*
1,1,0.4982,-0.5375,-0.1475*
%
%ADD56ROUNDEDRECTD56*%
%ADD57R,2.6032X3.5032*%
%ADD58C,1.7032*%
%ADD59R,1.7032X1.7032*%
%ADD60R,2.2032X2.2032*%
%ADD61C,0.9032*%
G36*
X344674Y1220752D02*
X344987Y1220727D01*
X345299Y1220686D01*
X345607Y1220629D01*
X345913Y1220555D01*
X346214Y1220466D01*
X346510Y1220361D01*
X346800Y1220241D01*
X347084Y1220106D01*
X347360Y1219956D01*
X347628Y1219792D01*
X347887Y1219614D01*
X348136Y1219423D01*
X348375Y1219219D01*
X348603Y1219003D01*
X348819Y1218775D01*
X349023Y1218536D01*
X349214Y1218287D01*
X349392Y1218028D01*
X349556Y1217760D01*
X349706Y1217484D01*
X349841Y1217200D01*
X349962Y1216910D01*
X350066Y1216614D01*
X350156Y1216313D01*
X350229Y1216007D01*
X350286Y1215699D01*
X350327Y1215387D01*
X350352Y1215074D01*
X350360Y1214760D01*
X350352Y1214446D01*
X350327Y1214133D01*
X350286Y1213821D01*
X350229Y1213512D01*
X350156Y1213207D01*
X350066Y1212906D01*
X349962Y1212610D01*
X349841Y1212320D01*
X349706Y1212036D01*
X349556Y1211760D01*
X349392Y1211492D01*
X349214Y1211233D01*
X349023Y1210984D01*
X348819Y1210745D01*
X348603Y1210517D01*
X348375Y1210301D01*
X348136Y1210097D01*
X347887Y1209906D01*
X347628Y1209728D01*
X347360Y1209564D01*
X347084Y1209414D01*
X346800Y1209279D01*
X346510Y1209158D01*
X346214Y1209054D01*
X345913Y1208964D01*
X345607Y1208891D01*
X345299Y1208834D01*
X344987Y1208793D01*
X344674Y1208768D01*
X344360Y1208760D01*
X336360D01*
X336046Y1208768D01*
X335733Y1208793D01*
X335421Y1208834D01*
X335112Y1208891D01*
X334807Y1208964D01*
X334506Y1209054D01*
X334210Y1209158D01*
X333920Y1209279D01*
X333636Y1209414D01*
X333360Y1209564D01*
X333092Y1209728D01*
X332833Y1209906D01*
X332584Y1210097D01*
X332345Y1210301D01*
X332117Y1210517D01*
X331901Y1210745D01*
X331697Y1210984D01*
X331506Y1211233D01*
X331328Y1211492D01*
X331164Y1211760D01*
X331014Y1212036D01*
X330879Y1212320D01*
X330759Y1212610D01*
X330654Y1212906D01*
X330564Y1213207D01*
X330491Y1213512D01*
X330434Y1213821D01*
X330393Y1214133D01*
X330368Y1214446D01*
X330360Y1214760D01*
X330368Y1215074D01*
X330393Y1215387D01*
X330434Y1215699D01*
X330491Y1216007D01*
X330564Y1216313D01*
X330654Y1216614D01*
X330759Y1216910D01*
X330879Y1217200D01*
X331014Y1217484D01*
X331164Y1217760D01*
X331328Y1218028D01*
X331506Y1218287D01*
X331697Y1218536D01*
X331901Y1218775D01*
X332117Y1219003D01*
X332345Y1219219D01*
X332584Y1219423D01*
X332833Y1219614D01*
X333092Y1219792D01*
X333360Y1219956D01*
X333636Y1220106D01*
X333920Y1220241D01*
X334210Y1220361D01*
X334506Y1220466D01*
X334807Y1220555D01*
X335112Y1220629D01*
X335421Y1220686D01*
X335733Y1220727D01*
X336046Y1220752D01*
X336360Y1220760D01*
X344360D01*
X344674Y1220752D01*
D02*
G37*
G36*
X306674D02*
X306987Y1220727D01*
X307299Y1220686D01*
X307607Y1220629D01*
X307913Y1220555D01*
X308214Y1220466D01*
X308510Y1220361D01*
X308800Y1220241D01*
X309084Y1220106D01*
X309360Y1219956D01*
X309628Y1219792D01*
X309887Y1219614D01*
X310136Y1219423D01*
X310375Y1219219D01*
X310603Y1219003D01*
X310819Y1218775D01*
X311023Y1218536D01*
X311214Y1218287D01*
X311392Y1218028D01*
X311556Y1217760D01*
X311706Y1217484D01*
X311841Y1217200D01*
X311961Y1216910D01*
X312066Y1216614D01*
X312156Y1216313D01*
X312229Y1216007D01*
X312286Y1215699D01*
X312327Y1215387D01*
X312352Y1215074D01*
X312360Y1214760D01*
X312352Y1214446D01*
X312327Y1214133D01*
X312286Y1213821D01*
X312229Y1213512D01*
X312156Y1213207D01*
X312066Y1212906D01*
X311961Y1212610D01*
X311841Y1212320D01*
X311706Y1212036D01*
X311556Y1211760D01*
X311392Y1211492D01*
X311214Y1211233D01*
X311023Y1210984D01*
X310819Y1210745D01*
X310603Y1210517D01*
X310375Y1210301D01*
X310136Y1210097D01*
X309887Y1209906D01*
X309628Y1209728D01*
X309360Y1209564D01*
X309084Y1209414D01*
X308800Y1209279D01*
X308510Y1209158D01*
X308214Y1209054D01*
X307913Y1208964D01*
X307607Y1208891D01*
X307299Y1208834D01*
X306987Y1208793D01*
X306674Y1208768D01*
X306360Y1208760D01*
X294360D01*
X294046Y1208768D01*
X293733Y1208793D01*
X293421Y1208834D01*
X293113Y1208891D01*
X292807Y1208964D01*
X292506Y1209054D01*
X292210Y1209158D01*
X291920Y1209279D01*
X291636Y1209414D01*
X291360Y1209564D01*
X291092Y1209728D01*
X290833Y1209906D01*
X290584Y1210097D01*
X290345Y1210301D01*
X290117Y1210517D01*
X289901Y1210745D01*
X289697Y1210984D01*
X289506Y1211233D01*
X289328Y1211492D01*
X289164Y1211760D01*
X289014Y1212036D01*
X288879Y1212320D01*
X288759Y1212610D01*
X288654Y1212906D01*
X288564Y1213207D01*
X288491Y1213512D01*
X288434Y1213821D01*
X288393Y1214133D01*
X288368Y1214446D01*
X288360Y1214760D01*
X288368Y1215074D01*
X288393Y1215387D01*
X288434Y1215699D01*
X288491Y1216007D01*
X288564Y1216313D01*
X288654Y1216614D01*
X288759Y1216910D01*
X288879Y1217200D01*
X289014Y1217484D01*
X289164Y1217760D01*
X289328Y1218028D01*
X289506Y1218287D01*
X289697Y1218536D01*
X289901Y1218775D01*
X290117Y1219003D01*
X290345Y1219219D01*
X290584Y1219423D01*
X290833Y1219614D01*
X291092Y1219792D01*
X291360Y1219956D01*
X291636Y1220106D01*
X291920Y1220241D01*
X292210Y1220361D01*
X292506Y1220466D01*
X292807Y1220555D01*
X293113Y1220629D01*
X293421Y1220686D01*
X293733Y1220727D01*
X294046Y1220752D01*
X294360Y1220760D01*
X306360D01*
X306674Y1220752D01*
D02*
G37*
G36*
X868680Y1130270D02*
X754336D01*
Y1206500D01*
X868680D01*
Y1130270D01*
D02*
G37*
G36*
X344674Y1108352D02*
X344987Y1108327D01*
X345299Y1108286D01*
X345607Y1108229D01*
X345913Y1108156D01*
X346214Y1108066D01*
X346510Y1107962D01*
X346800Y1107841D01*
X347084Y1107706D01*
X347360Y1107556D01*
X347628Y1107392D01*
X347887Y1107214D01*
X348136Y1107023D01*
X348375Y1106819D01*
X348603Y1106603D01*
X348819Y1106375D01*
X349023Y1106136D01*
X349214Y1105887D01*
X349392Y1105628D01*
X349556Y1105360D01*
X349706Y1105084D01*
X349841Y1104800D01*
X349962Y1104510D01*
X350066Y1104214D01*
X350156Y1103913D01*
X350229Y1103607D01*
X350286Y1103299D01*
X350327Y1102987D01*
X350352Y1102674D01*
X350360Y1102360D01*
X350352Y1102046D01*
X350327Y1101733D01*
X350286Y1101421D01*
X350229Y1101113D01*
X350156Y1100807D01*
X350066Y1100506D01*
X349962Y1100210D01*
X349841Y1099920D01*
X349706Y1099636D01*
X349556Y1099360D01*
X349392Y1099092D01*
X349214Y1098833D01*
X349023Y1098584D01*
X348819Y1098345D01*
X348603Y1098117D01*
X348375Y1097901D01*
X348136Y1097697D01*
X347887Y1097506D01*
X347628Y1097328D01*
X347360Y1097164D01*
X347084Y1097014D01*
X346800Y1096879D01*
X346510Y1096758D01*
X346214Y1096654D01*
X345913Y1096564D01*
X345607Y1096491D01*
X345299Y1096434D01*
X344987Y1096393D01*
X344674Y1096368D01*
X344360Y1096360D01*
X336360D01*
X336046Y1096368D01*
X335733Y1096393D01*
X335421Y1096434D01*
X335112Y1096491D01*
X334807Y1096564D01*
X334506Y1096654D01*
X334210Y1096758D01*
X333920Y1096879D01*
X333636Y1097014D01*
X333360Y1097164D01*
X333092Y1097328D01*
X332833Y1097506D01*
X332584Y1097697D01*
X332345Y1097901D01*
X332117Y1098117D01*
X331901Y1098345D01*
X331697Y1098584D01*
X331506Y1098833D01*
X331328Y1099092D01*
X331164Y1099360D01*
X331014Y1099636D01*
X330879Y1099920D01*
X330759Y1100210D01*
X330654Y1100506D01*
X330564Y1100807D01*
X330491Y1101113D01*
X330434Y1101421D01*
X330393Y1101733D01*
X330368Y1102046D01*
X330360Y1102360D01*
X330368Y1102674D01*
X330393Y1102987D01*
X330434Y1103299D01*
X330491Y1103607D01*
X330564Y1103913D01*
X330654Y1104214D01*
X330759Y1104510D01*
X330879Y1104800D01*
X331014Y1105084D01*
X331164Y1105360D01*
X331328Y1105628D01*
X331506Y1105887D01*
X331697Y1106136D01*
X331901Y1106375D01*
X332117Y1106603D01*
X332345Y1106819D01*
X332584Y1107023D01*
X332833Y1107214D01*
X333092Y1107392D01*
X333360Y1107556D01*
X333636Y1107706D01*
X333920Y1107841D01*
X334210Y1107962D01*
X334506Y1108066D01*
X334807Y1108156D01*
X335112Y1108229D01*
X335421Y1108286D01*
X335733Y1108327D01*
X336046Y1108352D01*
X336360Y1108360D01*
X344360D01*
X344674Y1108352D01*
D02*
G37*
G36*
X306674D02*
X306987Y1108327D01*
X307299Y1108286D01*
X307607Y1108229D01*
X307913Y1108156D01*
X308214Y1108066D01*
X308510Y1107962D01*
X308800Y1107841D01*
X309084Y1107706D01*
X309360Y1107556D01*
X309628Y1107392D01*
X309887Y1107214D01*
X310136Y1107023D01*
X310375Y1106819D01*
X310603Y1106603D01*
X310819Y1106375D01*
X311023Y1106136D01*
X311214Y1105887D01*
X311392Y1105628D01*
X311556Y1105360D01*
X311706Y1105084D01*
X311841Y1104800D01*
X311961Y1104510D01*
X312066Y1104214D01*
X312156Y1103913D01*
X312229Y1103607D01*
X312286Y1103299D01*
X312327Y1102987D01*
X312352Y1102674D01*
X312360Y1102360D01*
X312352Y1102046D01*
X312327Y1101733D01*
X312286Y1101421D01*
X312229Y1101113D01*
X312156Y1100807D01*
X312066Y1100506D01*
X311961Y1100210D01*
X311841Y1099920D01*
X311706Y1099636D01*
X311556Y1099360D01*
X311392Y1099092D01*
X311214Y1098833D01*
X311023Y1098584D01*
X310819Y1098345D01*
X310603Y1098117D01*
X310375Y1097901D01*
X310136Y1097697D01*
X309887Y1097506D01*
X309628Y1097328D01*
X309360Y1097164D01*
X309084Y1097014D01*
X308800Y1096879D01*
X308510Y1096758D01*
X308214Y1096654D01*
X307913Y1096564D01*
X307607Y1096491D01*
X307299Y1096434D01*
X306987Y1096393D01*
X306674Y1096368D01*
X306360Y1096360D01*
X294360D01*
X294046Y1096368D01*
X293733Y1096393D01*
X293421Y1096434D01*
X293113Y1096491D01*
X292807Y1096564D01*
X292506Y1096654D01*
X292210Y1096758D01*
X291920Y1096879D01*
X291636Y1097014D01*
X291360Y1097164D01*
X291092Y1097328D01*
X290833Y1097506D01*
X290584Y1097697D01*
X290345Y1097901D01*
X290117Y1098117D01*
X289901Y1098345D01*
X289697Y1098584D01*
X289506Y1098833D01*
X289328Y1099092D01*
X289164Y1099360D01*
X289014Y1099636D01*
X288879Y1099920D01*
X288759Y1100210D01*
X288654Y1100506D01*
X288564Y1100807D01*
X288491Y1101113D01*
X288434Y1101421D01*
X288393Y1101733D01*
X288368Y1102046D01*
X288360Y1102360D01*
X288368Y1102674D01*
X288393Y1102987D01*
X288434Y1103299D01*
X288491Y1103607D01*
X288564Y1103913D01*
X288654Y1104214D01*
X288759Y1104510D01*
X288879Y1104800D01*
X289014Y1105084D01*
X289164Y1105360D01*
X289328Y1105628D01*
X289506Y1105887D01*
X289697Y1106136D01*
X289901Y1106375D01*
X290117Y1106603D01*
X290345Y1106819D01*
X290584Y1107023D01*
X290833Y1107214D01*
X291092Y1107392D01*
X291360Y1107556D01*
X291636Y1107706D01*
X291920Y1107841D01*
X292210Y1107962D01*
X292506Y1108066D01*
X292807Y1108156D01*
X293113Y1108229D01*
X293421Y1108286D01*
X293733Y1108327D01*
X294046Y1108352D01*
X294360Y1108360D01*
X306360D01*
X306674Y1108352D01*
D02*
G37*
G36*
X344314Y1082192D02*
X344627Y1082167D01*
X344939Y1082126D01*
X345247Y1082069D01*
X345553Y1081996D01*
X345854Y1081906D01*
X346150Y1081802D01*
X346440Y1081681D01*
X346724Y1081546D01*
X347000Y1081396D01*
X347268Y1081232D01*
X347527Y1081054D01*
X347776Y1080863D01*
X348015Y1080659D01*
X348243Y1080443D01*
X348459Y1080215D01*
X348663Y1079976D01*
X348854Y1079727D01*
X349032Y1079468D01*
X349196Y1079200D01*
X349346Y1078924D01*
X349481Y1078640D01*
X349602Y1078350D01*
X349706Y1078054D01*
X349796Y1077753D01*
X349869Y1077448D01*
X349926Y1077139D01*
X349967Y1076827D01*
X349992Y1076514D01*
X350000Y1076200D01*
X349992Y1075886D01*
X349967Y1075573D01*
X349926Y1075261D01*
X349869Y1074952D01*
X349796Y1074647D01*
X349706Y1074346D01*
X349602Y1074050D01*
X349481Y1073760D01*
X349346Y1073476D01*
X349196Y1073200D01*
X349032Y1072932D01*
X348854Y1072673D01*
X348663Y1072424D01*
X348459Y1072185D01*
X348243Y1071957D01*
X348015Y1071741D01*
X347776Y1071537D01*
X347527Y1071346D01*
X347268Y1071168D01*
X347000Y1071004D01*
X346724Y1070854D01*
X346440Y1070719D01*
X346150Y1070599D01*
X345854Y1070494D01*
X345553Y1070404D01*
X345247Y1070331D01*
X344939Y1070274D01*
X344627Y1070233D01*
X344314Y1070208D01*
X344000Y1070200D01*
X336000D01*
X335686Y1070208D01*
X335373Y1070233D01*
X335061Y1070274D01*
X334753Y1070331D01*
X334447Y1070404D01*
X334146Y1070494D01*
X333850Y1070599D01*
X333560Y1070719D01*
X333276Y1070854D01*
X333000Y1071004D01*
X332732Y1071168D01*
X332473Y1071346D01*
X332224Y1071537D01*
X331985Y1071741D01*
X331757Y1071957D01*
X331541Y1072185D01*
X331337Y1072424D01*
X331146Y1072673D01*
X330968Y1072932D01*
X330804Y1073200D01*
X330654Y1073476D01*
X330519Y1073760D01*
X330398Y1074050D01*
X330294Y1074346D01*
X330204Y1074647D01*
X330131Y1074952D01*
X330074Y1075261D01*
X330033Y1075573D01*
X330008Y1075886D01*
X330000Y1076200D01*
X330008Y1076514D01*
X330033Y1076827D01*
X330074Y1077139D01*
X330131Y1077448D01*
X330204Y1077753D01*
X330294Y1078054D01*
X330398Y1078350D01*
X330519Y1078640D01*
X330654Y1078924D01*
X330804Y1079200D01*
X330968Y1079468D01*
X331146Y1079727D01*
X331337Y1079976D01*
X331541Y1080215D01*
X331757Y1080443D01*
X331985Y1080659D01*
X332224Y1080863D01*
X332473Y1081054D01*
X332732Y1081232D01*
X333000Y1081396D01*
X333276Y1081546D01*
X333560Y1081681D01*
X333850Y1081802D01*
X334146Y1081906D01*
X334447Y1081996D01*
X334753Y1082069D01*
X335061Y1082126D01*
X335373Y1082167D01*
X335686Y1082192D01*
X336000Y1082200D01*
X344000D01*
X344314Y1082192D01*
D02*
G37*
G36*
X306314D02*
X306627Y1082167D01*
X306939Y1082126D01*
X307248Y1082069D01*
X307553Y1081996D01*
X307854Y1081906D01*
X308150Y1081802D01*
X308440Y1081681D01*
X308724Y1081546D01*
X309000Y1081396D01*
X309268Y1081232D01*
X309527Y1081054D01*
X309776Y1080863D01*
X310015Y1080659D01*
X310243Y1080443D01*
X310459Y1080215D01*
X310663Y1079976D01*
X310854Y1079727D01*
X311032Y1079468D01*
X311196Y1079200D01*
X311346Y1078924D01*
X311481Y1078640D01*
X311602Y1078350D01*
X311706Y1078054D01*
X311796Y1077753D01*
X311869Y1077448D01*
X311926Y1077139D01*
X311967Y1076827D01*
X311992Y1076514D01*
X312000Y1076200D01*
X311992Y1075886D01*
X311967Y1075573D01*
X311926Y1075261D01*
X311869Y1074952D01*
X311796Y1074647D01*
X311706Y1074346D01*
X311602Y1074050D01*
X311481Y1073760D01*
X311346Y1073476D01*
X311196Y1073200D01*
X311032Y1072932D01*
X310854Y1072673D01*
X310663Y1072424D01*
X310459Y1072185D01*
X310243Y1071957D01*
X310015Y1071741D01*
X309776Y1071537D01*
X309527Y1071346D01*
X309268Y1071168D01*
X309000Y1071004D01*
X308724Y1070854D01*
X308440Y1070719D01*
X308150Y1070599D01*
X307854Y1070494D01*
X307553Y1070404D01*
X307248Y1070331D01*
X306939Y1070274D01*
X306627Y1070233D01*
X306314Y1070208D01*
X306000Y1070200D01*
X294000D01*
X293686Y1070208D01*
X293373Y1070233D01*
X293061Y1070274D01*
X292753Y1070331D01*
X292447Y1070404D01*
X292146Y1070494D01*
X291850Y1070599D01*
X291560Y1070719D01*
X291276Y1070854D01*
X291000Y1071004D01*
X290732Y1071168D01*
X290473Y1071346D01*
X290224Y1071537D01*
X289985Y1071741D01*
X289757Y1071957D01*
X289541Y1072185D01*
X289337Y1072424D01*
X289146Y1072673D01*
X288968Y1072932D01*
X288804Y1073200D01*
X288654Y1073476D01*
X288519Y1073760D01*
X288398Y1074050D01*
X288294Y1074346D01*
X288204Y1074647D01*
X288131Y1074952D01*
X288074Y1075261D01*
X288033Y1075573D01*
X288008Y1075886D01*
X288000Y1076200D01*
X288008Y1076514D01*
X288033Y1076827D01*
X288074Y1077139D01*
X288131Y1077448D01*
X288204Y1077753D01*
X288294Y1078054D01*
X288398Y1078350D01*
X288519Y1078640D01*
X288654Y1078924D01*
X288804Y1079200D01*
X288968Y1079468D01*
X289146Y1079727D01*
X289337Y1079976D01*
X289541Y1080215D01*
X289757Y1080443D01*
X289985Y1080659D01*
X290224Y1080863D01*
X290473Y1081054D01*
X290732Y1081232D01*
X291000Y1081396D01*
X291276Y1081546D01*
X291560Y1081681D01*
X291850Y1081802D01*
X292146Y1081906D01*
X292447Y1081996D01*
X292753Y1082069D01*
X293061Y1082126D01*
X293373Y1082167D01*
X293686Y1082192D01*
X294000Y1082200D01*
X306000D01*
X306314Y1082192D01*
D02*
G37*
G36*
X344314Y969792D02*
X344627Y969767D01*
X344939Y969726D01*
X345247Y969669D01*
X345553Y969595D01*
X345854Y969506D01*
X346150Y969401D01*
X346440Y969281D01*
X346724Y969146D01*
X347000Y968996D01*
X347268Y968832D01*
X347527Y968654D01*
X347776Y968463D01*
X348015Y968259D01*
X348243Y968043D01*
X348459Y967815D01*
X348663Y967576D01*
X348854Y967327D01*
X349032Y967068D01*
X349196Y966800D01*
X349346Y966524D01*
X349481Y966240D01*
X349602Y965950D01*
X349706Y965654D01*
X349796Y965353D01*
X349869Y965048D01*
X349926Y964739D01*
X349967Y964427D01*
X349992Y964114D01*
X350000Y963800D01*
X349992Y963486D01*
X349967Y963173D01*
X349926Y962861D01*
X349869Y962552D01*
X349796Y962247D01*
X349706Y961946D01*
X349602Y961650D01*
X349481Y961360D01*
X349346Y961076D01*
X349196Y960800D01*
X349032Y960532D01*
X348854Y960273D01*
X348663Y960024D01*
X348459Y959785D01*
X348243Y959557D01*
X348015Y959341D01*
X347776Y959137D01*
X347527Y958946D01*
X347268Y958768D01*
X347000Y958604D01*
X346724Y958454D01*
X346440Y958319D01*
X346150Y958198D01*
X345854Y958094D01*
X345553Y958004D01*
X345247Y957931D01*
X344939Y957874D01*
X344627Y957833D01*
X344314Y957808D01*
X344000Y957800D01*
X336000D01*
X335686Y957808D01*
X335373Y957833D01*
X335061Y957874D01*
X334753Y957931D01*
X334447Y958004D01*
X334146Y958094D01*
X333850Y958198D01*
X333560Y958319D01*
X333276Y958454D01*
X333000Y958604D01*
X332732Y958768D01*
X332473Y958946D01*
X332224Y959137D01*
X331985Y959341D01*
X331757Y959557D01*
X331541Y959785D01*
X331337Y960024D01*
X331146Y960273D01*
X330968Y960532D01*
X330804Y960800D01*
X330654Y961076D01*
X330519Y961360D01*
X330398Y961650D01*
X330294Y961946D01*
X330204Y962247D01*
X330131Y962552D01*
X330074Y962861D01*
X330033Y963173D01*
X330008Y963486D01*
X330000Y963800D01*
X330008Y964114D01*
X330033Y964427D01*
X330074Y964739D01*
X330131Y965048D01*
X330204Y965353D01*
X330294Y965654D01*
X330398Y965950D01*
X330519Y966240D01*
X330654Y966524D01*
X330804Y966800D01*
X330968Y967068D01*
X331146Y967327D01*
X331337Y967576D01*
X331541Y967815D01*
X331757Y968043D01*
X331985Y968259D01*
X332224Y968463D01*
X332473Y968654D01*
X332732Y968832D01*
X333000Y968996D01*
X333276Y969146D01*
X333560Y969281D01*
X333850Y969401D01*
X334146Y969506D01*
X334447Y969595D01*
X334753Y969669D01*
X335061Y969726D01*
X335373Y969767D01*
X335686Y969792D01*
X336000Y969800D01*
X344000D01*
X344314Y969792D01*
D02*
G37*
G36*
X306314D02*
X306627Y969767D01*
X306939Y969726D01*
X307248Y969669D01*
X307553Y969595D01*
X307854Y969506D01*
X308150Y969401D01*
X308440Y969281D01*
X308724Y969146D01*
X309000Y968996D01*
X309268Y968832D01*
X309527Y968654D01*
X309776Y968463D01*
X310015Y968259D01*
X310243Y968043D01*
X310459Y967815D01*
X310663Y967576D01*
X310854Y967327D01*
X311032Y967068D01*
X311196Y966800D01*
X311346Y966524D01*
X311481Y966240D01*
X311602Y965950D01*
X311706Y965654D01*
X311796Y965353D01*
X311869Y965048D01*
X311926Y964739D01*
X311967Y964427D01*
X311992Y964114D01*
X312000Y963800D01*
X311992Y963486D01*
X311967Y963173D01*
X311926Y962861D01*
X311869Y962552D01*
X311796Y962247D01*
X311706Y961946D01*
X311602Y961650D01*
X311481Y961360D01*
X311346Y961076D01*
X311196Y960800D01*
X311032Y960532D01*
X310854Y960273D01*
X310663Y960024D01*
X310459Y959785D01*
X310243Y959557D01*
X310015Y959341D01*
X309776Y959137D01*
X309527Y958946D01*
X309268Y958768D01*
X309000Y958604D01*
X308724Y958454D01*
X308440Y958319D01*
X308150Y958198D01*
X307854Y958094D01*
X307553Y958004D01*
X307248Y957931D01*
X306939Y957874D01*
X306627Y957833D01*
X306314Y957808D01*
X306000Y957800D01*
X294000D01*
X293686Y957808D01*
X293373Y957833D01*
X293061Y957874D01*
X292753Y957931D01*
X292447Y958004D01*
X292146Y958094D01*
X291850Y958198D01*
X291560Y958319D01*
X291276Y958454D01*
X291000Y958604D01*
X290732Y958768D01*
X290473Y958946D01*
X290224Y959137D01*
X289985Y959341D01*
X289757Y959557D01*
X289541Y959785D01*
X289337Y960024D01*
X289146Y960273D01*
X288968Y960532D01*
X288804Y960800D01*
X288654Y961076D01*
X288519Y961360D01*
X288398Y961650D01*
X288294Y961946D01*
X288204Y962247D01*
X288131Y962552D01*
X288074Y962861D01*
X288033Y963173D01*
X288008Y963486D01*
X288000Y963800D01*
X288008Y964114D01*
X288033Y964427D01*
X288074Y964739D01*
X288131Y965048D01*
X288204Y965353D01*
X288294Y965654D01*
X288398Y965950D01*
X288519Y966240D01*
X288654Y966524D01*
X288804Y966800D01*
X288968Y967068D01*
X289146Y967327D01*
X289337Y967576D01*
X289541Y967815D01*
X289757Y968043D01*
X289985Y968259D01*
X290224Y968463D01*
X290473Y968654D01*
X290732Y968832D01*
X291000Y968996D01*
X291276Y969146D01*
X291560Y969281D01*
X291850Y969401D01*
X292146Y969506D01*
X292447Y969595D01*
X292753Y969669D01*
X293061Y969726D01*
X293373Y969767D01*
X293686Y969792D01*
X294000Y969800D01*
X306000D01*
X306314Y969792D01*
D02*
G37*
G36*
X868680Y955010D02*
X754336D01*
Y1031240D01*
X868680D01*
Y955010D01*
D02*
G37*
D10*
X574437Y1110788D02*
G03*
X574437Y1110788I-1000J0D01*
G01*
X364500Y1052700D02*
G03*
X364500Y1052700I-1000J0D01*
G01*
X364860Y1191260D02*
G03*
X364860Y1191260I-1000J0D01*
G01*
X977220Y950870D02*
G03*
X977220Y950870I-1000J0D01*
G01*
X711660Y1068790D02*
G03*
X711660Y1068790I-2000J0D01*
G01*
X585837Y1215102D02*
G03*
X585837Y1215102I-1000J0D01*
G01*
X711660Y1170390D02*
G03*
X711660Y1170390I-2000J0D01*
G01*
X979760Y1126130D02*
G03*
X979760Y1126130I-1000J0D01*
G01*
X672830Y935220D02*
G03*
X672830Y935220I-1000J0D01*
G01*
X551990Y969620D02*
G03*
X551990Y969620I-1000J0D01*
G01*
D11*
X908473Y1048622D02*
G03*
X883478Y1025313I-843J-24152D01*
G01*
Y958427D02*
G03*
X908473Y935118I24152J843D01*
G01*
X908462Y935118D02*
G03*
X930082Y958302I-782J22402D01*
G01*
Y1025438D02*
G03*
X908462Y1048622I-22402J782D01*
G01*
X908473Y1223612D02*
G03*
X883478Y1200303I-843J-24152D01*
G01*
Y1133417D02*
G03*
X908473Y1110108I24152J843D01*
G01*
X908462Y1110108D02*
G03*
X930082Y1133292I-782J22402D01*
G01*
Y1200428D02*
G03*
X908462Y1223612I-22402J782D01*
G01*
X558800Y1111283D02*
X608298Y1160780D01*
X509302D02*
X558800Y1210277D01*
X509302Y1160780D02*
X558800Y1111283D01*
Y1210277D02*
X608298Y1160780D01*
X883480Y958370D02*
Y1025370D01*
X930080Y958370D02*
Y1025370D01*
X1107440Y941100D02*
Y1040100D01*
X1056640D02*
X1107440D01*
X1056640Y941100D02*
Y1040100D01*
Y941100D02*
X1107440D01*
X973720Y1011370D02*
X1022720D01*
X973720Y972370D02*
X1022720D01*
Y1011370D01*
X973720Y972370D02*
Y1011370D01*
X691160Y1143790D02*
X726160D01*
X691160Y1083790D02*
X726160D01*
X691160D02*
Y1143790D01*
X726160Y1083790D02*
Y1143790D01*
X586959Y1224294D02*
X609586Y1246921D01*
X586959Y1224294D02*
X622314Y1188939D01*
X644941Y1211566D01*
X609586Y1246921D02*
X644941Y1211566D01*
X691160Y1245390D02*
X726160D01*
X691160Y1185390D02*
X726160D01*
X691160D02*
Y1245390D01*
X726160Y1185390D02*
Y1245390D01*
X883480Y1133360D02*
Y1200360D01*
X930080Y1133360D02*
Y1200360D01*
X976260Y1186630D02*
X1025260D01*
X976260Y1147630D02*
X1025260D01*
Y1186630D01*
X976260Y1147630D02*
Y1186630D01*
X1107440Y1117630D02*
Y1216630D01*
X1056640D02*
X1107440D01*
X1056640Y1117630D02*
Y1216630D01*
Y1117630D02*
X1107440D01*
X619830Y946220D02*
X723830D01*
Y1050220D01*
X619830D02*
X723830D01*
X619830Y946220D02*
Y1050220D01*
X565540Y945120D02*
X582540D01*
X565540Y975120D02*
X582540D01*
Y945120D02*
Y975120D01*
X565540Y945120D02*
Y975120D01*
D13*
X349999Y1062956D02*
G03*
X345994Y1066199I-3624J-381D01*
G01*
X347187Y1059699D02*
G03*
X350001Y1062937I-212J3026D01*
G01*
X347208Y1059701D02*
G03*
X345999Y1058208I142J-1351D01*
G01*
Y981792D02*
G03*
X347208Y980299I1351J-142D01*
G01*
X350001Y977063D02*
G03*
X347187Y980301I-3026J212D01*
G01*
X345994Y973801D02*
G03*
X349999Y977044I381J3624D01*
G01*
X350359Y1201516D02*
G03*
X346354Y1204759I-3624J-381D01*
G01*
X347547Y1198259D02*
G03*
X350361Y1201497I-212J3026D01*
G01*
X347568Y1198261D02*
G03*
X346359Y1196768I142J-1351D01*
G01*
Y1120352D02*
G03*
X347568Y1118859I1351J-142D01*
G01*
X350361Y1115623D02*
G03*
X347547Y1118861I-3026J212D01*
G01*
X346354Y1112361D02*
G03*
X350359Y1115604I381J3624D01*
G01*
X284000Y1066200D02*
Y1085200D01*
Y1066200D02*
X346000D01*
Y981800D02*
Y1058200D01*
X284000Y973800D02*
X346000D01*
X284000Y956400D02*
Y973800D01*
X284360Y1204760D02*
Y1223760D01*
Y1204760D02*
X346360D01*
Y1120360D02*
Y1196760D01*
X284360Y1112360D02*
X346360D01*
X284360Y1094960D02*
Y1112360D01*
D14*
X904139Y1051861D02*
G03*
X880989Y1025229I1741J-24891D01*
G01*
Y958511D02*
G03*
X904139Y931879I24891J-1741D01*
G01*
X909420D02*
G03*
X932571Y958511I-1741J24891D01*
G01*
Y1025229D02*
G03*
X909420Y1051861I-24891J1741D01*
G01*
X904139Y1226851D02*
G03*
X880989Y1200219I1741J-24891D01*
G01*
Y1133501D02*
G03*
X904139Y1106869I24891J-1741D01*
G01*
X909420D02*
G03*
X932571Y1133501I-1741J24891D01*
G01*
Y1200219D02*
G03*
X909420Y1226851I-24891J1741D01*
G01*
X500605Y1160780D02*
X558800Y1218975D01*
Y1102585D02*
X616995Y1160780D01*
X500605D02*
X558800Y1102585D01*
Y1218975D02*
X616995Y1160780D01*
X276500Y1083700D02*
X359500D01*
X276500Y956300D02*
Y1083700D01*
X359500Y956300D02*
Y1083700D01*
X276500Y956300D02*
X359500D01*
X276860Y1222260D02*
X359860D01*
X276860Y1094860D02*
Y1222260D01*
X359860Y1094860D02*
Y1222260D01*
X276860Y1094860D02*
X359860D01*
X880980Y958370D02*
Y1025370D01*
X904280Y931870D02*
X909280D01*
X932580Y958370D02*
Y1025370D01*
X904280Y1051870D02*
X909280D01*
X1109940Y938600D02*
Y1042600D01*
X1054140D02*
X1109940D01*
X1054140Y938600D02*
Y1042600D01*
Y938600D02*
X1109940D01*
X971220Y1028970D02*
X1025220D01*
X971220Y954770D02*
X1025220D01*
Y1028970D01*
X971220Y954770D02*
Y1028970D01*
X688660Y1073290D02*
Y1154290D01*
X728660D01*
Y1073290D02*
Y1154290D01*
X688660Y1073290D02*
X728660D01*
X579180Y1225708D02*
X608172Y1254699D01*
X579180Y1225708D02*
X623728Y1181161D01*
X652719Y1210152D01*
X608172Y1254699D02*
X652719Y1210152D01*
X688660Y1174890D02*
Y1255890D01*
X728660D01*
Y1174890D02*
Y1255890D01*
X688660Y1174890D02*
X728660D01*
X880980Y1133360D02*
Y1200360D01*
X904280Y1106860D02*
X909280D01*
X932580Y1133360D02*
Y1200360D01*
X904280Y1226860D02*
X909280D01*
X973760Y1204230D02*
X1027760D01*
X973760Y1130030D02*
X1027760D01*
Y1204230D01*
X973760Y1130030D02*
Y1204230D01*
X1109940Y1115130D02*
Y1219130D01*
X1054140D02*
X1109940D01*
X1054140Y1115130D02*
Y1219130D01*
Y1115130D02*
X1109940D01*
X617330Y942220D02*
X726330D01*
Y1054220D01*
X617330D02*
X726330D01*
X617330Y942220D02*
Y1054220D01*
X552990Y942620D02*
X595090D01*
Y977620D01*
X552990D02*
X595090D01*
X552990Y942620D02*
Y977620D01*
D16*
X545370Y1029970D02*
X549370D01*
X547370Y1027970D02*
Y1031970D01*
X515732Y1254965D02*
X525985Y1244712D01*
X500175Y1239408D02*
X510428Y1229155D01*
X525985Y1244712D01*
X500175Y1239408D02*
X515732Y1254965D01*
X279000Y1064700D02*
X344000D01*
X279000Y975300D02*
X344000D01*
Y1064700D01*
X279000Y975300D02*
Y1064700D01*
X284000Y960000D02*
Y1080000D01*
X279360Y1203260D02*
X344360D01*
X279360Y1113860D02*
X344360D01*
Y1203260D01*
X279360Y1113860D02*
Y1203260D01*
X284360Y1098560D02*
Y1218560D01*
X756330Y1059800D02*
X777830D01*
X756330Y1073800D02*
X777830D01*
Y1059800D02*
Y1073800D01*
X756330Y1059800D02*
Y1073800D01*
X1031860Y981120D02*
Y1002620D01*
X1045860Y981120D02*
Y1002620D01*
X1031860Y981120D02*
X1045860D01*
X1031860Y1002620D02*
X1045860D01*
X958480Y1002460D02*
Y1024460D01*
X943980Y1002460D02*
Y1024460D01*
X958480D01*
X943980Y1002460D02*
X958480D01*
X943980Y960550D02*
Y982550D01*
X958480Y960550D02*
Y982550D01*
X943980Y960550D02*
X958480D01*
X943980Y982550D02*
X958480D01*
X733160Y960550D02*
Y982550D01*
X747660Y960550D02*
Y982550D01*
X733160Y960550D02*
X747660D01*
X733160Y982550D02*
X747660D01*
X731410Y992650D02*
Y1026650D01*
X749410Y992650D02*
Y1026650D01*
X731410Y992650D02*
X749410D01*
X731410Y1026650D02*
X749410D01*
X732680Y1167910D02*
Y1201910D01*
X750680Y1167910D02*
Y1201910D01*
X732680Y1167910D02*
X750680D01*
X732680Y1201910D02*
X750680D01*
X734430Y1134540D02*
Y1156540D01*
X748930Y1134540D02*
Y1156540D01*
X734430Y1134540D02*
X748930D01*
X734430Y1156540D02*
X748930D01*
X671180Y1103040D02*
Y1124540D01*
X685180Y1103040D02*
Y1124540D01*
X671180Y1103040D02*
X685180D01*
X671180Y1124540D02*
X685180D01*
X497728Y1187599D02*
X512931Y1202802D01*
X487829Y1197498D02*
X503032Y1212701D01*
X512931Y1202802D01*
X487829Y1197498D02*
X497728Y1187599D01*
X485028Y1200299D02*
X500231Y1215502D01*
X475129Y1210198D02*
X490332Y1225401D01*
X500231Y1215502D01*
X475129Y1210198D02*
X485028Y1200299D01*
X514145Y1225438D02*
X529702Y1240995D01*
X524398Y1215185D02*
X539955Y1230742D01*
X514145Y1225438D02*
X524398Y1215185D01*
X529702Y1240995D02*
X539955Y1230742D01*
X526938Y1120345D02*
X542495Y1104788D01*
X516685Y1110092D02*
X532242Y1094535D01*
X516685Y1110092D02*
X526938Y1120345D01*
X532242Y1094535D02*
X542495Y1104788D01*
X603138Y1120345D02*
X618695Y1104788D01*
X592885Y1110092D02*
X608442Y1094535D01*
X592885Y1110092D02*
X603138Y1120345D01*
X608442Y1094535D02*
X618695Y1104788D01*
X644449Y1142348D02*
X659652Y1157551D01*
X654348Y1132449D02*
X669551Y1147652D01*
X644449Y1142348D02*
X654348Y1132449D01*
X659652Y1157551D02*
X669551Y1147652D01*
X570025Y1245758D02*
X585582Y1261315D01*
X580278Y1235505D02*
X595835Y1251062D01*
X570025Y1245758D02*
X580278Y1235505D01*
X585582Y1261315D02*
X595835Y1251062D01*
X646318Y1173275D02*
X661875Y1188832D01*
X636065Y1183528D02*
X651622Y1199085D01*
X661875Y1188832D01*
X636065Y1183528D02*
X646318Y1173275D01*
X671180Y1204640D02*
Y1226140D01*
X685180Y1204640D02*
Y1226140D01*
X671180Y1204640D02*
X685180D01*
X671180Y1226140D02*
X685180D01*
X958480Y1176450D02*
Y1198450D01*
X943980Y1176450D02*
Y1198450D01*
X958480D01*
X943980Y1176450D02*
X958480D01*
X943980Y1137080D02*
Y1159080D01*
X958480Y1137080D02*
Y1159080D01*
X943980Y1137080D02*
X958480D01*
X943980Y1159080D02*
X958480D01*
X1034400Y1156380D02*
Y1177880D01*
X1048400Y1156380D02*
Y1177880D01*
X1034400Y1156380D02*
X1048400D01*
X1034400Y1177880D02*
X1048400D01*
X417340Y1218040D02*
X451340D01*
X417340Y1200040D02*
X451340D01*
X417340D02*
Y1218040D01*
X451340Y1200040D02*
Y1218040D01*
X391550Y1170610D02*
X408550D01*
X391550Y1161110D02*
X408550D01*
X391550D02*
Y1170610D01*
X408550Y1161110D02*
Y1170610D01*
X391550Y1155370D02*
X408550D01*
X391550Y1145870D02*
X408550D01*
X391550D02*
Y1155370D01*
X408550Y1145870D02*
Y1155370D01*
X381620Y1099230D02*
Y1120730D01*
X395620Y1099230D02*
Y1120730D01*
X381620Y1099230D02*
X395620D01*
X381620Y1120730D02*
X395620D01*
X416190Y1098980D02*
Y1120980D01*
X401690Y1098980D02*
Y1120980D01*
X416190D01*
X401690Y1098980D02*
X416190D01*
X490870Y1138600D02*
Y1160100D01*
X476870Y1138600D02*
Y1160100D01*
X490870Y1160100D01*
X476870Y1138600D02*
X490870D01*
X469280D02*
Y1160100D01*
X455280Y1138600D02*
Y1160100D01*
X469280Y1160100D01*
X455280Y1138600D02*
X469280D01*
X417340Y1178450D02*
X451340D01*
X417340Y1196450D02*
X451340D01*
Y1178450D02*
Y1196450D01*
X417340Y1178450D02*
Y1196450D01*
X422320Y1242710D02*
X443820D01*
X422320Y1228710D02*
X443820D01*
X422320D02*
Y1242710D01*
X443820Y1228710D02*
Y1242710D01*
X514970Y950640D02*
Y972140D01*
X528970Y950640D02*
Y972140D01*
X514970Y950640D02*
X528970D01*
X514970Y972140D02*
X528970D01*
X488300Y950640D02*
Y972140D01*
X502300Y950640D02*
Y972140D01*
X488300Y950640D02*
X502300D01*
X488300Y972140D02*
X502300D01*
X450740Y979660D02*
X468740D01*
X450740Y945660D02*
X468740D01*
Y979660D01*
X450740Y945660D02*
Y979660D01*
X404230Y945310D02*
Y967310D01*
X418730Y945310D02*
Y967310D01*
X404230Y945310D02*
X418730D01*
X404230Y967310D02*
X418730D01*
X398160Y945560D02*
Y967060D01*
X384160Y945560D02*
Y967060D01*
X398160D01*
X384160Y945560D02*
X398160D01*
X451000Y1021000D02*
Y1039000D01*
X485000Y1021000D02*
Y1039000D01*
X451000D02*
X485000D01*
X451000Y1021000D02*
X485000D01*
X388990Y1184070D02*
Y1206070D01*
X403490Y1184070D02*
Y1206070D01*
X388990Y1184070D02*
X403490D01*
X388990Y1206070D02*
X403490D01*
X391840Y1242710D02*
X413340D01*
X391840Y1228710D02*
X413340D01*
X391840D02*
Y1242710D01*
X413340Y1228710D02*
Y1242710D01*
X756330Y1233790D02*
X777830D01*
X756330Y1247790D02*
X777830D01*
Y1233790D02*
Y1247790D01*
X756330Y1233790D02*
Y1247790D01*
X517323Y1257616D02*
X528636Y1246303D01*
X497524Y1237817D02*
X508837Y1226504D01*
X528636Y1246303D01*
X497524Y1237817D02*
X517323Y1257616D01*
X509544Y1238524D02*
X516616Y1245595D01*
X509544D02*
X516616Y1238524D01*
X767080Y1061800D02*
Y1071800D01*
X762080Y1066800D02*
X772080D01*
X753080Y1059300D02*
X781080D01*
X753080Y1074300D02*
X781080D01*
Y1059300D02*
Y1074300D01*
X753080Y1059300D02*
Y1074300D01*
X1033860Y991870D02*
X1043860D01*
X1038860Y986870D02*
Y996870D01*
X1031360Y977870D02*
Y1005870D01*
X1046360Y977870D02*
Y1005870D01*
X1031360Y977870D02*
X1046360D01*
X1031360Y1005870D02*
X1046360D01*
X946230Y1013460D02*
X956230D01*
X951230Y1008460D02*
Y1018460D01*
X959230Y999460D02*
Y1027460D01*
X943230Y999460D02*
Y1027460D01*
X959230D01*
X943230Y999460D02*
X959230D01*
X946230Y971550D02*
X956230D01*
X951230Y966550D02*
Y976550D01*
X943230Y957550D02*
Y985550D01*
X959230Y957550D02*
Y985550D01*
X943230Y957550D02*
X959230D01*
X943230Y985550D02*
X959230D01*
X735410Y971550D02*
X745410D01*
X740410Y966550D02*
Y976550D01*
X732410Y957550D02*
Y985550D01*
X748410Y957550D02*
Y985550D01*
X732410Y957550D02*
X748410D01*
X732410Y985550D02*
X748410D01*
X735410Y1009650D02*
X745410D01*
X740410Y1004650D02*
Y1014650D01*
X730910Y989650D02*
Y1029650D01*
X749910Y989650D02*
Y1029650D01*
X730910Y989650D02*
X749910D01*
X730910Y1029650D02*
X749910D01*
X736680Y1184910D02*
X746680D01*
X741680Y1179910D02*
Y1189910D01*
X732180Y1164910D02*
Y1204910D01*
X751180Y1164910D02*
Y1204910D01*
X732180Y1164910D02*
X751180D01*
X732180Y1204910D02*
X751180D01*
X736680Y1145540D02*
X746680D01*
X741680Y1140540D02*
Y1150540D01*
X733680Y1131540D02*
Y1159540D01*
X749680Y1131540D02*
Y1159540D01*
X733680Y1131540D02*
X749680D01*
X733680Y1159540D02*
X749680D01*
X673180Y1113790D02*
X683180D01*
X678180Y1108790D02*
Y1118790D01*
X670680Y1099790D02*
Y1127790D01*
X685680Y1099790D02*
Y1127790D01*
X670680Y1099790D02*
X685680D01*
X670680Y1127790D02*
X685680D01*
X496844Y1203686D02*
X503916Y1196615D01*
X496844Y1196615D02*
X503916Y1203686D01*
X495784Y1184947D02*
X515583Y1204746D01*
X485177Y1195554D02*
X504976Y1215353D01*
X515583Y1204746D01*
X485177Y1195554D02*
X495784Y1184947D01*
X484145Y1216386D02*
X491216Y1209314D01*
X484145Y1209314D02*
X491216Y1216386D01*
X483084Y1197647D02*
X502883Y1217446D01*
X472477Y1208254D02*
X492276Y1228053D01*
X502883Y1217446D01*
X472477Y1208254D02*
X483084Y1197647D01*
X523515Y1231626D02*
X530586Y1224554D01*
X523515Y1224554D02*
X530586Y1231626D01*
X511494Y1223847D02*
X531293Y1243646D01*
X522807Y1212534D02*
X542606Y1232333D01*
X511494Y1223847D02*
X522807Y1212534D01*
X531293Y1243646D02*
X542606Y1232333D01*
X526054Y1103904D02*
X533125Y1110975D01*
X526054D02*
X533125Y1103904D01*
X525347Y1122996D02*
X545146Y1103197D01*
X514034Y1111683D02*
X533833Y1091884D01*
X514034Y1111683D02*
X525347Y1122996D01*
X533833Y1091884D02*
X545146Y1103197D01*
X602254Y1103904D02*
X609325Y1110975D01*
X602254D02*
X609325Y1103904D01*
X601547Y1122996D02*
X621346Y1103197D01*
X590234Y1111683D02*
X610033Y1091884D01*
X590234Y1111683D02*
X601547Y1122996D01*
X610033Y1091884D02*
X621346Y1103197D01*
X653465Y1148536D02*
X660536Y1141464D01*
X653465D02*
X660536Y1148536D01*
X641797Y1140404D02*
X661596Y1160203D01*
X652404Y1129797D02*
X672203Y1149596D01*
X641797Y1140404D02*
X652404Y1129797D01*
X661596Y1160203D02*
X672203Y1149596D01*
X579394Y1251945D02*
X586466Y1244874D01*
X579394Y1244874D02*
X586466Y1251945D01*
X567374Y1244167D02*
X587173Y1263966D01*
X578687Y1232854D02*
X598486Y1252653D01*
X567374Y1244167D02*
X578687Y1232854D01*
X587173Y1263966D02*
X598486Y1252653D01*
X645434Y1189716D02*
X652505Y1182645D01*
X645434D02*
X652505Y1189716D01*
X644727Y1170624D02*
X664526Y1190423D01*
X633414Y1181937D02*
X653213Y1201736D01*
X664526Y1190423D01*
X633414Y1181937D02*
X644727Y1170624D01*
X673180Y1215390D02*
X683180D01*
X678180Y1210390D02*
Y1220390D01*
X670680Y1201390D02*
Y1229390D01*
X685680Y1201390D02*
Y1229390D01*
X670680Y1201390D02*
X685680D01*
X670680Y1229390D02*
X685680D01*
X946230Y1187450D02*
X956230D01*
X951230Y1182450D02*
Y1192450D01*
X959230Y1173450D02*
Y1201450D01*
X943230Y1173450D02*
Y1201450D01*
X959230D01*
X943230Y1173450D02*
X959230D01*
X946230Y1148080D02*
X956230D01*
X951230Y1143080D02*
Y1153080D01*
X943230Y1134080D02*
Y1162080D01*
X959230Y1134080D02*
Y1162080D01*
X943230Y1134080D02*
X959230D01*
X943230Y1162080D02*
X959230D01*
X1036400Y1167130D02*
X1046400D01*
X1041400Y1162130D02*
Y1172130D01*
X1033900Y1153130D02*
Y1181130D01*
X1048900Y1153130D02*
Y1181130D01*
X1033900Y1153130D02*
X1048900D01*
X1033900Y1181130D02*
X1048900D01*
X434340Y1204040D02*
Y1214040D01*
X429340Y1209040D02*
X439340D01*
X414340Y1218540D02*
X454340D01*
X414340Y1199540D02*
X454340D01*
X414340D02*
Y1218540D01*
X454340Y1199540D02*
Y1218540D01*
X400050Y1161110D02*
Y1170610D01*
X395300Y1165860D02*
X404800D01*
X388050Y1171360D02*
X412050D01*
X388050Y1160360D02*
X412050D01*
X388050D02*
Y1171360D01*
X412050Y1160360D02*
Y1171360D01*
X400050Y1145870D02*
Y1155370D01*
X395300Y1150620D02*
X404800D01*
X388050Y1156120D02*
X412050D01*
X388050Y1145120D02*
X412050D01*
X388050D02*
Y1156120D01*
X412050Y1145120D02*
Y1156120D01*
X383620Y1109980D02*
X393620D01*
X388620Y1104980D02*
Y1114980D01*
X381120Y1095980D02*
Y1123980D01*
X396120Y1095980D02*
Y1123980D01*
X381120Y1095980D02*
X396120D01*
X381120Y1123980D02*
X396120D01*
X403940Y1109980D02*
X413940D01*
X408940Y1104980D02*
Y1114980D01*
X416940Y1095980D02*
Y1123980D01*
X400940Y1095980D02*
Y1123980D01*
X416940D01*
X400940Y1095980D02*
X416940D01*
X478870Y1149350D02*
X488870D01*
X483870Y1144350D02*
Y1154350D01*
X491370Y1163350D02*
X491370Y1135350D01*
X476370D02*
Y1163350D01*
X491370D01*
X476370Y1135350D02*
X491370D01*
X457280Y1149350D02*
X467280D01*
X462280Y1144350D02*
Y1154350D01*
X469780Y1163350D02*
X469780Y1135350D01*
X454780D02*
Y1163350D01*
X469780D01*
X454780Y1135350D02*
X469780D01*
X434340Y1182450D02*
Y1192450D01*
X429340Y1187450D02*
X439340D01*
X414340Y1177950D02*
X454340D01*
X414340Y1196950D02*
X454340D01*
Y1177950D02*
Y1196950D01*
X414340Y1177950D02*
Y1196950D01*
X433070Y1230710D02*
Y1240710D01*
X428070Y1235710D02*
X438070D01*
X419070Y1243210D02*
X447070D01*
X419070Y1228210D02*
X447070D01*
X419070D02*
Y1243210D01*
X447070Y1228210D02*
Y1243210D01*
X516970Y961390D02*
X526970D01*
X521970Y956390D02*
Y966390D01*
X514470Y947390D02*
Y975390D01*
X529470Y947390D02*
Y975390D01*
X514470Y947390D02*
X529470D01*
X514470Y975390D02*
X529470D01*
X490300Y961390D02*
X500300D01*
X495300Y956390D02*
Y966390D01*
X487800Y947390D02*
Y975390D01*
X502800Y947390D02*
Y975390D01*
X487800Y947390D02*
X502800D01*
X487800Y975390D02*
X502800D01*
X450240Y982660D02*
X469240D01*
X450240Y942660D02*
X469240D01*
Y982660D01*
X450240Y942660D02*
Y982660D01*
X459740Y957660D02*
Y967660D01*
X454740Y962660D02*
X464740D01*
X406480Y956310D02*
X416480D01*
X411480Y951310D02*
Y961310D01*
X403480Y942310D02*
Y970310D01*
X419480Y942310D02*
Y970310D01*
X403480Y942310D02*
X419480D01*
X403480Y970310D02*
X419480D01*
X386160Y956310D02*
X396160D01*
X391160Y951310D02*
Y961310D01*
X398660Y942310D02*
Y970310D01*
X383660Y942310D02*
Y970310D01*
X398660D01*
X383660Y942310D02*
X398660D01*
X448000Y1020500D02*
Y1039500D01*
X488000Y1020500D02*
Y1039500D01*
X448000D02*
X488000D01*
X448000Y1020500D02*
X488000D01*
X463000Y1030000D02*
X473000D01*
X468000Y1025000D02*
Y1035000D01*
X391240Y1195070D02*
X401240D01*
X396240Y1190070D02*
Y1200070D01*
X388240Y1181070D02*
Y1209070D01*
X404240Y1181070D02*
Y1209070D01*
X388240Y1181070D02*
X404240D01*
X388240Y1209070D02*
X404240D01*
X402590Y1230710D02*
Y1240710D01*
X397590Y1235710D02*
X407590D01*
X388590Y1243210D02*
X416590D01*
X388590Y1228210D02*
X416590D01*
X388590D02*
Y1243210D01*
X416590Y1228210D02*
Y1243210D01*
X767080Y1235790D02*
Y1245790D01*
X762080Y1240790D02*
X772080D01*
X753080Y1233290D02*
X781080D01*
X753080Y1248290D02*
X781080D01*
Y1233290D02*
Y1248290D01*
X753080Y1233290D02*
Y1248290D01*
D37*
X558800Y1160780D02*
D03*
D38*
X517364Y1166861D02*
D03*
X520899Y1170397D02*
D03*
X524435Y1173932D02*
D03*
X527970Y1177468D02*
D03*
X531506Y1181003D02*
D03*
X535041Y1184539D02*
D03*
X538577Y1188074D02*
D03*
X542112Y1191610D02*
D03*
X545648Y1195145D02*
D03*
X549183Y1198681D02*
D03*
X552719Y1202216D02*
D03*
X600237Y1154699D02*
D03*
X596701Y1151163D02*
D03*
X593165Y1147628D02*
D03*
X589630Y1144092D02*
D03*
X586094Y1140557D02*
D03*
X582559Y1137021D02*
D03*
X579023Y1133486D02*
D03*
X575488Y1129950D02*
D03*
X571952Y1126415D02*
D03*
X568417Y1122879D02*
D03*
X564881Y1119343D02*
D03*
D39*
X552719D02*
D03*
X549183Y1122879D02*
D03*
X545648Y1126415D02*
D03*
X542112Y1129950D02*
D03*
X538577Y1133486D02*
D03*
X535041Y1137021D02*
D03*
X531506Y1140557D02*
D03*
X527970Y1144092D02*
D03*
X524435Y1147628D02*
D03*
X520899Y1151163D02*
D03*
X517364Y1154699D02*
D03*
X564881Y1202216D02*
D03*
X568417Y1198681D02*
D03*
X571952Y1195145D02*
D03*
X575488Y1191610D02*
D03*
X579023Y1188074D02*
D03*
X582559Y1184539D02*
D03*
X586094Y1181003D02*
D03*
X589630Y1177468D02*
D03*
X593165Y1173932D02*
D03*
X596701Y1170397D02*
D03*
X600237Y1166861D02*
D03*
D40*
X518383Y1247363D02*
D03*
X507777Y1236757D02*
D03*
X521747Y1222787D02*
D03*
X532353Y1233393D02*
D03*
X577627Y1243107D02*
D03*
X588233Y1253713D02*
D03*
X654273Y1191483D02*
D03*
X643667Y1180877D02*
D03*
D41*
X351500Y1052000D02*
D03*
Y1044000D02*
D03*
Y996000D02*
D03*
Y988000D02*
D03*
X351860Y1190560D02*
D03*
Y1182560D02*
D03*
Y1134560D02*
D03*
Y1126560D02*
D03*
D42*
X351500Y1037500D02*
D03*
Y1032500D02*
D03*
Y1027500D02*
D03*
Y1022500D02*
D03*
Y1017500D02*
D03*
Y1012500D02*
D03*
Y1007500D02*
D03*
Y1002500D02*
D03*
X351860Y1176060D02*
D03*
Y1171060D02*
D03*
Y1166060D02*
D03*
Y1161060D02*
D03*
Y1156060D02*
D03*
Y1151060D02*
D03*
Y1146060D02*
D03*
Y1141060D02*
D03*
D43*
X775080Y1066800D02*
D03*
X759080D02*
D03*
X425070Y1235710D02*
D03*
X441070D02*
D03*
X394590D02*
D03*
X410590D02*
D03*
X775080Y1240790D02*
D03*
X759080D02*
D03*
D44*
X1038860Y983870D02*
D03*
Y999870D02*
D03*
X678180Y1105790D02*
D03*
Y1121790D02*
D03*
Y1207390D02*
D03*
Y1223390D02*
D03*
X1041400Y1159130D02*
D03*
Y1175130D02*
D03*
X388620Y1101980D02*
D03*
Y1117980D02*
D03*
X483870Y1157350D02*
D03*
Y1141350D02*
D03*
X462280Y1157350D02*
D03*
Y1141350D02*
D03*
X521970Y953390D02*
D03*
Y969390D02*
D03*
X495300Y953390D02*
D03*
Y969390D02*
D03*
X391160Y964310D02*
D03*
Y948310D02*
D03*
D45*
X979170Y1017720D02*
D03*
X991870D02*
D03*
X1004570D02*
D03*
X1017270D02*
D03*
Y966020D02*
D03*
X1004570D02*
D03*
X991870D02*
D03*
X979170D02*
D03*
X981710Y1192980D02*
D03*
X994410D02*
D03*
X1007110D02*
D03*
X1019810D02*
D03*
Y1141280D02*
D03*
X1007110D02*
D03*
X994410D02*
D03*
X981710D02*
D03*
D46*
X951230Y1020960D02*
D03*
Y1005960D02*
D03*
X951230Y964050D02*
D03*
Y979050D02*
D03*
X740410Y964050D02*
D03*
Y979050D02*
D03*
X741680Y1138040D02*
D03*
Y1153040D02*
D03*
X951230Y1194950D02*
D03*
Y1179950D02*
D03*
X951230Y1140580D02*
D03*
Y1155580D02*
D03*
X408940Y1117480D02*
D03*
Y1102480D02*
D03*
X411480Y948810D02*
D03*
Y963810D02*
D03*
X396240Y1187570D02*
D03*
Y1202570D02*
D03*
D47*
X740410Y996150D02*
D03*
Y1023150D02*
D03*
X741680Y1171410D02*
D03*
Y1198410D02*
D03*
X459740Y976160D02*
D03*
Y949160D02*
D03*
D48*
X760730Y1042289D02*
D03*
X773430D02*
D03*
X786130D02*
D03*
X798830D02*
D03*
X811530D02*
D03*
X824230D02*
D03*
X836930D02*
D03*
X849630D02*
D03*
X862330D02*
D03*
Y943991D02*
D03*
X849630D02*
D03*
X836930D02*
D03*
X824230D02*
D03*
X811530D02*
D03*
X798830D02*
D03*
X786130D02*
D03*
X773430D02*
D03*
X760730D02*
D03*
Y1217549D02*
D03*
X773430D02*
D03*
X786130D02*
D03*
X798830D02*
D03*
X811530D02*
D03*
X824230D02*
D03*
X836930D02*
D03*
X849630D02*
D03*
X862330D02*
D03*
Y1119251D02*
D03*
X849630D02*
D03*
X836930D02*
D03*
X824230D02*
D03*
X811530D02*
D03*
X798830D02*
D03*
X786130D02*
D03*
X773430D02*
D03*
X760730D02*
D03*
D49*
X708660Y1089790D02*
D03*
Y1137790D02*
D03*
Y1191390D02*
D03*
Y1239390D02*
D03*
D50*
X506037Y1205807D02*
D03*
X494723Y1194493D02*
D03*
X493337Y1218507D02*
D03*
X482023Y1207193D02*
D03*
X651343Y1139343D02*
D03*
X662657Y1150657D02*
D03*
D51*
X524287Y1112743D02*
D03*
X534893Y1102137D02*
D03*
X600487Y1112743D02*
D03*
X611093Y1102137D02*
D03*
D52*
X610293Y1240557D02*
D03*
X638577Y1212273D02*
D03*
X621607Y1195303D02*
D03*
X593323Y1223587D02*
D03*
D53*
X420840Y1209040D02*
D03*
X447840D02*
D03*
Y1187450D02*
D03*
X420840D02*
D03*
X454500Y1030000D02*
D03*
X481500D02*
D03*
D54*
X392550Y1165860D02*
D03*
X407550D02*
D03*
X392550Y1150620D02*
D03*
X407550D02*
D03*
D55*
X671830Y1038470D02*
D03*
Y957970D02*
D03*
D56*
X585740Y969620D02*
D03*
Y960120D02*
D03*
Y950620D02*
D03*
X562340D02*
D03*
Y960120D02*
D03*
Y969620D02*
D03*
D57*
X512620Y1029970D02*
D03*
X582120D02*
D03*
D58*
X906780Y1016270D02*
D03*
Y967470D02*
D03*
X1082040Y952500D02*
D03*
X906780Y1191260D02*
D03*
Y1142460D02*
D03*
X1082040Y1129030D02*
D03*
D59*
Y1016000D02*
D03*
Y1192530D02*
D03*
D60*
X1145540Y1022350D02*
D03*
Y1149350D02*
D03*
Y1123950D02*
D03*
Y1098550D02*
D03*
Y1073150D02*
D03*
Y1047750D02*
D03*
D61*
X391000Y1058000D02*
D03*
X849630Y928370D02*
D03*
X836930D02*
D03*
X426720Y1165860D02*
D03*
X741680Y1084580D02*
D03*
X373380Y1158240D02*
D03*
X716280Y1007110D02*
D03*
X966470Y1014730D02*
D03*
X459740Y989330D02*
D03*
X725170Y1021080D02*
D03*
X1007110Y1123950D02*
D03*
X1004570Y948690D02*
D03*
X1054100Y1159510D02*
D03*
X1051560Y984250D02*
D03*
X1041400Y1016000D02*
D03*
Y1192530D02*
D03*
Y1040130D02*
D03*
Y1211580D02*
D03*
X535940Y1206500D02*
D03*
X527050Y1198880D02*
D03*
X373380Y1176020D02*
D03*
X408940Y1135380D02*
D03*
X391160Y1129030D02*
D03*
X608330Y1186180D02*
D03*
X640080Y1150620D02*
D03*
X632460Y1159510D02*
D03*
X624840Y1168400D02*
D03*
X612140Y1121410D02*
D03*
X582930Y1097280D02*
D03*
X580390Y1108710D02*
D03*
X568960Y1092200D02*
D03*
X468630Y1236980D02*
D03*
X391160Y979170D02*
D03*
X543560Y1215390D02*
D03*
X374650Y1214120D02*
D03*
X678180Y1141730D02*
D03*
X708660Y1214120D02*
D03*
X499110Y1130300D02*
D03*
X408480Y1187570D02*
D03*
X849630Y1097280D02*
D03*
X836930D02*
D03*
X786130Y1019810D02*
D03*
Y1196340D02*
D03*
X510540Y1182370D02*
D03*
X824230Y1066800D02*
D03*
X811530D02*
D03*
X798830D02*
D03*
X824230Y1240790D02*
D03*
X811530D02*
D03*
X798830D02*
D03*
X435610Y1150620D02*
D03*
X576580Y1221740D02*
D03*
X582930Y1210310D02*
D03*
X599440Y1129030D02*
D03*
X513080Y1000760D02*
D03*
X521970Y981710D02*
D03*
M02*
