%TF.GenerationSoftware,Altium Limited,Altium Designer,22.1.2 (22)*%
G04 Layer_Color=32768*
%FSLAX44Y44*%
%MOMM*%
%TF.SameCoordinates,D2A5B157-11BA-4D30-A4C3-CA4352B12235*%
%TF.FilePolarity,Positive*%
%TF.FileFunction,Other,Mechanical_15*%
%TF.Part,Single*%
G01*
G75*
%TA.AperFunction,NonConductor*%
%ADD53C,0.0500*%
%ADD75C,0.1000*%
G36*
X868680Y955010D02*
X754336D01*
Y1031240D01*
X868680D01*
Y955010D01*
D02*
G37*
G36*
Y1130270D02*
X754336D01*
Y1206500D01*
X868680D01*
Y1130270D01*
D02*
G37*
D53*
X904139Y1051861D02*
G03*
X880989Y1025229I1741J-24891D01*
G01*
Y958511D02*
G03*
X904139Y931879I24891J-1741D01*
G01*
X909420D02*
G03*
X932571Y958511I-1741J24891D01*
G01*
Y1025229D02*
G03*
X909420Y1051861I-24891J1741D01*
G01*
X904139Y1226851D02*
G03*
X880989Y1200219I1741J-24891D01*
G01*
Y1133501D02*
G03*
X904139Y1106869I24891J-1741D01*
G01*
X909420D02*
G03*
X932571Y1133501I-1741J24891D01*
G01*
Y1200219D02*
G03*
X909420Y1226851I-24891J1741D01*
G01*
X500605Y1160780D02*
X558800Y1218975D01*
Y1102585D02*
X616995Y1160780D01*
X500605D02*
X558800Y1102585D01*
Y1218975D02*
X616995Y1160780D01*
X276500Y1083700D02*
X359500D01*
X276500Y956300D02*
Y1083700D01*
X359500Y956300D02*
Y1083700D01*
X276500Y956300D02*
X359500D01*
X276860Y1222260D02*
X359860D01*
X276860Y1094860D02*
Y1222260D01*
X359860Y1094860D02*
Y1222260D01*
X276860Y1094860D02*
X359860D01*
X880980Y958370D02*
Y1025370D01*
X904280Y931870D02*
X909280D01*
X932580Y958370D02*
Y1025370D01*
X904280Y1051870D02*
X909280D01*
X1109940Y938600D02*
Y1042600D01*
X1054140D02*
X1109940D01*
X1054140Y938600D02*
Y1042600D01*
Y938600D02*
X1109940D01*
X971220Y1028970D02*
X1025220D01*
X971220Y954770D02*
X1025220D01*
Y1028970D01*
X971220Y954770D02*
Y1028970D01*
X688660Y1073290D02*
Y1154290D01*
X728660D01*
Y1073290D02*
Y1154290D01*
X688660Y1073290D02*
X728660D01*
X579180Y1225708D02*
X608172Y1254699D01*
X579180Y1225708D02*
X623728Y1181161D01*
X652719Y1210152D01*
X608172Y1254699D02*
X652719Y1210152D01*
X688660Y1174890D02*
Y1255890D01*
X728660D01*
Y1174890D02*
Y1255890D01*
X688660Y1174890D02*
X728660D01*
X880980Y1133360D02*
Y1200360D01*
X904280Y1106860D02*
X909280D01*
X932580Y1133360D02*
Y1200360D01*
X904280Y1226860D02*
X909280D01*
X973760Y1204230D02*
X1027760D01*
X973760Y1130030D02*
X1027760D01*
Y1204230D01*
X973760Y1130030D02*
Y1204230D01*
X1109940Y1115130D02*
Y1219130D01*
X1054140D02*
X1109940D01*
X1054140Y1115130D02*
Y1219130D01*
Y1115130D02*
X1109940D01*
X617330Y942220D02*
X726330D01*
Y1054220D01*
X617330D02*
X726330D01*
X617330Y942220D02*
Y1054220D01*
X552990Y942620D02*
X595090D01*
Y977620D01*
X552990D02*
X595090D01*
X552990Y942620D02*
Y977620D01*
D75*
X517323Y1257616D02*
X528636Y1246303D01*
X497524Y1237817D02*
X508837Y1226504D01*
X528636Y1246303D01*
X497524Y1237817D02*
X517323Y1257616D01*
X509544Y1238524D02*
X516616Y1245595D01*
X509544D02*
X516616Y1238524D01*
X767080Y1061800D02*
Y1071800D01*
X762080Y1066800D02*
X772080D01*
X753080Y1059300D02*
X781080D01*
X753080Y1074300D02*
X781080D01*
Y1059300D02*
Y1074300D01*
X753080Y1059300D02*
Y1074300D01*
X1033860Y991870D02*
X1043860D01*
X1038860Y986870D02*
Y996870D01*
X1031360Y977870D02*
Y1005870D01*
X1046360Y977870D02*
Y1005870D01*
X1031360Y977870D02*
X1046360D01*
X1031360Y1005870D02*
X1046360D01*
X946230Y1013460D02*
X956230D01*
X951230Y1008460D02*
Y1018460D01*
X959230Y999460D02*
Y1027460D01*
X943230Y999460D02*
Y1027460D01*
X959230D01*
X943230Y999460D02*
X959230D01*
X946230Y971550D02*
X956230D01*
X951230Y966550D02*
Y976550D01*
X943230Y957550D02*
Y985550D01*
X959230Y957550D02*
Y985550D01*
X943230Y957550D02*
X959230D01*
X943230Y985550D02*
X959230D01*
X735410Y971550D02*
X745410D01*
X740410Y966550D02*
Y976550D01*
X732410Y957550D02*
Y985550D01*
X748410Y957550D02*
Y985550D01*
X732410Y957550D02*
X748410D01*
X732410Y985550D02*
X748410D01*
X735410Y1009650D02*
X745410D01*
X740410Y1004650D02*
Y1014650D01*
X730910Y989650D02*
Y1029650D01*
X749910Y989650D02*
Y1029650D01*
X730910Y989650D02*
X749910D01*
X730910Y1029650D02*
X749910D01*
X736680Y1184910D02*
X746680D01*
X741680Y1179910D02*
Y1189910D01*
X732180Y1164910D02*
Y1204910D01*
X751180Y1164910D02*
Y1204910D01*
X732180Y1164910D02*
X751180D01*
X732180Y1204910D02*
X751180D01*
X736680Y1145540D02*
X746680D01*
X741680Y1140540D02*
Y1150540D01*
X733680Y1131540D02*
Y1159540D01*
X749680Y1131540D02*
Y1159540D01*
X733680Y1131540D02*
X749680D01*
X733680Y1159540D02*
X749680D01*
X673180Y1113790D02*
X683180D01*
X678180Y1108790D02*
Y1118790D01*
X670680Y1099790D02*
Y1127790D01*
X685680Y1099790D02*
Y1127790D01*
X670680Y1099790D02*
X685680D01*
X670680Y1127790D02*
X685680D01*
X496844Y1203686D02*
X503916Y1196615D01*
X496844Y1196615D02*
X503916Y1203686D01*
X495784Y1184947D02*
X515583Y1204746D01*
X485177Y1195554D02*
X504976Y1215353D01*
X515583Y1204746D01*
X485177Y1195554D02*
X495784Y1184947D01*
X484145Y1216386D02*
X491216Y1209314D01*
X484145Y1209314D02*
X491216Y1216386D01*
X483084Y1197647D02*
X502883Y1217446D01*
X472477Y1208254D02*
X492276Y1228053D01*
X502883Y1217446D01*
X472477Y1208254D02*
X483084Y1197647D01*
X523515Y1231626D02*
X530586Y1224554D01*
X523515Y1224554D02*
X530586Y1231626D01*
X511494Y1223847D02*
X531293Y1243646D01*
X522807Y1212534D02*
X542606Y1232333D01*
X511494Y1223847D02*
X522807Y1212534D01*
X531293Y1243646D02*
X542606Y1232333D01*
X526054Y1103904D02*
X533125Y1110975D01*
X526054D02*
X533125Y1103904D01*
X525347Y1122996D02*
X545146Y1103197D01*
X514034Y1111683D02*
X533833Y1091884D01*
X514034Y1111683D02*
X525347Y1122996D01*
X533833Y1091884D02*
X545146Y1103197D01*
X602254Y1103904D02*
X609325Y1110975D01*
X602254D02*
X609325Y1103904D01*
X601547Y1122996D02*
X621346Y1103197D01*
X590234Y1111683D02*
X610033Y1091884D01*
X590234Y1111683D02*
X601547Y1122996D01*
X610033Y1091884D02*
X621346Y1103197D01*
X653465Y1148536D02*
X660536Y1141464D01*
X653465D02*
X660536Y1148536D01*
X641797Y1140404D02*
X661596Y1160203D01*
X652404Y1129797D02*
X672203Y1149596D01*
X641797Y1140404D02*
X652404Y1129797D01*
X661596Y1160203D02*
X672203Y1149596D01*
X579394Y1251945D02*
X586466Y1244874D01*
X579394Y1244874D02*
X586466Y1251945D01*
X567374Y1244167D02*
X587173Y1263966D01*
X578687Y1232854D02*
X598486Y1252653D01*
X567374Y1244167D02*
X578687Y1232854D01*
X587173Y1263966D02*
X598486Y1252653D01*
X645434Y1189716D02*
X652505Y1182645D01*
X645434D02*
X652505Y1189716D01*
X644727Y1170624D02*
X664526Y1190423D01*
X633414Y1181937D02*
X653213Y1201736D01*
X664526Y1190423D01*
X633414Y1181937D02*
X644727Y1170624D01*
X673180Y1215390D02*
X683180D01*
X678180Y1210390D02*
Y1220390D01*
X670680Y1201390D02*
Y1229390D01*
X685680Y1201390D02*
Y1229390D01*
X670680Y1201390D02*
X685680D01*
X670680Y1229390D02*
X685680D01*
X946230Y1187450D02*
X956230D01*
X951230Y1182450D02*
Y1192450D01*
X959230Y1173450D02*
Y1201450D01*
X943230Y1173450D02*
Y1201450D01*
X959230D01*
X943230Y1173450D02*
X959230D01*
X946230Y1148080D02*
X956230D01*
X951230Y1143080D02*
Y1153080D01*
X943230Y1134080D02*
Y1162080D01*
X959230Y1134080D02*
Y1162080D01*
X943230Y1134080D02*
X959230D01*
X943230Y1162080D02*
X959230D01*
X1036400Y1167130D02*
X1046400D01*
X1041400Y1162130D02*
Y1172130D01*
X1033900Y1153130D02*
Y1181130D01*
X1048900Y1153130D02*
Y1181130D01*
X1033900Y1153130D02*
X1048900D01*
X1033900Y1181130D02*
X1048900D01*
X434340Y1204040D02*
Y1214040D01*
X429340Y1209040D02*
X439340D01*
X414340Y1218540D02*
X454340D01*
X414340Y1199540D02*
X454340D01*
X414340D02*
Y1218540D01*
X454340Y1199540D02*
Y1218540D01*
X400050Y1161110D02*
Y1170610D01*
X395300Y1165860D02*
X404800D01*
X388050Y1171360D02*
X412050D01*
X388050Y1160360D02*
X412050D01*
X388050D02*
Y1171360D01*
X412050Y1160360D02*
Y1171360D01*
X400050Y1145870D02*
Y1155370D01*
X395300Y1150620D02*
X404800D01*
X388050Y1156120D02*
X412050D01*
X388050Y1145120D02*
X412050D01*
X388050D02*
Y1156120D01*
X412050Y1145120D02*
Y1156120D01*
X383620Y1109980D02*
X393620D01*
X388620Y1104980D02*
Y1114980D01*
X381120Y1095980D02*
Y1123980D01*
X396120Y1095980D02*
Y1123980D01*
X381120Y1095980D02*
X396120D01*
X381120Y1123980D02*
X396120D01*
X403940Y1109980D02*
X413940D01*
X408940Y1104980D02*
Y1114980D01*
X416940Y1095980D02*
Y1123980D01*
X400940Y1095980D02*
Y1123980D01*
X416940D01*
X400940Y1095980D02*
X416940D01*
X478870Y1149350D02*
X488870D01*
X483870Y1144350D02*
Y1154350D01*
X491370Y1163350D02*
X491370Y1135350D01*
X476370D02*
Y1163350D01*
X491370D01*
X476370Y1135350D02*
X491370D01*
X457280Y1149350D02*
X467280D01*
X462280Y1144350D02*
Y1154350D01*
X469780Y1163350D02*
X469780Y1135350D01*
X454780D02*
Y1163350D01*
X469780D01*
X454780Y1135350D02*
X469780D01*
X434340Y1182450D02*
Y1192450D01*
X429340Y1187450D02*
X439340D01*
X414340Y1177950D02*
X454340D01*
X414340Y1196950D02*
X454340D01*
Y1177950D02*
Y1196950D01*
X414340Y1177950D02*
Y1196950D01*
X433070Y1230710D02*
Y1240710D01*
X428070Y1235710D02*
X438070D01*
X419070Y1243210D02*
X447070D01*
X419070Y1228210D02*
X447070D01*
X419070D02*
Y1243210D01*
X447070Y1228210D02*
Y1243210D01*
X516970Y961390D02*
X526970D01*
X521970Y956390D02*
Y966390D01*
X514470Y947390D02*
Y975390D01*
X529470Y947390D02*
Y975390D01*
X514470Y947390D02*
X529470D01*
X514470Y975390D02*
X529470D01*
X490300Y961390D02*
X500300D01*
X495300Y956390D02*
Y966390D01*
X487800Y947390D02*
Y975390D01*
X502800Y947390D02*
Y975390D01*
X487800Y947390D02*
X502800D01*
X487800Y975390D02*
X502800D01*
X450240Y982660D02*
X469240D01*
X450240Y942660D02*
X469240D01*
Y982660D01*
X450240Y942660D02*
Y982660D01*
X459740Y957660D02*
Y967660D01*
X454740Y962660D02*
X464740D01*
X406480Y956310D02*
X416480D01*
X411480Y951310D02*
Y961310D01*
X403480Y942310D02*
Y970310D01*
X419480Y942310D02*
Y970310D01*
X403480Y942310D02*
X419480D01*
X403480Y970310D02*
X419480D01*
X386160Y956310D02*
X396160D01*
X391160Y951310D02*
Y961310D01*
X398660Y942310D02*
Y970310D01*
X383660Y942310D02*
Y970310D01*
X398660D01*
X383660Y942310D02*
X398660D01*
X448000Y1020500D02*
Y1039500D01*
X488000Y1020500D02*
Y1039500D01*
X448000D02*
X488000D01*
X448000Y1020500D02*
X488000D01*
X463000Y1030000D02*
X473000D01*
X468000Y1025000D02*
Y1035000D01*
X391240Y1195070D02*
X401240D01*
X396240Y1190070D02*
Y1200070D01*
X388240Y1181070D02*
Y1209070D01*
X404240Y1181070D02*
Y1209070D01*
X388240Y1181070D02*
X404240D01*
X388240Y1209070D02*
X404240D01*
X402590Y1230710D02*
Y1240710D01*
X397590Y1235710D02*
X407590D01*
X388590Y1243210D02*
X416590D01*
X388590Y1228210D02*
X416590D01*
X388590D02*
Y1243210D01*
X416590Y1228210D02*
Y1243210D01*
X767080Y1235790D02*
Y1245790D01*
X762080Y1240790D02*
X772080D01*
X753080Y1233290D02*
X781080D01*
X753080Y1248290D02*
X781080D01*
Y1233290D02*
Y1248290D01*
X753080Y1233290D02*
Y1248290D01*
%TF.MD5,573b183919fa68252f4131bae8644be5*%
M02*
